<mxfile host="app.diagrams.net" modified="2023-06-01T20:52:17.272Z" agent="Mozilla/5.0 (Windows NT 10.0; Win64; x64) AppleWebKit/537.36 (KHTML, like Gecko) Chrome/112.0.0.0 Safari/537.36 OPR/98.0.0.0" etag="RYcwW6HXBEzc3KjSfxeX" version="21.3.2">
  <diagram id="XMwrWmoNUrTni26uysBv" name="PÃ¡gina-1">
    <mxGraphModel dx="2817" dy="1827" grid="1" gridSize="10" guides="1" tooltips="1" connect="1" arrows="1" fold="1" page="1" pageScale="1" pageWidth="827" pageHeight="1169" background="none" math="0" shadow="0">
      <root>
        <mxCell id="0" />
        <mxCell id="1" parent="0" />
        <mxCell id="ZhGPCTu5Iyny0ZlqSRic-1" value="&lt;font style=&quot;font-size:11px;font-family:Calibri;color:#000000;direction:ltr;letter-spacing:0px;line-height:120%;opacity:1&quot;&gt;TABLERO&lt;br&gt;&lt;/font&gt;" style="verticalAlign=middle;align=center;vsdxID=7;fillColor=#FFFFFF;gradientColor=none;shape=stencil(nZBLDoAgDERP0z3SIyjew0SURgSD+Lu9kMZoXLhwN9O+tukAlrNpJg1SzDH4QW/URgNYgZTkjA4UkwJUgGXng+6DX1zLfmoymdXo17xh5zmRJ6Q42BWCfc2oJfdAr+Yv+AP9Cb7OJ3H/2JG1HNGz/84klThPVCc=);strokeColor=#000000;spacingTop=-1;spacingBottom=-1;spacingLeft=-1;spacingRight=-1;labelBackgroundColor=none;rounded=0;html=1;whiteSpace=wrap;" parent="1" vertex="1">
          <mxGeometry x="-552" y="5" width="82" height="30" as="geometry" />
        </mxCell>
        <mxCell id="ZhGPCTu5Iyny0ZlqSRic-4" value="&lt;font style=&quot;font-size:11px;font-family:Calibri;color:#000000;direction:ltr;letter-spacing:0px;line-height:120%;opacity:1&quot;&gt;ACTIVO&lt;br&gt;&lt;/font&gt;" style="verticalAlign=middle;align=center;vsdxID=7;fillColor=#FFFFFF;gradientColor=none;shape=stencil(nZBLDoAgDERP0z3SIyjew0SURgSD+Lu9kMZoXLhwN9O+tukAlrNpJg1SzDH4QW/URgNYgZTkjA4UkwJUgGXng+6DX1zLfmoymdXo17xh5zmRJ6Q42BWCfc2oJfdAr+Yv+AP9Cb7OJ3H/2JG1HNGz/84klThPVCc=);strokeColor=#000000;spacingTop=-1;spacingBottom=-1;spacingLeft=-1;spacingRight=-1;labelBackgroundColor=none;rounded=0;html=1;whiteSpace=wrap;" parent="1" vertex="1">
          <mxGeometry x="-552" y="-710" width="82" height="30" as="geometry" />
        </mxCell>
        <mxCell id="ZhGPCTu5Iyny0ZlqSRic-5" value="&lt;font style=&quot;font-size:11px;font-family:Calibri;color:#000000;direction:ltr;letter-spacing:0px;line-height:120%;opacity:1&quot;&gt;DADO&lt;br&gt;&lt;/font&gt;" style="verticalAlign=middle;align=center;vsdxID=7;fillColor=#FFFFFF;gradientColor=none;shape=stencil(nZBLDoAgDERP0z3SIyjew0SURgSD+Lu9kMZoXLhwN9O+tukAlrNpJg1SzDH4QW/URgNYgZTkjA4UkwJUgGXng+6DX1zLfmoymdXo17xh5zmRJ6Q42BWCfc2oJfdAr+Yv+AP9Cb7OJ3H/2JG1HNGz/84klThPVCc=);strokeColor=#000000;spacingTop=-1;spacingBottom=-1;spacingLeft=-1;spacingRight=-1;labelBackgroundColor=none;rounded=0;html=1;whiteSpace=wrap;" parent="1" vertex="1">
          <mxGeometry x="-101" y="-595" width="82" height="30" as="geometry" />
        </mxCell>
        <mxCell id="ZhGPCTu5Iyny0ZlqSRic-6" value="&lt;font style=&quot;font-size: 11px ; font-family: &amp;quot;calibri&amp;quot; ; color: #000000 ; direction: ltr ; letter-spacing: 0px ; line-height: 120% ; opacity: 1&quot;&gt;TIENE&lt;br&gt;&lt;/font&gt;" style="verticalAlign=middle;align=center;vsdxID=2;fillColor=#FFFFFF;gradientColor=none;shape=stencil(tVLREoIgEPwaHnEQxsl3s/9gEpSJwDko7e+DsEkze2l627vdu5uFRaxyHe8FosR5sCcxqMZ3iO0Rpcp0ApQPCLEasUpaEC3Yi2lS3fOojOhsr3HDmObyMtsVcYqS29Qh5FEfklwrM5OXeUa/yjkcAwfr7TDpiyTfXvjkMR+Vw2A998qaBac5tAKHU1hq3i4oNwjRr9ofvayt/+Rk+yX/4iWA159KpXWKxJx/z0Bopfyw+g4=);strokeColor=#000000;spacingTop=-1;spacingBottom=-1;spacingLeft=-1;spacingRight=-1;labelBackgroundColor=none;rounded=0;html=1;whiteSpace=wrap;" parent="1" vertex="1">
          <mxGeometry x="-720" y="-645" width="80" height="30" as="geometry" />
        </mxCell>
        <mxCell id="ZhGPCTu5Iyny0ZlqSRic-7" value="&lt;font style=&quot;font-size:11px;font-family:Calibri;color:#000000;direction:ltr;letter-spacing:0px;line-height:120%;opacity:1&quot;&gt;FICHA&lt;br&gt;&lt;/font&gt;" style="verticalAlign=middle;align=center;vsdxID=7;fillColor=#FFFFFF;gradientColor=none;shape=stencil(nZBLDoAgDERP0z3SIyjew0SURgSD+Lu9kMZoXLhwN9O+tukAlrNpJg1SzDH4QW/URgNYgZTkjA4UkwJUgGXng+6DX1zLfmoymdXo17xh5zmRJ6Q42BWCfc2oJfdAr+Yv+AP9Cb7OJ3H/2JG1HNGz/84klThPVCc=);strokeColor=#000000;spacingTop=-1;spacingBottom=-1;spacingLeft=-1;spacingRight=-1;labelBackgroundColor=none;rounded=0;html=1;whiteSpace=wrap;" parent="1" vertex="1">
          <mxGeometry x="-520" y="-455" width="82" height="30" as="geometry" />
        </mxCell>
        <mxCell id="DCNwNrw-yuZkW3MHIDjY-6" value="&lt;font style=&quot;font-size: 11px ; font-family: &amp;quot;calibri&amp;quot; ; color: #000000 ; direction: ltr ; letter-spacing: 0px ; line-height: 120% ; opacity: 1&quot;&gt;TIENE&lt;br&gt;&lt;/font&gt;" style="verticalAlign=middle;align=center;vsdxID=2;fillColor=#FFFFFF;gradientColor=none;shape=stencil(tVLREoIgEPwaHnEQxsl3s/9gEpSJwDko7e+DsEkze2l627vdu5uFRaxyHe8FosR5sCcxqMZ3iO0Rpcp0ApQPCLEasUpaEC3Yi2lS3fOojOhsr3HDmObyMtsVcYqS29Qh5FEfklwrM5OXeUa/yjkcAwfr7TDpiyTfXvjkMR+Vw2A998qaBac5tAKHU1hq3i4oNwjRr9ofvayt/+Rk+yX/4iWA159KpXWKxJx/z0Bopfyw+g4=);strokeColor=#000000;spacingTop=-1;spacingBottom=-1;spacingLeft=-1;spacingRight=-1;labelBackgroundColor=none;rounded=0;html=1;whiteSpace=wrap;" parent="1" vertex="1">
          <mxGeometry x="-416" y="65" width="80" height="30" as="geometry" />
        </mxCell>
        <mxCell id="3d_Hws1QxchP5DV1Z6rh-1" value="&lt;font style=&quot;font-size:11px;font-family:Calibri;color:#000000;direction:ltr;letter-spacing:0px;line-height:120%;opacity:1&quot;&gt;CASILLA&lt;br&gt;&lt;/font&gt;" style="verticalAlign=middle;align=center;vsdxID=7;fillColor=#FFFFFF;gradientColor=none;shape=stencil(nZBLDoAgDERP0z3SIyjew0SURgSD+Lu9kMZoXLhwN9O+tukAlrNpJg1SzDH4QW/URgNYgZTkjA4UkwJUgGXng+6DX1zLfmoymdXo17xh5zmRJ6Q42BWCfc2oJfdAr+Yv+AP9Cb7OJ3H/2JG1HNGz/84klThPVCc=);strokeColor=#000000;spacingTop=-1;spacingBottom=-1;spacingLeft=-1;spacingRight=-1;labelBackgroundColor=none;rounded=0;html=1;whiteSpace=wrap;" parent="1" vertex="1">
          <mxGeometry x="-240.75" y="109" width="82" height="30" as="geometry" />
        </mxCell>
        <mxCell id="ZhGPCTu5Iyny0ZlqSRic-11" value="&lt;font style=&quot;font-size:11px;font-family:Calibri;color:#000000;direction:ltr;letter-spacing:0px;line-height:120%;opacity:1&quot;&gt;CARCEL&lt;br&gt;&lt;/font&gt;" style="verticalAlign=middle;align=center;vsdxID=7;fillColor=#FFFFFF;gradientColor=none;shape=stencil(nZBLDoAgDERP0z3SIyjew0SURgSD+Lu9kMZoXLhwN9O+tukAlrNpJg1SzDH4QW/URgNYgZTkjA4UkwJUgGXng+6DX1zLfmoymdXo17xh5zmRJ6Q42BWCfc2oJfdAr+Yv+AP9Cb7OJ3H/2JG1HNGz/84klThPVCc=);strokeColor=#000000;spacingTop=-1;spacingBottom=-1;spacingLeft=-1;spacingRight=-1;labelBackgroundColor=none;rounded=0;html=1;whiteSpace=wrap;" parent="1" vertex="1">
          <mxGeometry x="-367" y="-70" width="82" height="35" as="geometry" />
        </mxCell>
        <mxCell id="3d_Hws1QxchP5DV1Z6rh-3" value="&lt;font style=&quot;font-size:11px;font-family:Calibri;color:#000000;direction:ltr;letter-spacing:0px;line-height:120%;opacity:1&quot;&gt;CAPACIDAD&lt;br&gt;&lt;/font&gt;" style="verticalAlign=middle;align=center;vsdxID=7;fillColor=#FFFFFF;gradientColor=none;shape=stencil(nZBLDoAgDERP0z3SIyjew0SURgSD+Lu9kMZoXLhwN9O+tukAlrNpJg1SzDH4QW/URgNYgZTkjA4UkwJUgGXng+6DX1zLfmoymdXo17xh5zmRJ6Q42BWCfc2oJfdAr+Yv+AP9Cb7OJ3H/2JG1HNGz/84klThPVCc=);strokeColor=#000000;spacingTop=-1;spacingBottom=-1;spacingLeft=-1;spacingRight=-1;labelBackgroundColor=none;rounded=0;html=1;whiteSpace=wrap;" parent="1" vertex="1">
          <mxGeometry x="-455" y="-11" width="82" height="30" as="geometry" />
        </mxCell>
        <mxCell id="ZhGPCTu5Iyny0ZlqSRic-12" value="&lt;font style=&quot;font-size:11px;font-family:Calibri;color:#000000;direction:ltr;letter-spacing:0px;line-height:120%;opacity:1&quot;&gt;CIELO&lt;br&gt;&lt;/font&gt;" style="verticalAlign=middle;align=center;vsdxID=7;fillColor=#FFFFFF;gradientColor=none;shape=stencil(nZBLDoAgDERP0z3SIyjew0SURgSD+Lu9kMZoXLhwN9O+tukAlrNpJg1SzDH4QW/URgNYgZTkjA4UkwJUgGXng+6DX1zLfmoymdXo17xh5zmRJ6Q42BWCfc2oJfdAr+Yv+AP9Cb7OJ3H/2JG1HNGz/84klThPVCc=);strokeColor=#000000;spacingTop=-1;spacingBottom=-1;spacingLeft=-1;spacingRight=-1;labelBackgroundColor=none;rounded=0;html=1;whiteSpace=wrap;" parent="1" vertex="1">
          <mxGeometry x="-299" y="-11" width="82" height="30" as="geometry" />
        </mxCell>
        <mxCell id="ZhGPCTu5Iyny0ZlqSRic-13" style="vsdxID=57;edgeStyle=none;startArrow=none;endArrow=block;startSize=5;endSize=9;strokeColor=#000000;spacingTop=0;spacingBottom=0;spacingLeft=0;spacingRight=0;verticalAlign=middle;html=1;labelBackgroundColor=#ffffff;rounded=0;" parent="1" source="ZhGPCTu5Iyny0ZlqSRic-4" target="ZhGPCTu5Iyny0ZlqSRic-6" edge="1">
          <mxGeometry relative="1" as="geometry">
            <mxPoint as="offset" />
            <mxPoint x="-198" y="-35" as="sourcePoint" />
            <mxPoint x="-360" y="-260" as="targetPoint" />
          </mxGeometry>
        </mxCell>
        <mxCell id="DCNwNrw-yuZkW3MHIDjY-3" value="&lt;font style=&quot;font-size: 11px ; font-family: &amp;quot;calibri&amp;quot; ; color: #000000 ; direction: ltr ; letter-spacing: 0px ; line-height: 120% ; opacity: 1&quot;&gt;TIENE&lt;br&gt;&lt;/font&gt;" style="verticalAlign=middle;align=center;vsdxID=2;fillColor=#FFFFFF;gradientColor=none;shape=stencil(tVLREoIgEPwaHnEQxsl3s/9gEpSJwDko7e+DsEkze2l627vdu5uFRaxyHe8FosR5sCcxqMZ3iO0Rpcp0ApQPCLEasUpaEC3Yi2lS3fOojOhsr3HDmObyMtsVcYqS29Qh5FEfklwrM5OXeUa/yjkcAwfr7TDpiyTfXvjkMR+Vw2A998qaBac5tAKHU1hq3i4oNwjRr9ofvayt/+Rk+yX/4iWA159KpXWKxJx/z0Bopfyw+g4=);strokeColor=#000000;spacingTop=-1;spacingBottom=-1;spacingLeft=-1;spacingRight=-1;labelBackgroundColor=none;rounded=0;html=1;whiteSpace=wrap;" parent="1" vertex="1">
          <mxGeometry x="-116.75" y="109" width="80" height="30" as="geometry" />
        </mxCell>
        <mxCell id="ZhGPCTu5Iyny0ZlqSRic-15" style="vsdxID=57;edgeStyle=none;startArrow=none;endArrow=block;startSize=5;endSize=9;strokeColor=#000000;spacingTop=0;spacingBottom=0;spacingLeft=0;spacingRight=0;verticalAlign=middle;html=1;labelBackgroundColor=#ffffff;rounded=0;" parent="1" source="ZhGPCTu5Iyny0ZlqSRic-6" target="ZhGPCTu5Iyny0ZlqSRic-7" edge="1">
          <mxGeometry relative="1" as="geometry">
            <mxPoint as="offset" />
            <mxPoint x="-239" y="-20" as="sourcePoint" />
            <mxPoint x="-239" y="60" as="targetPoint" />
          </mxGeometry>
        </mxCell>
        <mxCell id="ZhGPCTu5Iyny0ZlqSRic-16" value="&lt;font style=&quot;font-size:11px;font-family:Calibri;color:#000000;direction:ltr;letter-spacing:0px;line-height:120%;opacity:1&quot;&gt;ESTADO&lt;br&gt;&lt;/font&gt;" style="verticalAlign=middle;align=center;vsdxID=7;fillColor=#FFFFFF;gradientColor=none;shape=stencil(nZBLDoAgDERP0z3SIyjew0SURgSD+Lu9kMZoXLhwN9O+tukAlrNpJg1SzDH4QW/URgNYgZTkjA4UkwJUgGXng+6DX1zLfmoymdXo17xh5zmRJ6Q42BWCfc2oJfdAr+Yv+AP9Cb7OJ3H/2JG1HNGz/84klThPVCc=);strokeColor=#000000;spacingTop=-1;spacingBottom=-1;spacingLeft=-1;spacingRight=-1;labelBackgroundColor=none;rounded=0;html=1;whiteSpace=wrap;" parent="1" vertex="1">
          <mxGeometry x="-322.75" y="-270" width="82" height="30" as="geometry" />
        </mxCell>
        <mxCell id="ZhGPCTu5Iyny0ZlqSRic-17" value="&lt;font style=&quot;font-size:11px;font-family:Calibri;color:#000000;direction:ltr;letter-spacing:0px;line-height:120%;opacity:1&quot;&gt;COLOR&lt;br&gt;&lt;/font&gt;" style="verticalAlign=middle;align=center;vsdxID=7;fillColor=#FFFFFF;gradientColor=none;shape=stencil(nZBLDoAgDERP0z3SIyjew0SURgSD+Lu9kMZoXLhwN9O+tukAlrNpJg1SzDH4QW/URgNYgZTkjA4UkwJUgGXng+6DX1zLfmoymdXo17xh5zmRJ6Q42BWCfc2oJfdAr+Yv+AP9Cb7OJ3H/2JG1HNGz/84klThPVCc=);strokeColor=#000000;spacingTop=-1;spacingBottom=-1;spacingLeft=-1;spacingRight=-1;labelBackgroundColor=none;rounded=0;html=1;whiteSpace=wrap;" parent="1" vertex="1">
          <mxGeometry x="-294" y="-410" width="82" height="30" as="geometry" />
        </mxCell>
        <mxCell id="ZhGPCTu5Iyny0ZlqSRic-18" value="&lt;font style=&quot;font-size:11px;font-family:Calibri;color:#000000;direction:ltr;letter-spacing:0px;line-height:120%;opacity:1&quot;&gt;CANTIDAD&lt;br&gt;&lt;/font&gt;" style="verticalAlign=middle;align=center;vsdxID=7;fillColor=#FFFFFF;gradientColor=none;shape=stencil(nZBLDoAgDERP0z3SIyjew0SURgSD+Lu9kMZoXLhwN9O+tukAlrNpJg1SzDH4QW/URgNYgZTkjA4UkwJUgGXng+6DX1zLfmoymdXo17xh5zmRJ6Q42BWCfc2oJfdAr+Yv+AP9Cb7OJ3H/2JG1HNGz/84klThPVCc=);strokeColor=#000000;spacingTop=-1;spacingBottom=-1;spacingLeft=-1;spacingRight=-1;labelBackgroundColor=none;rounded=0;html=1;whiteSpace=wrap;" parent="1" vertex="1">
          <mxGeometry x="-223" y="-365" width="82" height="30" as="geometry" />
        </mxCell>
        <mxCell id="ZhGPCTu5Iyny0ZlqSRic-19" value="&lt;font style=&quot;font-size:11px;font-family:Calibri;color:#000000;direction:ltr;letter-spacing:0px;line-height:120%;opacity:1&quot;&gt;POSICION&lt;br&gt;&lt;/font&gt;" style="verticalAlign=middle;align=center;vsdxID=7;fillColor=#FFFFFF;gradientColor=none;shape=stencil(nZBLDoAgDERP0z3SIyjew0SURgSD+Lu9kMZoXLhwN9O+tukAlrNpJg1SzDH4QW/URgNYgZTkjA4UkwJUgGXng+6DX1zLfmoymdXo17xh5zmRJ6Q42BWCfc2oJfdAr+Yv+AP9Cb7OJ3H/2JG1HNGz/84klThPVCc=);strokeColor=#000000;spacingTop=-1;spacingBottom=-1;spacingLeft=-1;spacingRight=-1;labelBackgroundColor=none;rounded=0;html=1;whiteSpace=wrap;" parent="1" vertex="1">
          <mxGeometry x="-190" y="-310" width="82" height="30" as="geometry" />
        </mxCell>
        <mxCell id="3d_Hws1QxchP5DV1Z6rh-4" value="&lt;font style=&quot;font-size: 11px ; font-family: &amp;quot;calibri&amp;quot; ; color: #000000 ; direction: ltr ; letter-spacing: 0px ; line-height: 120% ; opacity: 1&quot;&gt;TIENE&lt;br&gt;&lt;/font&gt;" style="verticalAlign=middle;align=center;vsdxID=2;fillColor=#FFFFFF;gradientColor=none;shape=stencil(tVLREoIgEPwaHnEQxsl3s/9gEpSJwDko7e+DsEkze2l627vdu5uFRaxyHe8FosR5sCcxqMZ3iO0Rpcp0ApQPCLEasUpaEC3Yi2lS3fOojOhsr3HDmObyMtsVcYqS29Qh5FEfklwrM5OXeUa/yjkcAwfr7TDpiyTfXvjkMR+Vw2A998qaBac5tAKHU1hq3i4oNwjRr9ofvayt/+Rk+yX/4iWA159KpXWKxJx/z0Bopfyw+g4=);strokeColor=#000000;spacingTop=-1;spacingBottom=-1;spacingLeft=-1;spacingRight=-1;labelBackgroundColor=none;rounded=0;html=1;whiteSpace=wrap;" parent="1" vertex="1">
          <mxGeometry x="-204.75" y="202.5" width="80" height="30" as="geometry" />
        </mxCell>
        <mxCell id="3d_Hws1QxchP5DV1Z6rh-6" value="&lt;font style=&quot;font-size:11px;font-family:Calibri;color:#000000;direction:ltr;letter-spacing:0px;line-height:120%;opacity:1&quot;&gt;SALIDA&lt;br&gt;&lt;/font&gt;" style="verticalAlign=middle;align=center;vsdxID=7;fillColor=#FFFFFF;gradientColor=none;shape=stencil(nZBLDoAgDERP0z3SIyjew0SURgSD+Lu9kMZoXLhwN9O+tukAlrNpJg1SzDH4QW/URgNYgZTkjA4UkwJUgGXng+6DX1zLfmoymdXo17xh5zmRJ6Q42BWCfc2oJfdAr+Yv+AP9Cb7OJ3H/2JG1HNGz/84klThPVCc=);strokeColor=#000000;spacingTop=-1;spacingBottom=-1;spacingLeft=-1;spacingRight=-1;labelBackgroundColor=none;rounded=0;html=1;whiteSpace=wrap;direction=west;" parent="1" vertex="1">
          <mxGeometry x="-480.25" y="220" width="62" height="30" as="geometry" />
        </mxCell>
        <mxCell id="ZhGPCTu5Iyny0ZlqSRic-21" value="&lt;font style=&quot;font-size: 11px ; font-family: &amp;quot;calibri&amp;quot; ; color: #000000 ; direction: ltr ; letter-spacing: 0px ; line-height: 120% ; opacity: 1&quot;&gt;TIENE&lt;br&gt;&lt;/font&gt;" style="verticalAlign=middle;align=center;vsdxID=2;fillColor=#FFFFFF;gradientColor=none;shape=stencil(tVLREoIgEPwaHnEQxsl3s/9gEpSJwDko7e+DsEkze2l627vdu5uFRaxyHe8FosR5sCcxqMZ3iO0Rpcp0ApQPCLEasUpaEC3Yi2lS3fOojOhsr3HDmObyMtsVcYqS29Qh5FEfklwrM5OXeUa/yjkcAwfr7TDpiyTfXvjkMR+Vw2A998qaBac5tAKHU1hq3i4oNwjRr9ofvayt/+Rk+yX/4iWA159KpXWKxJx/z0Bopfyw+g4=);strokeColor=#000000;spacingTop=-1;spacingBottom=-1;spacingLeft=-1;spacingRight=-1;labelBackgroundColor=none;rounded=0;html=1;whiteSpace=wrap;" parent="1" vertex="1">
          <mxGeometry x="-418" y="-330" width="80" height="30" as="geometry" />
        </mxCell>
        <mxCell id="ZhGPCTu5Iyny0ZlqSRic-23" style="vsdxID=57;edgeStyle=none;startArrow=none;endArrow=block;startSize=5;endSize=9;strokeColor=#000000;spacingTop=0;spacingBottom=0;spacingLeft=0;spacingRight=0;verticalAlign=middle;html=1;labelBackgroundColor=#ffffff;rounded=0;" parent="1" source="ZhGPCTu5Iyny0ZlqSRic-7" target="ZhGPCTu5Iyny0ZlqSRic-21" edge="1">
          <mxGeometry relative="1" as="geometry">
            <mxPoint as="offset" />
            <mxPoint x="-119" y="-10" as="sourcePoint" />
            <mxPoint x="-80" y="-180" as="targetPoint" />
          </mxGeometry>
        </mxCell>
        <mxCell id="ZhGPCTu5Iyny0ZlqSRic-25" style="vsdxID=57;edgeStyle=none;startArrow=none;endArrow=block;startSize=5;endSize=9;strokeColor=#000000;spacingTop=0;spacingBottom=0;spacingLeft=0;spacingRight=0;verticalAlign=middle;html=1;labelBackgroundColor=#ffffff;rounded=0;" parent="1" source="ZhGPCTu5Iyny0ZlqSRic-21" target="ZhGPCTu5Iyny0ZlqSRic-18" edge="1">
          <mxGeometry relative="1" as="geometry">
            <mxPoint as="offset" />
            <mxPoint x="-100" y="60" as="sourcePoint" />
            <mxPoint x="-100" y="140" as="targetPoint" />
          </mxGeometry>
        </mxCell>
        <mxCell id="3d_Hws1QxchP5DV1Z6rh-7" value="&lt;font style=&quot;font-size:11px;font-family:Calibri;color:#000000;direction:ltr;letter-spacing:0px;line-height:120%;opacity:1&quot;&gt;LLEGADA&lt;br&gt;&lt;/font&gt;" style="verticalAlign=middle;align=center;vsdxID=7;fillColor=#FFFFFF;gradientColor=none;shape=stencil(nZBLDoAgDERP0z3SIyjew0SURgSD+Lu9kMZoXLhwN9O+tukAlrNpJg1SzDH4QW/URgNYgZTkjA4UkwJUgGXng+6DX1zLfmoymdXo17xh5zmRJ6Q42BWCfc2oJfdAr+Yv+AP9Cb7OJ3H/2JG1HNGz/84klThPVCc=);strokeColor=#000000;spacingTop=-1;spacingBottom=-1;spacingLeft=-1;spacingRight=-1;labelBackgroundColor=none;rounded=0;html=1;whiteSpace=wrap;" parent="1" vertex="1">
          <mxGeometry x="-443" y="300" width="60" height="20" as="geometry" />
        </mxCell>
        <mxCell id="ZhGPCTu5Iyny0ZlqSRic-26" style="vsdxID=57;edgeStyle=none;startArrow=none;endArrow=block;startSize=5;endSize=9;strokeColor=#000000;spacingTop=0;spacingBottom=0;spacingLeft=0;spacingRight=0;verticalAlign=middle;html=1;labelBackgroundColor=#ffffff;rounded=0;" parent="1" source="ZhGPCTu5Iyny0ZlqSRic-21" target="ZhGPCTu5Iyny0ZlqSRic-17" edge="1">
          <mxGeometry relative="1" as="geometry">
            <mxPoint as="offset" />
            <mxPoint x="-100" y="60" as="sourcePoint" />
            <mxPoint x="-100" y="140" as="targetPoint" />
          </mxGeometry>
        </mxCell>
        <mxCell id="3d_Hws1QxchP5DV1Z6rh-8" value="&lt;font style=&quot;font-size:11px;font-family:Calibri;color:#000000;direction:ltr;letter-spacing:0px;line-height:120%;opacity:1&quot;&gt;SEGURO&lt;br&gt;&lt;/font&gt;" style="verticalAlign=middle;align=center;vsdxID=7;fillColor=#FFFFFF;gradientColor=none;shape=stencil(nZBLDoAgDERP0z3SIyjew0SURgSD+Lu9kMZoXLhwN9O+tukAlrNpJg1SzDH4QW/URgNYgZTkjA4UkwJUgGXng+6DX1zLfmoymdXo17xh5zmRJ6Q42BWCfc2oJfdAr+Yv+AP9Cb7OJ3H/2JG1HNGz/84klThPVCc=);strokeColor=#000000;spacingTop=-1;spacingBottom=-1;spacingLeft=-1;spacingRight=-1;labelBackgroundColor=none;rounded=0;html=1;whiteSpace=wrap;" parent="1" vertex="1">
          <mxGeometry x="-213" y="270" width="60" height="20" as="geometry" />
        </mxCell>
        <mxCell id="ZhGPCTu5Iyny0ZlqSRic-27" style="vsdxID=57;edgeStyle=none;startArrow=none;endArrow=block;startSize=5;endSize=9;strokeColor=#000000;spacingTop=0;spacingBottom=0;spacingLeft=0;spacingRight=0;verticalAlign=middle;html=1;labelBackgroundColor=#ffffff;rounded=0;" parent="1" source="ZhGPCTu5Iyny0ZlqSRic-21" target="ZhGPCTu5Iyny0ZlqSRic-16" edge="1">
          <mxGeometry relative="1" as="geometry">
            <mxPoint as="offset" />
            <mxPoint x="-60" y="45" as="sourcePoint" />
            <mxPoint x="20" y="45" as="targetPoint" />
          </mxGeometry>
        </mxCell>
        <mxCell id="ZhGPCTu5Iyny0ZlqSRic-29" style="vsdxID=57;edgeStyle=none;startArrow=none;endArrow=block;startSize=5;endSize=9;strokeColor=#000000;spacingTop=0;spacingBottom=0;spacingLeft=0;spacingRight=0;verticalAlign=middle;html=1;labelBackgroundColor=#ffffff;rounded=0;" parent="1" source="ZhGPCTu5Iyny0ZlqSRic-21" target="ZhGPCTu5Iyny0ZlqSRic-19" edge="1">
          <mxGeometry relative="1" as="geometry">
            <mxPoint as="offset" />
            <mxPoint x="-60" y="45" as="sourcePoint" />
            <mxPoint x="20" y="45" as="targetPoint" />
          </mxGeometry>
        </mxCell>
        <mxCell id="ZhGPCTu5Iyny0ZlqSRic-31" style="vsdxID=57;edgeStyle=none;startArrow=none;endArrow=block;startSize=5;endSize=9;strokeColor=#000000;spacingTop=0;spacingBottom=0;spacingLeft=0;spacingRight=0;verticalAlign=middle;html=1;labelBackgroundColor=#ffffff;rounded=0;" parent="1" source="ZhGPCTu5Iyny0ZlqSRic-5" target="ZhGPCTu5Iyny0ZlqSRic-33" edge="1">
          <mxGeometry relative="1" as="geometry">
            <mxPoint as="offset" />
            <mxPoint x="281" y="-70" as="sourcePoint" />
            <mxPoint x="290" y="-30" as="targetPoint" />
          </mxGeometry>
        </mxCell>
        <mxCell id="ZhGPCTu5Iyny0ZlqSRic-33" value="&lt;font style=&quot;font-size: 11px ; font-family: &amp;quot;calibri&amp;quot; ; color: #000000 ; direction: ltr ; letter-spacing: 0px ; line-height: 120% ; opacity: 1&quot;&gt;TIENE&lt;br&gt;&lt;/font&gt;" style="verticalAlign=middle;align=center;vsdxID=2;fillColor=#FFFFFF;gradientColor=none;shape=stencil(tVLREoIgEPwaHnEQxsl3s/9gEpSJwDko7e+DsEkze2l627vdu5uFRaxyHe8FosR5sCcxqMZ3iO0Rpcp0ApQPCLEasUpaEC3Yi2lS3fOojOhsr3HDmObyMtsVcYqS29Qh5FEfklwrM5OXeUa/yjkcAwfr7TDpiyTfXvjkMR+Vw2A998qaBac5tAKHU1hq3i4oNwjRr9ofvayt/+Rk+yX/4iWA159KpXWKxJx/z0Bopfyw+g4=);strokeColor=#000000;spacingTop=-1;spacingBottom=-1;spacingLeft=-1;spacingRight=-1;labelBackgroundColor=none;rounded=0;html=1;whiteSpace=wrap;" parent="1" vertex="1">
          <mxGeometry x="10" y="-565" width="80" height="30" as="geometry" />
        </mxCell>
        <mxCell id="ZhGPCTu5Iyny0ZlqSRic-36" style="vsdxID=57;edgeStyle=none;startArrow=none;endArrow=block;startSize=5;endSize=9;strokeColor=#000000;spacingTop=0;spacingBottom=0;spacingLeft=0;spacingRight=0;verticalAlign=middle;html=1;labelBackgroundColor=#ffffff;rounded=0;" parent="1" source="a82_juw0TD2ykU31_FT8-60" target="ZhGPCTu5Iyny0ZlqSRic-139" edge="1">
          <mxGeometry relative="1" as="geometry">
            <mxPoint as="offset" />
            <mxPoint x="30" y="-420" as="sourcePoint" />
            <mxPoint x="-31" y="-350" as="targetPoint" />
          </mxGeometry>
        </mxCell>
        <mxCell id="ZhGPCTu5Iyny0ZlqSRic-37" value="&lt;font style=&quot;font-size: 11px ; font-family: &amp;quot;calibri&amp;quot; ; color: #000000 ; direction: ltr ; letter-spacing: 0px ; line-height: 120% ; opacity: 1&quot;&gt;LANZA&lt;br&gt;&lt;/font&gt;" style="verticalAlign=middle;align=center;vsdxID=1;fillColor=#FFFFFF;gradientColor=none;shape=stencil(tVLREoIgEPwaHnEQxsl3s/9gEpSJwDko7e+DsEkze2l627vdu5uFRaxyHe8FosR5sCcxqMZ3iO0Rpcp0ApQPCLEasUpaEC3Yi2lS3fOojOhsr3HDmObyMtsVcYqS29Qh5FEfklwrM5OXeUa/yjkcAwfr7TDpiyTfXvjkMR+Vw2A998qaBac5tAKHU1hq3i4oNwjRr9ofvayt/+Rk+yX/4iWA159KpXWKxJx/z0Bopfyw+g4=);dashed=1;strokeColor=#000000;strokeWidth=3;spacingTop=-1;spacingBottom=-1;spacingLeft=-1;spacingRight=-1;labelBackgroundColor=none;rounded=0;html=1;whiteSpace=wrap;" parent="1" vertex="1">
          <mxGeometry x="-293" y="-590" width="80" height="30" as="geometry" />
        </mxCell>
        <mxCell id="ZhGPCTu5Iyny0ZlqSRic-38" style="vsdxID=57;edgeStyle=none;startArrow=none;endArrow=block;startSize=5;endSize=9;strokeColor=#000000;spacingTop=0;spacingBottom=0;spacingLeft=0;spacingRight=0;verticalAlign=middle;html=1;labelBackgroundColor=#ffffff;rounded=0;" parent="1" source="ZhGPCTu5Iyny0ZlqSRic-4" target="ZhGPCTu5Iyny0ZlqSRic-37" edge="1">
          <mxGeometry relative="1" as="geometry">
            <mxPoint as="offset" />
            <mxPoint x="-298" y="-175" as="sourcePoint" />
            <mxPoint x="-218" y="-175" as="targetPoint" />
          </mxGeometry>
        </mxCell>
        <mxCell id="ZhGPCTu5Iyny0ZlqSRic-39" style="vsdxID=57;edgeStyle=none;startArrow=none;endArrow=block;startSize=5;endSize=9;strokeColor=#000000;spacingTop=0;spacingBottom=0;spacingLeft=0;spacingRight=0;verticalAlign=middle;html=1;labelBackgroundColor=#ffffff;rounded=0;" parent="1" source="ZhGPCTu5Iyny0ZlqSRic-37" target="ZhGPCTu5Iyny0ZlqSRic-5" edge="1">
          <mxGeometry relative="1" as="geometry">
            <mxPoint as="offset" />
            <mxPoint x="-120" y="-195" as="sourcePoint" />
            <mxPoint x="-40" y="-195" as="targetPoint" />
          </mxGeometry>
        </mxCell>
        <mxCell id="ZhGPCTu5Iyny0ZlqSRic-40" style="vsdxID=57;edgeStyle=none;startArrow=none;endArrow=block;startSize=5;endSize=9;strokeColor=#000000;spacingTop=0;spacingBottom=0;spacingLeft=0;spacingRight=0;verticalAlign=middle;html=1;labelBackgroundColor=#ffffff;rounded=0;" parent="1" source="ZhGPCTu5Iyny0ZlqSRic-6" target="ZhGPCTu5Iyny0ZlqSRic-41" edge="1">
          <mxGeometry relative="1" as="geometry">
            <mxPoint as="offset" />
            <mxPoint x="-220" y="-100" as="sourcePoint" />
            <mxPoint x="-300" y="-50" as="targetPoint" />
          </mxGeometry>
        </mxCell>
        <mxCell id="DCNwNrw-yuZkW3MHIDjY-13" style="vsdxID=57;edgeStyle=none;startArrow=none;endArrow=block;startSize=5;endSize=9;strokeColor=#000000;spacingTop=0;spacingBottom=0;spacingLeft=0;spacingRight=0;verticalAlign=middle;html=1;labelBackgroundColor=#ffffff;rounded=0;" parent="1" source="DCNwNrw-yuZkW3MHIDjY-6" target="ZhGPCTu5Iyny0ZlqSRic-11" edge="1">
          <mxGeometry relative="1" as="geometry">
            <mxPoint as="offset" />
            <mxPoint x="-333" y="50" as="sourcePoint" />
            <mxPoint x="-134.75" y="54.5" as="targetPoint" />
          </mxGeometry>
        </mxCell>
        <mxCell id="ZhGPCTu5Iyny0ZlqSRic-41" value="&lt;font style=&quot;font-size:11px;font-family:Calibri;color:#000000;direction:ltr;letter-spacing:0px;line-height:120%;opacity:1&quot;&gt;ID&lt;br&gt;&lt;/font&gt;" style="verticalAlign=middle;align=center;vsdxID=7;fillColor=#FFFFFF;gradientColor=none;shape=stencil(nZBLDoAgDERP0z3SIyjew0SURgSD+Lu9kMZoXLhwN9O+tukAlrNpJg1SzDH4QW/URgNYgZTkjA4UkwJUgGXng+6DX1zLfmoymdXo17xh5zmRJ6Q42BWCfc2oJfdAr+Yv+AP9Cb7OJ3H/2JG1HNGz/84klThPVCc=);strokeColor=#000000;spacingTop=-1;spacingBottom=-1;spacingLeft=-1;spacingRight=-1;labelBackgroundColor=none;rounded=0;html=1;whiteSpace=wrap;" parent="1" vertex="1">
          <mxGeometry x="-672" y="-520" width="82" height="30" as="geometry" />
        </mxCell>
        <mxCell id="DCNwNrw-yuZkW3MHIDjY-15" style="vsdxID=57;edgeStyle=none;startArrow=none;endArrow=block;startSize=5;endSize=9;strokeColor=#000000;spacingTop=0;spacingBottom=0;spacingLeft=0;spacingRight=0;verticalAlign=middle;html=1;labelBackgroundColor=#ffffff;rounded=0;exitX=1.009;exitY=0.364;exitDx=0;exitDy=0;exitPerimeter=0;" parent="1" source="DCNwNrw-yuZkW3MHIDjY-6" target="ZhGPCTu5Iyny0ZlqSRic-12" edge="1">
          <mxGeometry relative="1" as="geometry">
            <mxPoint as="offset" />
            <mxPoint x="-197.75" y="86" as="sourcePoint" />
            <mxPoint x="-122.75" y="72" as="targetPoint" />
          </mxGeometry>
        </mxCell>
        <mxCell id="ZhGPCTu5Iyny0ZlqSRic-42" value="&lt;font style=&quot;font-size:11px;font-family:Calibri;color:#000000;direction:ltr;letter-spacing:0px;line-height:120%;opacity:1&quot;&gt;ESTADO&lt;br&gt;&lt;/font&gt;" style="verticalAlign=middle;align=center;vsdxID=7;fillColor=#FFFFFF;gradientColor=none;shape=stencil(nZBLDoAgDERP0z3SIyjew0SURgSD+Lu9kMZoXLhwN9O+tukAlrNpJg1SzDH4QW/URgNYgZTkjA4UkwJUgGXng+6DX1zLfmoymdXo17xh5zmRJ6Q42BWCfc2oJfdAr+Yv+AP9Cb7OJ3H/2JG1HNGz/84klThPVCc=);strokeColor=#000000;spacingTop=-1;spacingBottom=-1;spacingLeft=-1;spacingRight=-1;labelBackgroundColor=none;rounded=0;html=1;whiteSpace=wrap;" parent="1" vertex="1">
          <mxGeometry x="10" y="104" width="82" height="30" as="geometry" />
        </mxCell>
        <mxCell id="ZhGPCTu5Iyny0ZlqSRic-44" style="vsdxID=57;edgeStyle=none;startArrow=none;endArrow=block;startSize=5;endSize=9;strokeColor=#000000;spacingTop=0;spacingBottom=0;spacingLeft=0;spacingRight=0;verticalAlign=middle;html=1;labelBackgroundColor=#ffffff;rounded=0;exitX=0.791;exitY=1.042;exitDx=0;exitDy=0;exitPerimeter=0;" parent="1" source="DCNwNrw-yuZkW3MHIDjY-6" target="3d_Hws1QxchP5DV1Z6rh-1" edge="1">
          <mxGeometry relative="1" as="geometry">
            <mxPoint as="offset" />
            <mxPoint x="-244.75" y="100" as="sourcePoint" />
            <mxPoint x="-244.75" y="180" as="targetPoint" />
          </mxGeometry>
        </mxCell>
        <mxCell id="ZhGPCTu5Iyny0ZlqSRic-47" value="&lt;font style=&quot;font-size:11px;font-family:Calibri;color:#000000;direction:ltr;letter-spacing:0px;line-height:120%;opacity:1&quot;&gt;FONDO&lt;br&gt;&lt;/font&gt;" style="verticalAlign=middle;align=center;vsdxID=7;fillColor=#FFFFFF;gradientColor=none;shape=stencil(nZBLDoAgDERP0z3SIyjew0SURgSD+Lu9kMZoXLhwN9O+tukAlrNpJg1SzDH4QW/URgNYgZTkjA4UkwJUgGXng+6DX1zLfmoymdXo17xh5zmRJ6Q42BWCfc2oJfdAr+Yv+AP9Cb7OJ3H/2JG1HNGz/84klThPVCc=);strokeColor=#000000;spacingTop=-1;spacingBottom=-1;spacingLeft=-1;spacingRight=-1;labelBackgroundColor=none;rounded=0;html=1;whiteSpace=wrap;" parent="1" vertex="1">
          <mxGeometry x="-413" y="120" width="82" height="30" as="geometry" />
        </mxCell>
        <mxCell id="ZhGPCTu5Iyny0ZlqSRic-48" style="vsdxID=57;edgeStyle=none;startArrow=none;endArrow=block;startSize=5;endSize=9;strokeColor=#000000;spacingTop=0;spacingBottom=0;spacingLeft=0;spacingRight=0;verticalAlign=middle;html=1;labelBackgroundColor=#ffffff;rounded=0;" parent="1" source="DCNwNrw-yuZkW3MHIDjY-6" target="ZhGPCTu5Iyny0ZlqSRic-47" edge="1">
          <mxGeometry relative="1" as="geometry">
            <mxPoint as="offset" />
            <mxPoint x="-244.75" y="100" as="sourcePoint" />
            <mxPoint x="-244.75" y="180" as="targetPoint" />
          </mxGeometry>
        </mxCell>
        <mxCell id="ZhGPCTu5Iyny0ZlqSRic-50" style="vsdxID=57;edgeStyle=none;startArrow=none;endArrow=block;startSize=5;endSize=9;strokeColor=#000000;spacingTop=0;spacingBottom=0;spacingLeft=0;spacingRight=0;verticalAlign=middle;html=1;labelBackgroundColor=#ffffff;rounded=0;entryX=0.05;entryY=0.1;entryDx=0;entryDy=0;entryPerimeter=0;" parent="1" source="ZhGPCTu5Iyny0ZlqSRic-1" target="DCNwNrw-yuZkW3MHIDjY-6" edge="1">
          <mxGeometry relative="1" as="geometry">
            <mxPoint as="offset" />
            <mxPoint x="-342.75" y="22.5" as="sourcePoint" />
            <mxPoint x="-262.75" y="22.5" as="targetPoint" />
          </mxGeometry>
        </mxCell>
        <mxCell id="ZhGPCTu5Iyny0ZlqSRic-51" style="vsdxID=57;edgeStyle=none;startArrow=none;endArrow=block;startSize=5;endSize=9;strokeColor=#000000;spacingTop=0;spacingBottom=0;spacingLeft=0;spacingRight=0;verticalAlign=middle;html=1;labelBackgroundColor=#ffffff;rounded=0;" parent="1" source="3d_Hws1QxchP5DV1Z6rh-1" target="DCNwNrw-yuZkW3MHIDjY-3" edge="1">
          <mxGeometry relative="1" as="geometry">
            <mxPoint as="offset" />
            <mxPoint x="-122.75" y="155" as="sourcePoint" />
            <mxPoint x="-42.75" y="155" as="targetPoint" />
          </mxGeometry>
        </mxCell>
        <mxCell id="DCNwNrw-yuZkW3MHIDjY-18" style="vsdxID=57;edgeStyle=none;startArrow=none;endArrow=block;startSize=5;endSize=9;strokeColor=#000000;spacingTop=0;spacingBottom=0;spacingLeft=0;spacingRight=0;verticalAlign=middle;html=1;labelBackgroundColor=#ffffff;rounded=0;exitX=0.525;exitY=0;exitDx=0;exitDy=0;exitPerimeter=0;entryX=0.5;entryY=1;entryDx=0;entryDy=0;entryPerimeter=0;" parent="1" source="DCNwNrw-yuZkW3MHIDjY-6" target="3d_Hws1QxchP5DV1Z6rh-3" edge="1">
          <mxGeometry relative="1" as="geometry">
            <mxPoint as="offset" />
            <mxPoint x="-197.75" y="86" as="sourcePoint" />
            <mxPoint x="-144.75" y="55" as="targetPoint" />
          </mxGeometry>
        </mxCell>
        <mxCell id="ZhGPCTu5Iyny0ZlqSRic-52" style="vsdxID=57;edgeStyle=none;startArrow=none;endArrow=block;startSize=5;endSize=9;strokeColor=#000000;spacingTop=0;spacingBottom=0;spacingLeft=0;spacingRight=0;verticalAlign=middle;html=1;labelBackgroundColor=#ffffff;rounded=0;" parent="1" source="DCNwNrw-yuZkW3MHIDjY-3" target="ZhGPCTu5Iyny0ZlqSRic-42" edge="1">
          <mxGeometry relative="1" as="geometry">
            <mxPoint as="offset" />
            <mxPoint x="-22.75" y="145" as="sourcePoint" />
            <mxPoint x="57.25" y="145" as="targetPoint" />
          </mxGeometry>
        </mxCell>
        <mxCell id="ZhGPCTu5Iyny0ZlqSRic-53" value="&lt;font style=&quot;font-size:11px;font-family:Calibri;color:#000000;direction:ltr;letter-spacing:0px;line-height:120%;opacity:1&quot;&gt;OCUPADO&lt;br&gt;&lt;/font&gt;" style="verticalAlign=middle;align=center;vsdxID=7;fillColor=#FFFFFF;gradientColor=none;shape=stencil(nZBLDoAgDERP0z3SIyjew0SURgSD+Lu9kMZoXLhwN9O+tukAlrNpJg1SzDH4QW/URgNYgZTkjA4UkwJUgGXng+6DX1zLfmoymdXo17xh5zmRJ6Q42BWCfc2oJfdAr+Yv+AP9Cb7OJ3H/2JG1HNGz/84klThPVCc=);strokeColor=#000000;spacingTop=-1;spacingBottom=-1;spacingLeft=-1;spacingRight=-1;labelBackgroundColor=none;rounded=0;html=1;whiteSpace=wrap;" parent="1" vertex="1">
          <mxGeometry x="-36.75" y="-46" width="82" height="30" as="geometry" />
        </mxCell>
        <mxCell id="ZhGPCTu5Iyny0ZlqSRic-54" value="&lt;font style=&quot;font-size: 11px ; font-family: &amp;quot;calibri&amp;quot; ; color: #000000 ; direction: ltr ; letter-spacing: 0px ; line-height: 120% ; opacity: 1&quot;&gt;ES&lt;br&gt;&lt;/font&gt;" style="verticalAlign=middle;align=center;vsdxID=2;fillColor=#FFFFFF;gradientColor=none;shape=stencil(tVLREoIgEPwaHnEQxsl3s/9gEpSJwDko7e+DsEkze2l627vdu5uFRaxyHe8FosR5sCcxqMZ3iO0Rpcp0ApQPCLEasUpaEC3Yi2lS3fOojOhsr3HDmObyMtsVcYqS29Qh5FEfklwrM5OXeUa/yjkcAwfr7TDpiyTfXvjkMR+Vw2A998qaBac5tAKHU1hq3i4oNwjRr9ofvayt/+Rk+yX/4iWA159KpXWKxJx/z0Bopfyw+g4=);strokeColor=#000000;spacingTop=-1;spacingBottom=-1;spacingLeft=-1;spacingRight=-1;labelBackgroundColor=none;rounded=0;html=1;whiteSpace=wrap;" parent="1" vertex="1">
          <mxGeometry x="-10" y="40" width="80" height="30" as="geometry" />
        </mxCell>
        <mxCell id="ZhGPCTu5Iyny0ZlqSRic-55" value="&lt;font style=&quot;font-size:11px;font-family:Calibri;color:#000000;direction:ltr;letter-spacing:0px;line-height:120%;opacity:1&quot;&gt;LIBRE&lt;br&gt;&lt;/font&gt;" style="verticalAlign=middle;align=center;vsdxID=7;fillColor=#FFFFFF;gradientColor=none;shape=stencil(nZBLDoAgDERP0z3SIyjew0SURgSD+Lu9kMZoXLhwN9O+tukAlrNpJg1SzDH4QW/URgNYgZTkjA4UkwJUgGXng+6DX1zLfmoymdXo17xh5zmRJ6Q42BWCfc2oJfdAr+Yv+AP9Cb7OJ3H/2JG1HNGz/84klThPVCc=);strokeColor=#000000;spacingTop=-1;spacingBottom=-1;spacingLeft=-1;spacingRight=-1;labelBackgroundColor=none;rounded=0;html=1;whiteSpace=wrap;" parent="1" vertex="1">
          <mxGeometry x="77.5" y="5" width="82" height="30" as="geometry" />
        </mxCell>
        <mxCell id="ZhGPCTu5Iyny0ZlqSRic-56" style="vsdxID=57;edgeStyle=none;startArrow=none;endArrow=block;startSize=5;endSize=9;strokeColor=#000000;spacingTop=0;spacingBottom=0;spacingLeft=0;spacingRight=0;verticalAlign=middle;html=1;labelBackgroundColor=#ffffff;rounded=0;" parent="1" source="ZhGPCTu5Iyny0ZlqSRic-54" target="ZhGPCTu5Iyny0ZlqSRic-53" edge="1">
          <mxGeometry relative="1" as="geometry">
            <mxPoint as="offset" />
            <mxPoint x="245.25" y="95" as="sourcePoint" />
            <mxPoint x="305.25" y="80" as="targetPoint" />
          </mxGeometry>
        </mxCell>
        <mxCell id="ZhGPCTu5Iyny0ZlqSRic-57" style="vsdxID=57;edgeStyle=none;startArrow=none;endArrow=block;startSize=5;endSize=9;strokeColor=#000000;spacingTop=0;spacingBottom=0;spacingLeft=0;spacingRight=0;verticalAlign=middle;html=1;labelBackgroundColor=#ffffff;rounded=0;" parent="1" source="ZhGPCTu5Iyny0ZlqSRic-54" target="ZhGPCTu5Iyny0ZlqSRic-55" edge="1">
          <mxGeometry relative="1" as="geometry">
            <mxPoint as="offset" />
            <mxPoint x="205.25" y="110" as="sourcePoint" />
            <mxPoint x="205.25" y="190" as="targetPoint" />
          </mxGeometry>
        </mxCell>
        <mxCell id="ZhGPCTu5Iyny0ZlqSRic-58" style="vsdxID=57;edgeStyle=none;startArrow=none;endArrow=block;startSize=5;endSize=9;strokeColor=#000000;spacingTop=0;spacingBottom=0;spacingLeft=0;spacingRight=0;verticalAlign=middle;html=1;labelBackgroundColor=#ffffff;rounded=0;" parent="1" source="ZhGPCTu5Iyny0ZlqSRic-42" target="ZhGPCTu5Iyny0ZlqSRic-54" edge="1">
          <mxGeometry relative="1" as="geometry">
            <mxPoint as="offset" />
            <mxPoint x="117.25" y="115" as="sourcePoint" />
            <mxPoint x="197.25" y="115" as="targetPoint" />
          </mxGeometry>
        </mxCell>
        <mxCell id="ZhGPCTu5Iyny0ZlqSRic-63" value="&lt;font style=&quot;font-size: 11px ; font-family: &amp;quot;calibri&amp;quot; ; color: #000000 ; direction: ltr ; letter-spacing: 0px ; line-height: 120% ; opacity: 1&quot;&gt;MUEVE&lt;br&gt;&lt;/font&gt;" style="verticalAlign=middle;align=center;vsdxID=1;fillColor=#FFFFFF;gradientColor=none;shape=stencil(tVLREoIgEPwaHnEQxsl3s/9gEpSJwDko7e+DsEkze2l627vdu5uFRaxyHe8FosR5sCcxqMZ3iO0Rpcp0ApQPCLEasUpaEC3Yi2lS3fOojOhsr3HDmObyMtsVcYqS29Qh5FEfklwrM5OXeUa/yjkcAwfr7TDpiyTfXvjkMR+Vw2A998qaBac5tAKHU1hq3i4oNwjRr9ofvayt/+Rk+yX/4iWA159KpXWKxJx/z0Bopfyw+g4=);dashed=1;strokeColor=#000000;strokeWidth=3;spacingTop=-1;spacingBottom=-1;spacingLeft=-1;spacingRight=-1;labelBackgroundColor=none;rounded=0;html=1;whiteSpace=wrap;" parent="1" vertex="1">
          <mxGeometry x="-400.75" y="-580" width="80" height="30" as="geometry" />
        </mxCell>
        <mxCell id="ZhGPCTu5Iyny0ZlqSRic-64" style="vsdxID=57;edgeStyle=none;startArrow=none;endArrow=block;startSize=5;endSize=9;strokeColor=#000000;spacingTop=0;spacingBottom=0;spacingLeft=0;spacingRight=0;verticalAlign=middle;html=1;labelBackgroundColor=#ffffff;rounded=0;" parent="1" source="ZhGPCTu5Iyny0ZlqSRic-4" target="ZhGPCTu5Iyny0ZlqSRic-63" edge="1">
          <mxGeometry relative="1" as="geometry">
            <mxPoint as="offset" />
            <mxPoint x="-267" y="-260" as="sourcePoint" />
            <mxPoint x="-267" y="-180" as="targetPoint" />
          </mxGeometry>
        </mxCell>
        <mxCell id="ZhGPCTu5Iyny0ZlqSRic-65" style="vsdxID=57;edgeStyle=none;startArrow=none;endArrow=block;startSize=5;endSize=9;strokeColor=#000000;spacingTop=0;spacingBottom=0;spacingLeft=0;spacingRight=0;verticalAlign=middle;html=1;labelBackgroundColor=#ffffff;rounded=0;entryX=0.919;entryY=0.042;entryDx=0;entryDy=0;entryPerimeter=0;" parent="1" source="ZhGPCTu5Iyny0ZlqSRic-63" target="ZhGPCTu5Iyny0ZlqSRic-7" edge="1">
          <mxGeometry relative="1" as="geometry">
            <mxPoint as="offset" />
            <mxPoint x="-210" y="-189" as="sourcePoint" />
            <mxPoint x="-210" y="-109" as="targetPoint" />
          </mxGeometry>
        </mxCell>
        <mxCell id="ZhGPCTu5Iyny0ZlqSRic-70" value="&lt;font style=&quot;font-size:11px;font-family:Calibri;color:#000000;direction:ltr;letter-spacing:0px;line-height:120%;opacity:1&quot;&gt;APUESTA&lt;br&gt;&lt;/font&gt;" style="verticalAlign=middle;align=center;vsdxID=7;fillColor=#FFFFFF;gradientColor=none;shape=stencil(nZBLDoAgDERP0z3SIyjew0SURgSD+Lu9kMZoXLhwN9O+tukAlrNpJg1SzDH4QW/URgNYgZTkjA4UkwJUgGXng+6DX1zLfmoymdXo17xh5zmRJ6Q42BWCfc2oJfdAr+Yv+AP9Cb7OJ3H/2JG1HNGz/84klThPVCc=);strokeColor=#000000;spacingTop=-1;spacingBottom=-1;spacingLeft=-1;spacingRight=-1;labelBackgroundColor=none;rounded=0;html=1;whiteSpace=wrap;" parent="1" vertex="1">
          <mxGeometry x="-739" y="-475" width="82" height="30" as="geometry" />
        </mxCell>
        <mxCell id="ZhGPCTu5Iyny0ZlqSRic-71" style="vsdxID=57;edgeStyle=none;startArrow=none;endArrow=block;startSize=5;endSize=9;strokeColor=#000000;spacingTop=0;spacingBottom=0;spacingLeft=0;spacingRight=0;verticalAlign=middle;html=1;labelBackgroundColor=#ffffff;rounded=0;" parent="1" source="ZhGPCTu5Iyny0ZlqSRic-6" target="ZhGPCTu5Iyny0ZlqSRic-70" edge="1">
          <mxGeometry relative="1" as="geometry">
            <mxPoint as="offset" />
            <mxPoint x="-468" y="-175" as="sourcePoint" />
            <mxPoint x="-468" y="-175" as="targetPoint" />
          </mxGeometry>
        </mxCell>
        <mxCell id="3d_Hws1QxchP5DV1Z6rh-21" value="2" style="vsdxID=51;fillColor=#FFFFFF;gradientColor=none;shape=stencil(vVHLDsIgEPwajiQI6RfU+h8bu22JCGRB2/69kG1iazx58DazM/vIjjBtmiCi0CplCjecbZ8nYc5Ca+snJJsLEqYTph0C4Ujh4XvmEaqzont41gkL96naodXKrGF6YSfQtUi0OXXDVlqPfJNP6usotUhYbJIUMmQb/GGrAxpRljVycDBuc1hKM2LclX8/7H9nFfB+82Cd45T2+mcspcSRmu4F);labelBackgroundColor=none;rounded=0;html=1;whiteSpace=wrap;fontSize=13;" parent="1" vertex="1">
          <mxGeometry x="-43" y="-300" width="40" height="40" as="geometry" />
        </mxCell>
        <mxCell id="ZhGPCTu5Iyny0ZlqSRic-72" value="&lt;font style=&quot;font-size:11px;font-family:Calibri;color:#000000;direction:ltr;letter-spacing:0px;line-height:120%;opacity:1&quot;&gt;PUNTOS&lt;br&gt;&lt;/font&gt;" style="verticalAlign=middle;align=center;vsdxID=7;fillColor=#FFFFFF;gradientColor=none;shape=stencil(nZBLDoAgDERP0z3SIyjew0SURgSD+Lu9kMZoXLhwN9O+tukAlrNpJg1SzDH4QW/URgNYgZTkjA4UkwJUgGXng+6DX1zLfmoymdXo17xh5zmRJ6Q42BWCfc2oJfdAr+Yv+AP9Cb7OJ3H/2JG1HNGz/84klThPVCc=);strokeColor=#000000;spacingTop=-1;spacingBottom=-1;spacingLeft=-1;spacingRight=-1;labelBackgroundColor=none;rounded=0;html=1;whiteSpace=wrap;" parent="1" vertex="1">
          <mxGeometry x="-796.5" y="-535" width="82" height="30" as="geometry" />
        </mxCell>
        <mxCell id="ZhGPCTu5Iyny0ZlqSRic-74" style="vsdxID=57;edgeStyle=none;startArrow=none;endArrow=block;startSize=5;endSize=9;strokeColor=#000000;spacingTop=0;spacingBottom=0;spacingLeft=0;spacingRight=0;verticalAlign=middle;html=1;labelBackgroundColor=#ffffff;rounded=0;" parent="1" source="ZhGPCTu5Iyny0ZlqSRic-70" target="ZhGPCTu5Iyny0ZlqSRic-78" edge="1">
          <mxGeometry relative="1" as="geometry">
            <mxPoint as="offset" />
            <mxPoint x="-580" y="-105" as="sourcePoint" />
            <mxPoint x="-560" y="-140" as="targetPoint" />
          </mxGeometry>
        </mxCell>
        <mxCell id="ZhGPCTu5Iyny0ZlqSRic-75" value="&lt;font style=&quot;font-size:11px;font-family:Calibri;color:#000000;direction:ltr;letter-spacing:0px;line-height:120%;opacity:1&quot;&gt;PUESTO&lt;br&gt;&lt;/font&gt;" style="verticalAlign=middle;align=center;vsdxID=7;fillColor=#FFFFFF;gradientColor=none;shape=stencil(nZBLDoAgDERP0z3SIyjew0SURgSD+Lu9kMZoXLhwN9O+tukAlrNpJg1SzDH4QW/URgNYgZTkjA4UkwJUgGXng+6DX1zLfmoymdXo17xh5zmRJ6Q42BWCfc2oJfdAr+Yv+AP9Cb7OJ3H/2JG1HNGz/84klThPVCc=);strokeColor=#000000;spacingTop=-1;spacingBottom=-1;spacingLeft=-1;spacingRight=-1;labelBackgroundColor=none;rounded=0;html=1;whiteSpace=wrap;" parent="1" vertex="1">
          <mxGeometry x="-841.5" y="-584" width="82" height="30" as="geometry" />
        </mxCell>
        <mxCell id="ZhGPCTu5Iyny0ZlqSRic-77" style="vsdxID=57;edgeStyle=none;startArrow=none;endArrow=block;startSize=5;endSize=9;strokeColor=#000000;spacingTop=0;spacingBottom=0;spacingLeft=0;spacingRight=0;verticalAlign=middle;html=1;labelBackgroundColor=#ffffff;rounded=0;" parent="1" source="ZhGPCTu5Iyny0ZlqSRic-6" target="ZhGPCTu5Iyny0ZlqSRic-75" edge="1">
          <mxGeometry relative="1" as="geometry">
            <mxPoint as="offset" />
            <mxPoint x="-468" y="-175" as="sourcePoint" />
            <mxPoint x="-468" y="-175" as="targetPoint" />
          </mxGeometry>
        </mxCell>
        <mxCell id="ZhGPCTu5Iyny0ZlqSRic-78" value="&lt;font style=&quot;font-size: 11px ; font-family: &amp;quot;calibri&amp;quot; ; color: #000000 ; direction: ltr ; letter-spacing: 0px ; line-height: 120% ; opacity: 1&quot;&gt;NECESITA&lt;br&gt;&lt;/font&gt;" style="verticalAlign=middle;align=center;vsdxID=1;fillColor=#FFFFFF;gradientColor=none;shape=stencil(tVLREoIgEPwaHnEQxsl3s/9gEpSJwDko7e+DsEkze2l627vdu5uFRaxyHe8FosR5sCcxqMZ3iO0Rpcp0ApQPCLEasUpaEC3Yi2lS3fOojOhsr3HDmObyMtsVcYqS29Qh5FEfklwrM5OXeUa/yjkcAwfr7TDpiyTfXvjkMR+Vw2A998qaBac5tAKHU1hq3i4oNwjRr9ofvayt/+Rk+yX/4iWA159KpXWKxJx/z0Bopfyw+g4=);dashed=1;strokeColor=#000000;strokeWidth=3;spacingTop=-1;spacingBottom=-1;spacingLeft=-1;spacingRight=-1;labelBackgroundColor=none;rounded=0;html=1;whiteSpace=wrap;" parent="1" vertex="1">
          <mxGeometry x="-845.5" y="-450" width="80" height="30" as="geometry" />
        </mxCell>
        <mxCell id="ZhGPCTu5Iyny0ZlqSRic-79" style="vsdxID=57;edgeStyle=none;startArrow=none;endArrow=block;startSize=5;endSize=9;strokeColor=#000000;spacingTop=0;spacingBottom=0;spacingLeft=0;spacingRight=0;verticalAlign=middle;html=1;labelBackgroundColor=#ffffff;rounded=0;" parent="1" source="ZhGPCTu5Iyny0ZlqSRic-78" target="ZhGPCTu5Iyny0ZlqSRic-72" edge="1">
          <mxGeometry relative="1" as="geometry">
            <mxPoint as="offset" />
            <mxPoint x="-590" y="-240" as="sourcePoint" />
            <mxPoint x="-590" y="-240" as="targetPoint" />
          </mxGeometry>
        </mxCell>
        <mxCell id="ZhGPCTu5Iyny0ZlqSRic-81" style="vsdxID=57;edgeStyle=none;startArrow=none;endArrow=block;startSize=5;endSize=9;strokeColor=#000000;spacingTop=0;spacingBottom=0;spacingLeft=0;spacingRight=0;verticalAlign=middle;html=1;labelBackgroundColor=#ffffff;rounded=0;" parent="1" source="ZhGPCTu5Iyny0ZlqSRic-6" target="ZhGPCTu5Iyny0ZlqSRic-72" edge="1">
          <mxGeometry relative="1" as="geometry">
            <mxPoint as="offset" />
            <mxPoint x="-468" y="-175" as="sourcePoint" />
            <mxPoint x="-468" y="-175" as="targetPoint" />
          </mxGeometry>
        </mxCell>
        <mxCell id="ZhGPCTu5Iyny0ZlqSRic-86" value="&lt;font style=&quot;font-size: 11px ; font-family: &amp;quot;calibri&amp;quot; ; color: #000000 ; direction: ltr ; letter-spacing: 0px ; line-height: 120% ; opacity: 1&quot;&gt;DETERMINA&lt;br&gt;&lt;/font&gt;" style="verticalAlign=middle;align=center;vsdxID=1;fillColor=#FFFFFF;gradientColor=none;shape=stencil(tVLREoIgEPwaHnEQxsl3s/9gEpSJwDko7e+DsEkze2l627vdu5uFRaxyHe8FosR5sCcxqMZ3iO0Rpcp0ApQPCLEasUpaEC3Yi2lS3fOojOhsr3HDmObyMtsVcYqS29Qh5FEfklwrM5OXeUa/yjkcAwfr7TDpiyTfXvjkMR+Vw2A998qaBac5tAKHU1hq3i4oNwjRr9ofvayt/+Rk+yX/4iWA159KpXWKxJx/z0Bopfyw+g4=);dashed=1;strokeColor=#000000;strokeWidth=3;spacingTop=-1;spacingBottom=-1;spacingLeft=-1;spacingRight=-1;labelBackgroundColor=none;rounded=0;html=1;whiteSpace=wrap;" parent="1" vertex="1">
          <mxGeometry x="-233" y="-210" width="80" height="30" as="geometry" />
        </mxCell>
        <mxCell id="ZhGPCTu5Iyny0ZlqSRic-87" style="vsdxID=57;edgeStyle=none;startArrow=none;endArrow=block;startSize=5;endSize=9;strokeColor=#000000;spacingTop=0;spacingBottom=0;spacingLeft=0;spacingRight=0;verticalAlign=middle;html=1;labelBackgroundColor=#ffffff;rounded=0;" parent="1" source="ZhGPCTu5Iyny0ZlqSRic-19" target="ZhGPCTu5Iyny0ZlqSRic-86" edge="1">
          <mxGeometry relative="1" as="geometry">
            <mxPoint as="offset" />
            <mxPoint x="-71" y="2.5" as="sourcePoint" />
            <mxPoint x="-71" y="2.5" as="targetPoint" />
          </mxGeometry>
        </mxCell>
        <mxCell id="ZhGPCTu5Iyny0ZlqSRic-89" style="vsdxID=57;edgeStyle=none;startArrow=none;endArrow=block;startSize=5;endSize=9;strokeColor=#000000;spacingTop=0;spacingBottom=0;spacingLeft=0;spacingRight=0;verticalAlign=middle;html=1;labelBackgroundColor=#ffffff;rounded=0;" parent="1" source="3d_Hws1QxchP5DV1Z6rh-21" target="ZhGPCTu5Iyny0ZlqSRic-19" edge="1">
          <mxGeometry relative="1" as="geometry">
            <mxPoint as="offset" />
            <mxPoint x="-22" y="57.5" as="sourcePoint" />
            <mxPoint x="58" y="57.5" as="targetPoint" />
          </mxGeometry>
        </mxCell>
        <mxCell id="ZhGPCTu5Iyny0ZlqSRic-90" style="vsdxID=57;edgeStyle=none;startArrow=none;endArrow=block;startSize=5;endSize=9;strokeColor=#000000;spacingTop=0;spacingBottom=0;spacingLeft=0;spacingRight=0;verticalAlign=middle;html=1;labelBackgroundColor=#ffffff;rounded=0;" parent="1" source="ZhGPCTu5Iyny0ZlqSRic-86" target="ZhGPCTu5Iyny0ZlqSRic-16" edge="1">
          <mxGeometry relative="1" as="geometry">
            <mxPoint as="offset" />
            <mxPoint x="-100" y="-80" as="sourcePoint" />
            <mxPoint x="-100" y="-80" as="targetPoint" />
          </mxGeometry>
        </mxCell>
        <mxCell id="ZhGPCTu5Iyny0ZlqSRic-93" value="&lt;font style=&quot;font-size:11px;font-family:Calibri;color:#000000;direction:ltr;letter-spacing:0px;line-height:120%;opacity:1&quot;&gt;ENCARCELADO&lt;br&gt;&lt;/font&gt;" style="verticalAlign=middle;align=center;vsdxID=7;fillColor=#FFFFFF;gradientColor=none;shape=stencil(nZBLDoAgDERP0z3SIyjew0SURgSD+Lu9kMZoXLhwN9O+tukAlrNpJg1SzDH4QW/URgNYgZTkjA4UkwJUgGXng+6DX1zLfmoymdXo17xh5zmRJ6Q42BWCfc2oJfdAr+Yv+AP9Cb7OJ3H/2JG1HNGz/84klThPVCc=);strokeColor=#000000;spacingTop=-1;spacingBottom=-1;spacingLeft=-1;spacingRight=-1;labelBackgroundColor=none;rounded=0;html=1;whiteSpace=wrap;" parent="1" vertex="1">
          <mxGeometry x="-645" y="-160" width="82" height="30" as="geometry" />
        </mxCell>
        <mxCell id="ZhGPCTu5Iyny0ZlqSRic-94" style="vsdxID=57;edgeStyle=none;startArrow=none;endArrow=block;startSize=5;endSize=9;strokeColor=#000000;spacingTop=0;spacingBottom=0;spacingLeft=0;spacingRight=0;verticalAlign=middle;html=1;labelBackgroundColor=#ffffff;rounded=0;" parent="1" source="ZhGPCTu5Iyny0ZlqSRic-104" target="ZhGPCTu5Iyny0ZlqSRic-96" edge="1">
          <mxGeometry relative="1" as="geometry">
            <mxPoint as="offset" />
            <mxPoint x="-430" y="-20" as="sourcePoint" />
            <mxPoint x="-410" y="-83.33333333333326" as="targetPoint" />
          </mxGeometry>
        </mxCell>
        <mxCell id="ZhGPCTu5Iyny0ZlqSRic-96" value="&lt;font style=&quot;font-size:11px;font-family:Calibri;color:#000000;direction:ltr;letter-spacing:0px;line-height:120%;opacity:1&quot;&gt;CORONADO&lt;br&gt;&lt;/font&gt;" style="verticalAlign=middle;align=center;vsdxID=7;fillColor=#FFFFFF;gradientColor=none;shape=stencil(nZBLDoAgDERP0z3SIyjew0SURgSD+Lu9kMZoXLhwN9O+tukAlrNpJg1SzDH4QW/URgNYgZTkjA4UkwJUgGXng+6DX1zLfmoymdXo17xh5zmRJ6Q42BWCfc2oJfdAr+Yv+AP9Cb7OJ3H/2JG1HNGz/84klThPVCc=);strokeColor=#000000;spacingTop=-1;spacingBottom=-1;spacingLeft=-1;spacingRight=-1;labelBackgroundColor=none;rounded=0;html=1;whiteSpace=wrap;" parent="1" vertex="1">
          <mxGeometry x="-647" y="-270" width="82" height="30" as="geometry" />
        </mxCell>
        <mxCell id="ZhGPCTu5Iyny0ZlqSRic-103" style="vsdxID=57;edgeStyle=none;startArrow=none;endArrow=block;startSize=5;endSize=9;strokeColor=#000000;spacingTop=0;spacingBottom=0;spacingLeft=0;spacingRight=0;verticalAlign=middle;html=1;labelBackgroundColor=#ffffff;rounded=0;" parent="1" source="ZhGPCTu5Iyny0ZlqSRic-104" target="ZhGPCTu5Iyny0ZlqSRic-93" edge="1">
          <mxGeometry relative="1" as="geometry">
            <mxPoint as="offset" />
            <mxPoint x="-400" y="-120" as="sourcePoint" />
            <mxPoint x="-400" y="-120" as="targetPoint" />
          </mxGeometry>
        </mxCell>
        <mxCell id="ZhGPCTu5Iyny0ZlqSRic-104" value="&lt;font style=&quot;font-size: 11px ; font-family: &amp;quot;calibri&amp;quot; ; color: #000000 ; direction: ltr ; letter-spacing: 0px ; line-height: 120% ; opacity: 1&quot;&gt;ES&lt;br&gt;&lt;/font&gt;" style="verticalAlign=middle;align=center;vsdxID=2;fillColor=#FFFFFF;gradientColor=none;shape=stencil(tVLREoIgEPwaHnEQxsl3s/9gEpSJwDko7e+DsEkze2l627vdu5uFRaxyHe8FosR5sCcxqMZ3iO0Rpcp0ApQPCLEasUpaEC3Yi2lS3fOojOhsr3HDmObyMtsVcYqS29Qh5FEfklwrM5OXeUa/yjkcAwfr7TDpiyTfXvjkMR+Vw2A998qaBac5tAKHU1hq3i4oNwjRr9ofvayt/+Rk+yX/4iWA159KpXWKxJx/z0Bopfyw+g4=);strokeColor=#000000;spacingTop=-1;spacingBottom=-1;spacingLeft=-1;spacingRight=-1;labelBackgroundColor=none;rounded=0;html=1;whiteSpace=wrap;" parent="1" vertex="1">
          <mxGeometry x="-563" y="-220" width="80" height="30" as="geometry" />
        </mxCell>
        <mxCell id="ZhGPCTu5Iyny0ZlqSRic-106" style="vsdxID=57;edgeStyle=none;startArrow=none;endArrow=block;startSize=5;endSize=9;strokeColor=#000000;spacingTop=0;spacingBottom=0;spacingLeft=0;spacingRight=0;verticalAlign=middle;html=1;labelBackgroundColor=#ffffff;rounded=0;" parent="1" source="ZhGPCTu5Iyny0ZlqSRic-16" target="ZhGPCTu5Iyny0ZlqSRic-104" edge="1">
          <mxGeometry relative="1" as="geometry">
            <mxPoint as="offset" />
            <mxPoint x="-250" y="-60" as="sourcePoint" />
            <mxPoint x="-250" y="-60" as="targetPoint" />
          </mxGeometry>
        </mxCell>
        <mxCell id="ZhGPCTu5Iyny0ZlqSRic-110" style="vsdxID=4394;fillColor=#000000;gradientColor=none;shape=stencil(nZBLDoAgDERP0z3SIyjew0SURgSD+Lu9kMZoXLhwN9O+tukAlrNpJg1SzDH4QW/URgNYgZTkjA4UkwJUgGXng+6DX1zLfmoymdXo17xh5zmRJ6Q42BWCfc2oJfdAr+Yv+AP9Cb7OJ3H/2JG1HNGz/84klThPVCc=);strokeColor=#000000;labelBackgroundColor=none;rounded=0;html=1;whiteSpace=wrap;" parent="1" vertex="1">
          <mxGeometry x="-739" y="-90" width="80" height="12" as="geometry" />
        </mxCell>
        <mxCell id="ZhGPCTu5Iyny0ZlqSRic-111" style="vsdxID=20;fillColor=#FFFFFF;gradientColor=none;shape=stencil(UzV2Ls5ILEhVNTIoLinKz04tz0wpyVA1dlE1MsrMy0gtyiwBslSNXVWNndPyi1LTi/JL81Ig/IJEkEoQKze/DGRCBUSfAUiHkUElhGcK4bpBVOZk5iGpNEVVikeloQHZpsK0YlWLz1QgA+HFtMycHEgIIcujBwlQCBKcxq4A);strokeColor=#000000;spacingTop=-1;spacingBottom=-1;spacingLeft=-1;spacingRight=-1;labelBackgroundColor=none;rounded=0;html=1;whiteSpace=wrap;" parent="1" vertex="1">
          <mxGeometry x="-1035.5" y="-90" width="190" height="140" as="geometry" />
        </mxCell>
        <mxCell id="ZhGPCTu5Iyny0ZlqSRic-112" value="&lt;font style=&quot;font-size:11px;font-family:Calibri;color:#000000;direction:ltr;letter-spacing:0px;line-height:120%;opacity:1&quot;&gt;&lt;br/&gt;&lt;/font&gt;" style="text;vsdxID=20;fillColor=none;gradientColor=none;strokeColor=none;spacingTop=-1;spacingBottom=-1;spacingLeft=-1;spacingRight=-1;labelBackgroundColor=none;rounded=0;html=1;whiteSpace=wrap;verticalAlign=middle;align=center;;html=1;" parent="ZhGPCTu5Iyny0ZlqSRic-111" vertex="1">
          <mxGeometry x="14.851171874999997" y="15.86" width="148.444921875" height="106.39999999999999" as="geometry" />
        </mxCell>
        <mxCell id="ZhGPCTu5Iyny0ZlqSRic-159" value="=" style="vsdxID=52;fillColor=#FFFFFF;gradientColor=none;shape=stencil(vVHLDsIgEPwajiQI6RfU+h8bu22JCGRB2/69kG1iazx58DazM/vIjjBtmiCi0CplCjecbZ8nYc5Ca+snJJsLEqYTph0C4Ujh4XvmEaqzont41gkL96naodXKrGF6YSfQtUi0OXXDVlqPfJNP6usotUhYbJIUMmQb/GGrAxpRljVycDBuc1hKM2LclX8/7H9nFfB+82Cd45T2+mcspcSRmu4F);dashed=1;dashPattern=4.00 2.00;labelBackgroundColor=none;rounded=0;html=1;whiteSpace=wrap;" parent="ZhGPCTu5Iyny0ZlqSRic-111" vertex="1">
          <mxGeometry x="86.85714285714288" y="15.866666666666669" width="20.628571428571426" height="16.333333333333332" as="geometry" />
        </mxCell>
        <mxCell id="ZhGPCTu5Iyny0ZlqSRic-161" value="&lt;font style=&quot;font-size:11px;font-family:Calibri;color:#000000;direction:ltr;letter-spacing:0px;line-height:120%;opacity:1&quot;&gt;SIMPLE&lt;br&gt;&lt;/font&gt;" style="verticalAlign=middle;align=center;vsdxID=7;fillColor=#FFFFFF;gradientColor=none;shape=stencil(nZBLDoAgDERP0z3SIyjew0SURgSD+Lu9kMZoXLhwN9O+tukAlrNpJg1SzDH4QW/URgNYgZTkjA4UkwJUgGXng+6DX1zLfmoymdXo17xh5zmRJ6Q42BWCfc2oJfdAr+Yv+AP9Cb7OJ3H/2JG1HNGz/84klThPVCc=);strokeColor=#000000;spacingTop=-1;spacingBottom=-1;spacingLeft=-1;spacingRight=-1;labelBackgroundColor=none;rounded=0;html=1;whiteSpace=wrap;" parent="ZhGPCTu5Iyny0ZlqSRic-111" vertex="1">
          <mxGeometry x="118.88571428571427" y="62.06666666666668" width="44.51428571428572" height="14.000000000000002" as="geometry" />
        </mxCell>
        <mxCell id="ZhGPCTu5Iyny0ZlqSRic-162" style="vsdxID=62;edgeStyle=none;startArrow=none;endArrow=none;startSize=5;endSize=9;strokeColor=#000000;spacingTop=0;spacingBottom=0;spacingLeft=0;spacingRight=0;verticalAlign=middle;html=1;labelBackgroundColor=#ffffff;rounded=0;" parent="ZhGPCTu5Iyny0ZlqSRic-111" source="a82_juw0TD2ykU31_FT8-55" target="ZhGPCTu5Iyny0ZlqSRic-159" edge="1">
          <mxGeometry relative="1" as="geometry">
            <mxPoint as="offset" />
            <mxPoint x="52.07295141406853" y="63.00000000000011" as="sourcePoint" />
            <mxPoint x="43.97142857142857" y="25.666666666666668" as="targetPoint" />
          </mxGeometry>
        </mxCell>
        <mxCell id="ZhGPCTu5Iyny0ZlqSRic-163" style="vsdxID=62;edgeStyle=none;startArrow=none;endArrow=none;startSize=5;endSize=9;strokeColor=#000000;spacingTop=0;spacingBottom=0;spacingLeft=0;spacingRight=0;verticalAlign=middle;html=1;labelBackgroundColor=#ffffff;rounded=0;" parent="ZhGPCTu5Iyny0ZlqSRic-111" source="ZhGPCTu5Iyny0ZlqSRic-161" target="ZhGPCTu5Iyny0ZlqSRic-159" edge="1">
          <mxGeometry relative="1" as="geometry">
            <mxPoint as="offset" />
            <mxPoint x="743.7142857142857" y="15.400000000000002" as="sourcePoint" />
            <mxPoint x="141.1428571428571" y="24.733333333333334" as="targetPoint" />
          </mxGeometry>
        </mxCell>
        <mxCell id="a82_juw0TD2ykU31_FT8-54" style="vsdxID=14;fillColor=none;gradientColor=none;labelBackgroundColor=none;rounded=0;strokeColor=none;html=1;whiteSpace=wrap;" parent="ZhGPCTu5Iyny0ZlqSRic-111" vertex="1">
          <mxGeometry x="19.9919588037235" y="51.697031457687174" width="87.49257278669043" height="34.736375719982284" as="geometry" />
        </mxCell>
        <mxCell id="a82_juw0TD2ykU31_FT8-55" value="&lt;p style=&quot;align:left;margin-left:0;margin-right:0;margin-top:0px;margin-bottom:0px;text-indent:0;valign:top;direction:ltr;&quot;&gt;&lt;font style=&quot;font-size:11px;font-family:Calibri;color:#000000;direction:ltr;letter-spacing:0px;line-height:120%;opacity:1&quot;&gt;CASILLA&lt;span style=&quot;white-space: pre;&quot;&gt; &lt;/span&gt;&lt;/font&gt;&lt;/p&gt;" style="verticalAlign=top;align=left;vsdxID=15;fillColor=#FFFFFF;gradientColor=none;shape=stencil(nZBLDoAgDERP0z3SIyjew0SURgSD+Lu9kMZoXLhwN9O+tukAlrNpJg1SzDH4QW/URgNYgZTkjA4UkwJUgGXng+6DX1zLfmoymdXo17xh5zmRJ6Q42BWCfc2oJfdAr+Yv+AP9Cb7OJ3H/2JG1HNGz/84klThPVCc=);strokeColor=#000000;spacingTop=-1;spacingBottom=-1;spacingLeft=-1;spacingRight=-1;labelBackgroundColor=none;rounded=0;html=1;whiteSpace=wrap;" parent="a82_juw0TD2ykU31_FT8-54" vertex="1">
          <mxGeometry width="87.49257278669043" height="34.736375719982284" as="geometry" />
        </mxCell>
        <mxCell id="a82_juw0TD2ykU31_FT8-56" value="&lt;font style=&quot;font-size:11px;font-family:Calibri;color:#000000;direction:ltr;letter-spacing:0px;line-height:120%;opacity:1&quot;&gt;TIPO&lt;br&gt;&lt;/font&gt;" style="verticalAlign=middle;align=center;vsdxID=16;fillColor=#FFFFFF;gradientColor=none;shape=stencil(nZBLDoAgDERP0z3SIyjew0SURgSD+Lu9kMZoXLhwN9O+tukAlrNpJg1SzDH4QW/URgNYgZTkjA4UkwJUgGXng+6DX1zLfmoymdXo17xh5zmRJ6Q42BWCfc2oJfdAr+Yv+AP9Cb7OJ3H/2JG1HNGz/84klThPVCc=);strokeColor=#000000;spacingTop=-1;spacingBottom=-1;spacingLeft=-1;spacingRight=-1;labelBackgroundColor=none;rounded=0;html=1;whiteSpace=wrap;" parent="a82_juw0TD2ykU31_FT8-54" vertex="1">
          <mxGeometry x="36.246923011628894" y="18.360655737704917" width="44.996180290297936" height="12.902082410279133" as="geometry" />
        </mxCell>
        <mxCell id="ZhGPCTu5Iyny0ZlqSRic-116" value="&lt;font style=&quot;font-size:11px;font-family:Calibri;color:#000000;direction:ltr;letter-spacing:0px;line-height:120%;opacity:1&quot;&gt;TURNO&lt;br&gt;&lt;/font&gt;" style="verticalAlign=middle;align=center;vsdxID=7;fillColor=#FFFFFF;gradientColor=none;shape=stencil(nZBLDoAgDERP0z3SIyjew0SURgSD+Lu9kMZoXLhwN9O+tukAlrNpJg1SzDH4QW/URgNYgZTkjA4UkwJUgGXng+6DX1zLfmoymdXo17xh5zmRJ6Q42BWCfc2oJfdAr+Yv+AP9Cb7OJ3H/2JG1HNGz/84klThPVCc=);strokeColor=#000000;spacingTop=-1;spacingBottom=-1;spacingLeft=-1;spacingRight=-1;labelBackgroundColor=none;rounded=0;html=1;whiteSpace=wrap;" parent="1" vertex="1">
          <mxGeometry x="-198.75" y="-710" width="82" height="30" as="geometry" />
        </mxCell>
        <mxCell id="ZhGPCTu5Iyny0ZlqSRic-120" value="&lt;font style=&quot;font-size: 11px ; font-family: &amp;quot;calibri&amp;quot; ; color: #000000 ; direction: ltr ; letter-spacing: 0px ; line-height: 120% ; opacity: 1&quot;&gt;REPITE&lt;br&gt;&lt;/font&gt;" style="verticalAlign=middle;align=center;vsdxID=1;fillColor=#FFFFFF;gradientColor=none;shape=stencil(tVLREoIgEPwaHnEQxsl3s/9gEpSJwDko7e+DsEkze2l627vdu5uFRaxyHe8FosR5sCcxqMZ3iO0Rpcp0ApQPCLEasUpaEC3Yi2lS3fOojOhsr3HDmObyMtsVcYqS29Qh5FEfklwrM5OXeUa/yjkcAwfr7TDpiyTfXvjkMR+Vw2A998qaBac5tAKHU1hq3i4oNwjRr9ofvayt/+Rk+yX/4iWA159KpXWKxJx/z0Bopfyw+g4=);dashed=1;strokeColor=#000000;strokeWidth=3;spacingTop=-1;spacingBottom=-1;spacingLeft=-1;spacingRight=-1;labelBackgroundColor=none;rounded=0;html=1;whiteSpace=wrap;" parent="1" vertex="1">
          <mxGeometry x="-293" y="-670" width="80" height="30" as="geometry" />
        </mxCell>
        <mxCell id="ZhGPCTu5Iyny0ZlqSRic-122" value="SI" style="vsdxID=59;edgeStyle=none;startArrow=none;endArrow=open;startSize=5;endSize=2;strokeWidth=4;strokeColor=#CDCDCD;spacingTop=0;spacingBottom=0;spacingLeft=0;spacingRight=0;verticalAlign=middle;html=1;labelBackgroundColor=#ffffff;rounded=0;exitX=0.42;exitY=0.091;exitDx=0;exitDy=0;exitPerimeter=0;" parent="1" source="3d_Hws1QxchP5DV1Z6rh-35" target="ZhGPCTu5Iyny0ZlqSRic-110" edge="1">
          <mxGeometry relative="1" as="geometry">
            <mxPoint as="offset" />
            <Array as="points" />
            <mxPoint x="-593.44" y="115.25" as="sourcePoint" />
            <mxPoint x="-550" y="229.5" as="targetPoint" />
          </mxGeometry>
        </mxCell>
        <mxCell id="ZhGPCTu5Iyny0ZlqSRic-123" style="vsdxID=20;fillColor=#FFFFFF;gradientColor=none;shape=stencil(UzV2Ls5ILEhVNTIoLinKz04tz0wpyVA1dlE1MsrMy0gtyiwBslSNXVWNndPyi1LTi/JL81Ig/IJEkEoQKze/DGRCBUSfAUiHkUElhGcK4bpBVOZk5iGpNEVVikeloQHZpsK0YlWLz1QgA+HFtMycHEgIIcujBwlQCBKcxq4A);strokeColor=#000000;spacingTop=-1;spacingBottom=-1;spacingLeft=-1;spacingRight=-1;labelBackgroundColor=none;rounded=0;html=1;whiteSpace=wrap;" parent="1" vertex="1">
          <mxGeometry x="-52" y="-730" width="242" height="150" as="geometry" />
        </mxCell>
        <mxCell id="ZhGPCTu5Iyny0ZlqSRic-124" value="&lt;font style=&quot;font-size:11px;font-family:Calibri;color:#000000;direction:ltr;letter-spacing:0px;line-height:120%;opacity:1&quot;&gt;&lt;br/&gt;&lt;/font&gt;" style="text;vsdxID=20;fillColor=none;gradientColor=none;strokeColor=none;spacingTop=-1;spacingBottom=-1;spacingLeft=-1;spacingRight=-1;labelBackgroundColor=none;rounded=0;html=1;whiteSpace=wrap;verticalAlign=middle;align=center;;html=1;" parent="ZhGPCTu5Iyny0ZlqSRic-123" vertex="1">
          <mxGeometry x="20.17675" y="16.992857142857144" width="201.67675" height="113.99999999999999" as="geometry" />
        </mxCell>
        <mxCell id="ZhGPCTu5Iyny0ZlqSRic-129" value="=" style="vsdxID=52;fillColor=#FFFFFF;gradientColor=none;shape=stencil(vVHLDsIgEPwajiQI6RfU+h8bu22JCGRB2/69kG1iazx58DazM/vIjjBtmiCi0CplCjecbZ8nYc5Ca+snJJsLEqYTph0C4Ujh4XvmEaqzont41gkL96naodXKrGF6YSfQtUi0OXXDVlqPfJNP6usotUhYbJIUMmQb/GGrAxpRljVycDBuc1hKM2LclX8/7H9nFfB+82Cd45T2+mcspcSRmu4F);dashed=1;dashPattern=4.00 2.00;labelBackgroundColor=none;rounded=0;html=1;whiteSpace=wrap;" parent="ZhGPCTu5Iyny0ZlqSRic-123" vertex="1">
          <mxGeometry x="96.81493284936481" y="16.99358974358974" width="48.4" height="40.38461538461539" as="geometry" />
        </mxCell>
        <mxCell id="ZhGPCTu5Iyny0ZlqSRic-131" value="&lt;font style=&quot;font-size:11px;font-family:Calibri;color:#000000;direction:ltr;letter-spacing:0px;line-height:120%;opacity:1&quot;&gt;VALOR_1&lt;br&gt;&lt;/font&gt;" style="verticalAlign=middle;align=center;vsdxID=7;fillColor=#FFFFFF;gradientColor=none;shape=stencil(nZBLDoAgDERP0z3SIyjew0SURgSD+Lu9kMZoXLhwN9O+tukAlrNpJg1SzDH4QW/URgNYgZTkjA4UkwJUgGXng+6DX1zLfmoymdXo17xh5zmRJ6Q42BWCfc2oJfdAr+Yv+AP9Cb7OJ3H/2JG1HNGz/84klThPVCc=);strokeColor=#000000;spacingTop=-1;spacingBottom=-1;spacingLeft=-1;spacingRight=-1;labelBackgroundColor=none;rounded=0;html=1;whiteSpace=wrap;" parent="ZhGPCTu5Iyny0ZlqSRic-123" vertex="1">
          <mxGeometry x="41.724137931034484" y="66.66666666666667" width="68.42758620689655" height="25" as="geometry" />
        </mxCell>
        <mxCell id="ZhGPCTu5Iyny0ZlqSRic-132" value="&lt;font style=&quot;font-size:11px;font-family:Calibri;color:#000000;direction:ltr;letter-spacing:0px;line-height:120%;opacity:1&quot;&gt;VALOR_2&lt;br&gt;&lt;/font&gt;" style="verticalAlign=middle;align=center;vsdxID=7;fillColor=#FFFFFF;gradientColor=none;shape=stencil(nZBLDoAgDERP0z3SIyjew0SURgSD+Lu9kMZoXLhwN9O+tukAlrNpJg1SzDH4QW/URgNYgZTkjA4UkwJUgGXng+6DX1zLfmoymdXo17xh5zmRJ6Q42BWCfc2oJfdAr+Yv+AP9Cb7OJ3H/2JG1HNGz/84klThPVCc=);strokeColor=#000000;spacingTop=-1;spacingBottom=-1;spacingLeft=-1;spacingRight=-1;labelBackgroundColor=none;rounded=0;html=1;whiteSpace=wrap;" parent="ZhGPCTu5Iyny0ZlqSRic-123" vertex="1">
          <mxGeometry x="133.51724137931035" y="66.66666666666667" width="68.42758620689655" height="25" as="geometry" />
        </mxCell>
        <mxCell id="ZhGPCTu5Iyny0ZlqSRic-133" style="vsdxID=62;edgeStyle=none;startArrow=none;endArrow=none;startSize=5;endSize=9;strokeColor=#000000;spacingTop=0;spacingBottom=0;spacingLeft=0;spacingRight=0;verticalAlign=middle;html=1;labelBackgroundColor=#ffffff;rounded=0;" parent="ZhGPCTu5Iyny0ZlqSRic-123" source="ZhGPCTu5Iyny0ZlqSRic-129" target="ZhGPCTu5Iyny0ZlqSRic-132" edge="1">
          <mxGeometry relative="1" as="geometry">
            <mxPoint as="offset" />
            <mxPoint x="-22.399274047186907" y="568.2692307692308" as="sourcePoint" />
            <mxPoint x="219.6007259528131" y="43.26923076923077" as="targetPoint" />
          </mxGeometry>
        </mxCell>
        <mxCell id="ZhGPCTu5Iyny0ZlqSRic-134" style="vsdxID=62;edgeStyle=none;startArrow=none;endArrow=none;startSize=5;endSize=9;strokeColor=#000000;spacingTop=0;spacingBottom=0;spacingLeft=0;spacingRight=0;verticalAlign=middle;html=1;labelBackgroundColor=#ffffff;rounded=0;" parent="ZhGPCTu5Iyny0ZlqSRic-123" source="ZhGPCTu5Iyny0ZlqSRic-131" target="ZhGPCTu5Iyny0ZlqSRic-129" edge="1">
          <mxGeometry relative="1" as="geometry">
            <mxPoint as="offset" />
            <mxPoint x="-104.3103448275862" y="533.3333333333334" as="sourcePoint" />
            <mxPoint x="70.93103448275862" y="8.333333333333334" as="targetPoint" />
          </mxGeometry>
        </mxCell>
        <mxCell id="ZhGPCTu5Iyny0ZlqSRic-125" style="vsdxID=57;edgeStyle=none;startArrow=none;endArrow=block;startSize=5;endSize=9;strokeColor=#000000;spacingTop=0;spacingBottom=0;spacingLeft=0;spacingRight=0;verticalAlign=middle;html=1;labelBackgroundColor=#ffffff;rounded=0;" parent="1" source="ZhGPCTu5Iyny0ZlqSRic-4" target="ZhGPCTu5Iyny0ZlqSRic-120" edge="1">
          <mxGeometry relative="1" as="geometry">
            <mxPoint as="offset" />
            <mxPoint x="163" y="-420" as="sourcePoint" />
            <mxPoint x="163" y="-420" as="targetPoint" />
          </mxGeometry>
        </mxCell>
        <mxCell id="ZhGPCTu5Iyny0ZlqSRic-126" style="vsdxID=57;edgeStyle=none;startArrow=none;endArrow=block;startSize=5;endSize=9;strokeColor=#000000;spacingTop=0;spacingBottom=0;spacingLeft=0;spacingRight=0;verticalAlign=middle;html=1;labelBackgroundColor=#ffffff;rounded=0;" parent="1" source="ZhGPCTu5Iyny0ZlqSRic-120" target="ZhGPCTu5Iyny0ZlqSRic-116" edge="1">
          <mxGeometry relative="1" as="geometry">
            <mxPoint as="offset" />
            <mxPoint x="143" y="-560" as="sourcePoint" />
            <mxPoint x="143" y="-560" as="targetPoint" />
          </mxGeometry>
        </mxCell>
        <mxCell id="ZhGPCTu5Iyny0ZlqSRic-127" value="SI" style="vsdxID=59;edgeStyle=none;startArrow=none;endArrow=open;startSize=5;endSize=2;strokeWidth=4;strokeColor=#CDCDCD;spacingTop=0;spacingBottom=0;spacingLeft=0;spacingRight=0;verticalAlign=middle;html=1;labelBackgroundColor=#ffffff;rounded=0;exitX=0.084;exitY=0.581;exitDx=0;exitDy=0;exitPerimeter=0;" parent="1" source="ZhGPCTu5Iyny0ZlqSRic-123" target="ZhGPCTu5Iyny0ZlqSRic-120" edge="1">
          <mxGeometry relative="1" as="geometry">
            <mxPoint as="offset" />
            <mxPoint x="-68.16075000000001" y="49.32857142857142" as="sourcePoint" />
            <mxPoint x="271.83925" y="-560.6714285714286" as="targetPoint" />
          </mxGeometry>
        </mxCell>
        <mxCell id="ZhGPCTu5Iyny0ZlqSRic-135" style="vsdxID=57;edgeStyle=none;startArrow=none;endArrow=block;startSize=5;endSize=9;strokeColor=#000000;spacingTop=0;spacingBottom=0;spacingLeft=0;spacingRight=0;verticalAlign=middle;html=1;labelBackgroundColor=#ffffff;rounded=0;" parent="1" source="ZhGPCTu5Iyny0ZlqSRic-33" target="ZhGPCTu5Iyny0ZlqSRic-136" edge="1">
          <mxGeometry relative="1" as="geometry">
            <mxPoint as="offset" />
            <mxPoint x="28" y="-425" as="sourcePoint" />
            <mxPoint x="110" y="-450" as="targetPoint" />
          </mxGeometry>
        </mxCell>
        <mxCell id="ZhGPCTu5Iyny0ZlqSRic-136" value="&lt;font style=&quot;font-size:11px;font-family:Calibri;color:#000000;direction:ltr;letter-spacing:0px;line-height:120%;opacity:1&quot;&gt;TAMAÃO&lt;br&gt;&lt;/font&gt;" style="verticalAlign=middle;align=center;vsdxID=7;fillColor=#FFFFFF;gradientColor=none;shape=stencil(nZBLDoAgDERP0z3SIyjew0SURgSD+Lu9kMZoXLhwN9O+tukAlrNpJg1SzDH4QW/URgNYgZTkjA4UkwJUgGXng+6DX1zLfmoymdXo17xh5zmRJ6Q42BWCfc2oJfdAr+Yv+AP9Cb7OJ3H/2JG1HNGz/84klThPVCc=);strokeColor=#000000;spacingTop=-1;spacingBottom=-1;spacingLeft=-1;spacingRight=-1;labelBackgroundColor=none;rounded=0;html=1;whiteSpace=wrap;" parent="1" vertex="1">
          <mxGeometry x="122.49999999999955" y="-480" width="82" height="30" as="geometry" />
        </mxCell>
        <mxCell id="ZhGPCTu5Iyny0ZlqSRic-137" style="vsdxID=57;edgeStyle=none;startArrow=none;endArrow=block;startSize=5;endSize=9;strokeColor=#000000;spacingTop=0;spacingBottom=0;spacingLeft=0;spacingRight=0;verticalAlign=middle;html=1;labelBackgroundColor=#ffffff;rounded=0;" parent="1" source="a82_juw0TD2ykU31_FT8-60" target="ZhGPCTu5Iyny0ZlqSRic-138" edge="1">
          <mxGeometry relative="1" as="geometry">
            <mxPoint as="offset" />
            <mxPoint x="10" y="-470" as="sourcePoint" />
            <mxPoint x="89" y="-425" as="targetPoint" />
          </mxGeometry>
        </mxCell>
        <mxCell id="ZhGPCTu5Iyny0ZlqSRic-138" value="&lt;font style=&quot;font-size:11px;font-family:Calibri;color:#000000;direction:ltr;letter-spacing:0px;line-height:120%;opacity:1&quot;&gt;VALOR_1&lt;br&gt;&lt;/font&gt;" style="verticalAlign=middle;align=center;vsdxID=7;fillColor=#FFFFFF;gradientColor=none;shape=stencil(nZBLDoAgDERP0z3SIyjew0SURgSD+Lu9kMZoXLhwN9O+tukAlrNpJg1SzDH4QW/URgNYgZTkjA4UkwJUgGXng+6DX1zLfmoymdXo17xh5zmRJ6Q42BWCfc2oJfdAr+Yv+AP9Cb7OJ3H/2JG1HNGz/84klThPVCc=);strokeColor=#000000;spacingTop=-1;spacingBottom=-1;spacingLeft=-1;spacingRight=-1;labelBackgroundColor=none;rounded=0;html=1;whiteSpace=wrap;" parent="1" vertex="1">
          <mxGeometry x="-19" y="-435" width="82" height="30" as="geometry" />
        </mxCell>
        <mxCell id="ZhGPCTu5Iyny0ZlqSRic-139" value="&lt;font style=&quot;font-size:11px;font-family:Calibri;color:#000000;direction:ltr;letter-spacing:0px;line-height:120%;opacity:1&quot;&gt;VALOR_2&lt;br&gt;&lt;/font&gt;" style="verticalAlign=middle;align=center;vsdxID=7;fillColor=#FFFFFF;gradientColor=none;shape=stencil(nZBLDoAgDERP0z3SIyjew0SURgSD+Lu9kMZoXLhwN9O+tukAlrNpJg1SzDH4QW/URgNYgZTkjA4UkwJUgGXng+6DX1zLfmoymdXo17xh5zmRJ6Q42BWCfc2oJfdAr+Yv+AP9Cb7OJ3H/2JG1HNGz/84klThPVCc=);strokeColor=#000000;spacingTop=-1;spacingBottom=-1;spacingLeft=-1;spacingRight=-1;labelBackgroundColor=none;rounded=0;html=1;whiteSpace=wrap;" parent="1" vertex="1">
          <mxGeometry x="-125" y="-440" width="82" height="30" as="geometry" />
        </mxCell>
        <mxCell id="ZhGPCTu5Iyny0ZlqSRic-121" style="vsdxID=59;edgeStyle=none;startArrow=none;endArrow=open;startSize=5;endSize=2;strokeWidth=4;strokeColor=#CDCDCD;spacingTop=0;spacingBottom=0;spacingLeft=0;spacingRight=0;verticalAlign=middle;html=1;labelBackgroundColor=#ffffff;rounded=0;entryX=0.263;entryY=0.98;entryDx=0;entryDy=0;entryPerimeter=0;" parent="1" source="ZhGPCTu5Iyny0ZlqSRic-112" target="ZhGPCTu5Iyny0ZlqSRic-110" edge="1">
          <mxGeometry relative="1" as="geometry">
            <mxPoint as="offset" />
            <Array as="points" />
            <mxPoint x="-880" y="80" as="sourcePoint" />
            <mxPoint x="-800" y="80" as="targetPoint" />
          </mxGeometry>
        </mxCell>
        <mxCell id="ZhGPCTu5Iyny0ZlqSRic-145" value="SI" style="edgeLabel;html=1;align=center;verticalAlign=middle;resizable=0;points=[];" parent="ZhGPCTu5Iyny0ZlqSRic-121" connectable="0" vertex="1">
          <mxGeometry x="-0.0023" y="-5" relative="1" as="geometry">
            <mxPoint as="offset" />
          </mxGeometry>
        </mxCell>
        <mxCell id="ZhGPCTu5Iyny0ZlqSRic-146" style="vsdxID=59;edgeStyle=none;startArrow=none;endArrow=open;startSize=5;endSize=2;strokeWidth=4;strokeColor=#CDCDCD;spacingTop=0;spacingBottom=0;spacingLeft=0;spacingRight=0;verticalAlign=middle;html=1;labelBackgroundColor=#ffffff;rounded=0;exitX=0.484;exitY=0.049;exitDx=0;exitDy=0;exitPerimeter=0;" parent="1" source="ZhGPCTu5Iyny0ZlqSRic-110" target="ZhGPCTu5Iyny0ZlqSRic-93" edge="1">
          <mxGeometry relative="1" as="geometry">
            <mxPoint as="offset" />
            <mxPoint x="-624" y="95" as="sourcePoint" />
            <mxPoint x="-544" y="95" as="targetPoint" />
          </mxGeometry>
        </mxCell>
        <mxCell id="ZhGPCTu5Iyny0ZlqSRic-158" style="vsdxID=57;edgeStyle=none;startArrow=none;endArrow=block;startSize=5;endSize=9;strokeColor=#000000;spacingTop=0;spacingBottom=0;spacingLeft=0;spacingRight=0;verticalAlign=middle;html=1;labelBackgroundColor=#ffffff;rounded=0;" parent="1" source="3d_Hws1QxchP5DV1Z6rh-1" target="3d_Hws1QxchP5DV1Z6rh-4" edge="1">
          <mxGeometry relative="1" as="geometry">
            <mxPoint as="offset" />
            <mxPoint x="-191.75" y="160" as="sourcePoint" />
            <mxPoint x="-191.75" y="240" as="targetPoint" />
          </mxGeometry>
        </mxCell>
        <mxCell id="DCNwNrw-yuZkW3MHIDjY-22" value="&lt;font style=&quot;font-size:11px;font-family:Calibri;color:#000000;direction:ltr;letter-spacing:0px;line-height:120%;opacity:1&quot;&gt;SIMPLE&lt;br&gt;&lt;/font&gt;" style="verticalAlign=middle;align=center;vsdxID=7;fillColor=#FFFFFF;gradientColor=none;shape=stencil(nZBLDoAgDERP0z3SIyjew0SURgSD+Lu9kMZoXLhwN9O+tukAlrNpJg1SzDH4QW/URgNYgZTkjA4UkwJUgGXng+6DX1zLfmoymdXo17xh5zmRJ6Q42BWCfc2oJfdAr+Yv+AP9Cb7OJ3H/2JG1HNGz/84klThPVCc=);strokeColor=#000000;spacingTop=-1;spacingBottom=-1;spacingLeft=-1;spacingRight=-1;labelBackgroundColor=none;rounded=0;html=1;whiteSpace=wrap;" parent="1" vertex="1">
          <mxGeometry x="-300.75" y="310" width="60" height="20" as="geometry" />
        </mxCell>
        <mxCell id="ZhGPCTu5Iyny0ZlqSRic-166" style="vsdxID=20;fillColor=#FFFFFF;gradientColor=none;shape=stencil(UzV2Ls5ILEhVNTIoLinKz04tz0wpyVA1dlE1MsrMy0gtyiwBslSNXVWNndPyi1LTi/JL81Ig/IJEkEoQKze/DGRCBUSfAUiHkUElhGcK4bpBVOZk5iGpNEVVikeloQHZpsK0YlWLz1QgA+HFtMycHEgIIcujBwlQCBKcxq4A);strokeColor=#000000;spacingTop=-1;spacingBottom=-1;spacingLeft=-1;spacingRight=-1;labelBackgroundColor=none;rounded=0;html=1;whiteSpace=wrap;" parent="1" vertex="1">
          <mxGeometry x="-916" y="-230" width="190" height="150" as="geometry" />
        </mxCell>
        <mxCell id="ZhGPCTu5Iyny0ZlqSRic-167" value="&lt;font style=&quot;font-size:11px;font-family:Calibri;color:#000000;direction:ltr;letter-spacing:0px;line-height:120%;opacity:1&quot;&gt;&lt;br/&gt;&lt;/font&gt;" style="text;vsdxID=20;fillColor=none;gradientColor=none;strokeColor=none;spacingTop=-1;spacingBottom=-1;spacingLeft=-1;spacingRight=-1;labelBackgroundColor=none;rounded=0;html=1;whiteSpace=wrap;verticalAlign=middle;align=center;;html=1;" parent="ZhGPCTu5Iyny0ZlqSRic-166" vertex="1">
          <mxGeometry x="15.84125" y="16.992857142857144" width="158.34125" height="114" as="geometry" />
        </mxCell>
        <mxCell id="ZhGPCTu5Iyny0ZlqSRic-169" value="&lt;font style=&quot;font-size:11px;font-family:Calibri;color:#000000;direction:ltr;letter-spacing:0px;line-height:120%;opacity:1&quot;&gt;POSICION&lt;br&gt;&lt;/font&gt;" style="verticalAlign=middle;align=center;vsdxID=7;fillColor=#FFFFFF;gradientColor=none;shape=stencil(nZBLDoAgDERP0z3SIyjew0SURgSD+Lu9kMZoXLhwN9O+tukAlrNpJg1SzDH4QW/URgNYgZTkjA4UkwJUgGXng+6DX1zLfmoymdXo17xh5zmRJ6Q42BWCfc2oJfdAr+Yv+AP9Cb7OJ3H/2JG1HNGz/84klThPVCc=);strokeColor=#000000;spacingTop=-1;spacingBottom=-1;spacingLeft=-1;spacingRight=-1;labelBackgroundColor=none;rounded=0;html=1;whiteSpace=wrap;" parent="ZhGPCTu5Iyny0ZlqSRic-166" vertex="1">
          <mxGeometry x="15.997999999999998" y="61.667441860465104" width="60.002" height="22.05348837209302" as="geometry" />
        </mxCell>
        <mxCell id="ZhGPCTu5Iyny0ZlqSRic-170" value="=" style="vsdxID=52;fillColor=#FFFFFF;gradientColor=none;shape=stencil(vVHLDsIgEPwajiQI6RfU+h8bu22JCGRB2/69kG1iazx58DazM/vIjjBtmiCi0CplCjecbZ8nYc5Ca+snJJsLEqYTph0C4Ujh4XvmEaqzont41gkL96naodXKrGF6YSfQtUi0OXXDVlqPfJNP6usotUhYbJIUMmQb/GGrAxpRljVycDBuc1hKM2LclX8/7H9nFfB+82Cd45T2+mcspcSRmu4F);dashed=1;dashPattern=4.00 2.00;labelBackgroundColor=none;rounded=0;html=1;whiteSpace=wrap;" parent="ZhGPCTu5Iyny0ZlqSRic-166" vertex="1">
          <mxGeometry x="78.27999999999999" y="18.13953488372093" width="28.88" height="24.41860465116279" as="geometry" />
        </mxCell>
        <mxCell id="ZhGPCTu5Iyny0ZlqSRic-171" value="&lt;font style=&quot;font-size:11px;font-family:Calibri;color:#000000;direction:ltr;letter-spacing:0px;line-height:120%;opacity:1&quot;&gt;CIELO&lt;br&gt;&lt;/font&gt;" style="verticalAlign=middle;align=center;vsdxID=7;fillColor=#FFFFFF;gradientColor=none;shape=stencil(nZBLDoAgDERP0z3SIyjew0SURgSD+Lu9kMZoXLhwN9O+tukAlrNpJg1SzDH4QW/URgNYgZTkjA4UkwJUgGXng+6DX1zLfmoymdXo17xh5zmRJ6Q42BWCfc2oJfdAr+Yv+AP9Cb7OJ3H/2JG1HNGz/84klThPVCc=);strokeColor=#000000;spacingTop=-1;spacingBottom=-1;spacingLeft=-1;spacingRight=-1;labelBackgroundColor=none;rounded=0;html=1;whiteSpace=wrap;" parent="ZhGPCTu5Iyny0ZlqSRic-166" vertex="1">
          <mxGeometry x="107.15999999999998" y="61.39534883720929" width="62.32" height="20.930232558139537" as="geometry" />
        </mxCell>
        <mxCell id="ZhGPCTu5Iyny0ZlqSRic-174" style="vsdxID=62;edgeStyle=none;startArrow=none;endArrow=none;startSize=5;endSize=9;strokeColor=#000000;spacingTop=0;spacingBottom=0;spacingLeft=0;spacingRight=0;verticalAlign=middle;html=1;labelBackgroundColor=#ffffff;rounded=0;" parent="ZhGPCTu5Iyny0ZlqSRic-166" source="ZhGPCTu5Iyny0ZlqSRic-169" target="ZhGPCTu5Iyny0ZlqSRic-170" edge="1">
          <mxGeometry relative="1" as="geometry">
            <mxPoint as="offset" />
            <mxPoint x="904.7990000000001" y="155.853488372093" as="sourcePoint" />
            <mxPoint x="45.999" y="5.8534883720930235" as="targetPoint" />
          </mxGeometry>
        </mxCell>
        <mxCell id="ZhGPCTu5Iyny0ZlqSRic-175" style="vsdxID=62;edgeStyle=none;startArrow=none;endArrow=none;startSize=5;endSize=9;strokeColor=#000000;spacingTop=0;spacingBottom=0;spacingLeft=0;spacingRight=0;verticalAlign=middle;html=1;labelBackgroundColor=#ffffff;rounded=0;" parent="ZhGPCTu5Iyny0ZlqSRic-166" source="ZhGPCTu5Iyny0ZlqSRic-171" target="ZhGPCTu5Iyny0ZlqSRic-170" edge="1">
          <mxGeometry relative="1" as="geometry">
            <mxPoint as="offset" />
            <mxPoint x="997.12" y="155.58139534883722" as="sourcePoint" />
            <mxPoint x="138.32" y="5.5813953488372094" as="targetPoint" />
          </mxGeometry>
        </mxCell>
        <mxCell id="ZhGPCTu5Iyny0ZlqSRic-168" value="SI" style="vsdxID=59;edgeStyle=none;startArrow=none;endArrow=open;startSize=5;endSize=2;strokeWidth=4;strokeColor=#CDCDCD;spacingTop=0;spacingBottom=0;spacingLeft=0;spacingRight=0;verticalAlign=middle;html=1;labelBackgroundColor=#ffffff;rounded=0;exitX=0.957;exitY=0.461;exitDx=0;exitDy=0;exitPerimeter=0;" parent="1" source="ZhGPCTu5Iyny0ZlqSRic-166" target="ZhGPCTu5Iyny0ZlqSRic-96" edge="1">
          <mxGeometry relative="1" as="geometry">
            <mxPoint as="offset" />
            <Array as="points" />
            <mxPoint x="-1010" y="-180" as="sourcePoint" />
            <mxPoint x="-930" y="-180" as="targetPoint" />
          </mxGeometry>
        </mxCell>
        <mxCell id="ZhGPCTu5Iyny0ZlqSRic-176" style="vsdxID=57;edgeStyle=none;startArrow=none;endArrow=block;startSize=5;endSize=9;strokeColor=#000000;spacingTop=0;spacingBottom=0;spacingLeft=0;spacingRight=0;verticalAlign=middle;html=1;labelBackgroundColor=#ffffff;rounded=0;" parent="1" source="3d_Hws1QxchP5DV1Z6rh-4" target="0BtqvbByxqbC6ZA3XULC-9" edge="1">
          <mxGeometry relative="1" as="geometry">
            <mxPoint as="offset" />
            <mxPoint x="-124.75" y="217.5" as="sourcePoint" />
            <mxPoint x="-122.48347701149441" y="320" as="targetPoint" />
          </mxGeometry>
        </mxCell>
        <mxCell id="ZhGPCTu5Iyny0ZlqSRic-177" style="vsdxID=20;fillColor=#FFFFFF;gradientColor=none;shape=stencil(UzV2Ls5ILEhVNTIoLinKz04tz0wpyVA1dlE1MsrMy0gtyiwBslSNXVWNndPyi1LTi/JL81Ig/IJEkEoQKze/DGRCBUSfAUiHkUElhGcK4bpBVOZk5iGpNEVVikeloQHZpsK0YlWLz1QgA+HFtMycHEgIIcujBwlQCBKcxq4A);strokeColor=#000000;spacingTop=-1;spacingBottom=-1;spacingLeft=-1;spacingRight=-1;labelBackgroundColor=none;rounded=0;html=1;whiteSpace=wrap;" parent="1" vertex="1">
          <mxGeometry x="-969.9999999999999" y="-410" width="220.11" height="180" as="geometry" />
        </mxCell>
        <mxCell id="ZhGPCTu5Iyny0ZlqSRic-178" value="&lt;font style=&quot;font-size:11px;font-family:Calibri;color:#000000;direction:ltr;letter-spacing:0px;line-height:120%;opacity:1&quot;&gt;&lt;br&gt;&lt;/font&gt;" style="text;vsdxID=20;fillColor=none;gradientColor=none;strokeColor=none;spacingTop=-1;spacingBottom=-1;spacingLeft=-1;spacingRight=-1;labelBackgroundColor=none;rounded=0;html=1;whiteSpace=wrap;verticalAlign=middle;align=center;;html=1;" parent="ZhGPCTu5Iyny0ZlqSRic-177" vertex="1">
          <mxGeometry x="18.35167125" y="20.391428571428573" width="183.43417125" height="136.8" as="geometry" />
        </mxCell>
        <mxCell id="a82_juw0TD2ykU31_FT8-14" value="&lt;font style=&quot;font-size:11px;font-family:Calibri;color:#000000;direction:ltr;letter-spacing:0px;line-height:120%;opacity:1&quot;&gt;CONTADOR PARES SEGUIDOS&lt;br&gt;&lt;/font&gt;" style="verticalAlign=middle;align=center;vsdxID=7;fillColor=#FFFFFF;gradientColor=none;shape=stencil(nZBLDoAgDERP0z3SIyjew0SURgSD+Lu9kMZoXLhwN9O+tukAlrNpJg1SzDH4QW/URgNYgZTkjA4UkwJUgGXng+6DX1zLfmoymdXo17xh5zmRJ6Q42BWCfc2oJfdAr+Yv+AP9Cb7OJ3H/2JG1HNGz/84klThPVCc=);strokeColor=#000000;spacingTop=-1;spacingBottom=-1;spacingLeft=-1;spacingRight=-1;labelBackgroundColor=none;rounded=0;html=1;whiteSpace=wrap;" parent="ZhGPCTu5Iyny0ZlqSRic-177" vertex="1">
          <mxGeometry x="30.1099999999999" y="80" width="82" height="30" as="geometry" />
        </mxCell>
        <mxCell id="a82_juw0TD2ykU31_FT8-16" value="=" style="vsdxID=52;fillColor=#FFFFFF;gradientColor=none;shape=stencil(vVHLDsIgEPwajiQI6RfU+h8bu22JCGRB2/69kG1iazx58DazM/vIjjBtmiCi0CplCjecbZ8nYc5Ca+snJJsLEqYTph0C4Ujh4XvmEaqzont41gkL96naodXKrGF6YSfQtUi0OXXDVlqPfJNP6usotUhYbJIUMmQb/GGrAxpRljVycDBuc1hKM2LclX8/7H9nFfB+82Cd45T2+mcspcSRmu4F);dashed=1;dashPattern=4.00 2.00;labelBackgroundColor=none;rounded=0;html=1;whiteSpace=wrap;" parent="ZhGPCTu5Iyny0ZlqSRic-177" vertex="1">
          <mxGeometry x="89.1099999999999" y="16" width="38" height="35" as="geometry" />
        </mxCell>
        <mxCell id="a82_juw0TD2ykU31_FT8-19" value="&lt;font style=&quot;font-size:11px;font-family:Calibri;color:#000000;direction:ltr;letter-spacing:0px;line-height:120%;opacity:1&quot;&gt;&quot;3&quot;&lt;br&gt;&lt;/font&gt;" style="verticalAlign=middle;align=center;vsdxID=7;fillColor=#FFFFFF;gradientColor=none;shape=stencil(nZBLDoAgDERP0z3SIyjew0SURgSD+Lu9kMZoXLhwN9O+tukAlrNpJg1SzDH4QW/URgNYgZTkjA4UkwJUgGXng+6DX1zLfmoymdXo17xh5zmRJ6Q42BWCfc2oJfdAr+Yv+AP9Cb7OJ3H/2JG1HNGz/84klThPVCc=);strokeColor=#000000;spacingTop=-1;spacingBottom=-1;spacingLeft=-1;spacingRight=-1;labelBackgroundColor=none;rounded=0;html=1;whiteSpace=wrap;" parent="ZhGPCTu5Iyny0ZlqSRic-177" vertex="1">
          <mxGeometry x="123.11" y="75" width="56.89" height="35" as="geometry" />
        </mxCell>
        <mxCell id="a82_juw0TD2ykU31_FT8-20" style="vsdxID=62;edgeStyle=none;startArrow=none;endArrow=none;startSize=5;endSize=9;strokeColor=#000000;spacingTop=0;spacingBottom=0;spacingLeft=0;spacingRight=0;verticalAlign=middle;html=1;labelBackgroundColor=#ffffff;rounded=0;" parent="ZhGPCTu5Iyny0ZlqSRic-177" source="a82_juw0TD2ykU31_FT8-14" target="a82_juw0TD2ykU31_FT8-16" edge="1">
          <mxGeometry relative="1" as="geometry">
            <mxPoint as="offset" />
            <mxPoint x="1161.2199999999998" y="480" as="sourcePoint" />
            <mxPoint x="71.1099999999999" as="targetPoint" />
          </mxGeometry>
        </mxCell>
        <mxCell id="a82_juw0TD2ykU31_FT8-23" style="vsdxID=62;edgeStyle=none;startArrow=none;endArrow=none;startSize=5;endSize=9;strokeColor=#000000;spacingTop=0;spacingBottom=0;spacingLeft=0;spacingRight=0;verticalAlign=middle;html=1;labelBackgroundColor=#ffffff;rounded=0;" parent="ZhGPCTu5Iyny0ZlqSRic-177" source="a82_juw0TD2ykU31_FT8-19" target="a82_juw0TD2ykU31_FT8-16" edge="1">
          <mxGeometry relative="1" as="geometry">
            <mxPoint as="offset" />
            <mxPoint x="1241.665" y="475" as="sourcePoint" />
            <mxPoint x="151.555" y="-5" as="targetPoint" />
          </mxGeometry>
        </mxCell>
        <mxCell id="ZhGPCTu5Iyny0ZlqSRic-179" value="4" style="vsdxID=51;fillColor=#FFFFFF;gradientColor=none;shape=stencil(vVHLDsIgEPwajiQI6RfU+h8bu22JCGRB2/69kG1iazx58DazM/vIjjBtmiCi0CplCjecbZ8nYc5Ca+snJJsLEqYTph0C4Ujh4XvmEaqzont41gkL96naodXKrGF6YSfQtUi0OXXDVlqPfJNP6usotUhYbJIUMmQb/GGrAxpRljVycDBuc1hKM2LclX8/7H9nFfB+82Cd45T2+mcspcSRmu4F);labelBackgroundColor=none;rounded=0;html=1;whiteSpace=wrap;" parent="1" vertex="1">
          <mxGeometry x="-796.5" y="-745" width="45" height="40" as="geometry" />
        </mxCell>
        <mxCell id="ZhGPCTu5Iyny0ZlqSRic-180" style="vsdxID=57;edgeStyle=none;startArrow=none;endArrow=block;startSize=5;endSize=9;strokeColor=#000000;spacingTop=0;spacingBottom=0;spacingLeft=0;spacingRight=0;verticalAlign=middle;html=1;labelBackgroundColor=#ffffff;rounded=0;" parent="1" source="ZhGPCTu5Iyny0ZlqSRic-6" target="ZhGPCTu5Iyny0ZlqSRic-179" edge="1">
          <mxGeometry relative="1" as="geometry">
            <mxPoint as="offset" />
            <mxPoint x="-430" y="-550" as="sourcePoint" />
            <mxPoint x="-430" y="-550" as="targetPoint" />
          </mxGeometry>
        </mxCell>
        <mxCell id="3d_Hws1QxchP5DV1Z6rh-35" style="vsdxID=20;fillColor=#FFFFFF;gradientColor=none;shape=stencil(UzV2Ls5ILEhVNTIoLinKz04tz0wpyVA1dlE1MsrMy0gtyiwBslSNXVWNndPyi1LTi/JL81Ig/IJEkEoQKze/DGRCBUSfAUiHkUElhGcK4bpBVOZk5iGpNEVVikeloQHZpsK0YlWLz1QgA+HFtMycHEgIIcujBwlQCBKcxq4A);strokeColor=#000000;spacingTop=-1;spacingBottom=-1;spacingLeft=-1;spacingRight=-1;labelBackgroundColor=none;rounded=0;html=1;whiteSpace=wrap;" parent="1" vertex="1">
          <mxGeometry x="-907.5" y="-11" width="230" height="140" as="geometry" />
        </mxCell>
        <mxCell id="3d_Hws1QxchP5DV1Z6rh-36" value="&lt;font style=&quot;font-size:11px;font-family:Calibri;color:#000000;direction:ltr;letter-spacing:0px;line-height:120%;opacity:1&quot;&gt;&lt;br/&gt;&lt;/font&gt;" style="text;vsdxID=20;fillColor=none;gradientColor=none;strokeColor=none;spacingTop=-1;spacingBottom=-1;spacingLeft=-1;spacingRight=-1;labelBackgroundColor=none;rounded=0;html=1;whiteSpace=wrap;verticalAlign=middle;align=center;;html=1;" parent="3d_Hws1QxchP5DV1Z6rh-35" vertex="1">
          <mxGeometry x="10.895596590909088" y="11.316324324324324" width="108.90696022727272" height="75.91783783783784" as="geometry" />
        </mxCell>
        <mxCell id="3d_Hws1QxchP5DV1Z6rh-37" value="=" style="vsdxID=52;fillColor=#FFFFFF;gradientColor=none;shape=stencil(vVHLDsIgEPwajiQI6RfU+h8bu22JCGRB2/69kG1iazx58DazM/vIjjBtmiCi0CplCjecbZ8nYc5Ca+snJJsLEqYTph0C4Ujh4XvmEaqzont41gkL96naodXKrGF6YSfQtUi0OXXDVlqPfJNP6usotUhYbJIUMmQb/GGrAxpRljVycDBuc1hKM2LclX8/7H9nFfB+82Cd45T2+mcspcSRmu4F);dashed=1;dashPattern=4.00 2.00;labelBackgroundColor=none;rounded=0;html=1;whiteSpace=wrap;" parent="3d_Hws1QxchP5DV1Z6rh-35" vertex="1">
          <mxGeometry x="104.74348244348248" y="11.321081081081083" width="15.134199134199132" height="11.654054054054056" as="geometry" />
        </mxCell>
        <mxCell id="3d_Hws1QxchP5DV1Z6rh-39" value="&lt;font style=&quot;font-size:11px;font-family:Calibri;color:#000000;direction:ltr;letter-spacing:0px;line-height:120%;opacity:1&quot;&gt;OCUPADO&lt;br&gt;&lt;/font&gt;" style="verticalAlign=middle;align=center;vsdxID=7;fillColor=#FFFFFF;gradientColor=none;shape=stencil(nZBLDoAgDERP0z3SIyjew0SURgSD+Lu9kMZoXLhwN9O+tukAlrNpJg1SzDH4QW/URgNYgZTkjA4UkwJUgGXng+6DX1zLfmoymdXo17xh5zmRJ6Q42BWCfc2oJfdAr+Yv+AP9Cb7OJ3H/2JG1HNGz/84klThPVCc=);strokeColor=#000000;spacingTop=-1;spacingBottom=-1;spacingLeft=-1;spacingRight=-1;labelBackgroundColor=none;rounded=0;html=1;whiteSpace=wrap;" parent="3d_Hws1QxchP5DV1Z6rh-35" vertex="1">
          <mxGeometry x="147.13804713804714" y="54.48648648648649" width="46.464646464646464" height="21.18918918918919" as="geometry" />
        </mxCell>
        <mxCell id="3d_Hws1QxchP5DV1Z6rh-40" style="vsdxID=62;edgeStyle=none;startArrow=none;endArrow=none;startSize=5;endSize=9;strokeColor=#000000;spacingTop=0;spacingBottom=0;spacingLeft=0;spacingRight=0;verticalAlign=middle;html=1;labelBackgroundColor=#ffffff;rounded=0;exitX=-0.024;exitY=-0.129;exitDx=0;exitDy=0;exitPerimeter=0;" parent="3d_Hws1QxchP5DV1Z6rh-35" source="a82_juw0TD2ykU31_FT8-43" target="3d_Hws1QxchP5DV1Z6rh-37" edge="1">
          <mxGeometry relative="1" as="geometry">
            <mxPoint as="offset" />
            <mxPoint x="55.44193141088297" y="44.95135135135142" as="sourcePoint" />
            <mxPoint x="32.25974025974026" y="18.313513513513517" as="targetPoint" />
          </mxGeometry>
        </mxCell>
        <mxCell id="3d_Hws1QxchP5DV1Z6rh-41" style="vsdxID=62;edgeStyle=none;startArrow=none;endArrow=none;startSize=5;endSize=9;strokeColor=#000000;spacingTop=0;spacingBottom=0;spacingLeft=0;spacingRight=0;verticalAlign=middle;html=1;labelBackgroundColor=#ffffff;rounded=0;" parent="3d_Hws1QxchP5DV1Z6rh-35" source="3d_Hws1QxchP5DV1Z6rh-39" target="3d_Hws1QxchP5DV1Z6rh-37" edge="1">
          <mxGeometry relative="1" as="geometry">
            <mxPoint as="offset" />
            <mxPoint x="545.6277056277056" y="10.988108108108111" as="sourcePoint" />
            <mxPoint x="103.54978354978356" y="17.64756756756757" as="targetPoint" />
          </mxGeometry>
        </mxCell>
        <mxCell id="a82_juw0TD2ykU31_FT8-41" style="vsdxID=14;fillColor=none;gradientColor=none;labelBackgroundColor=none;rounded=0;strokeColor=none;html=1;whiteSpace=wrap;" parent="3d_Hws1QxchP5DV1Z6rh-35" vertex="1">
          <mxGeometry x="38.72" y="54.49" width="81.28" height="35.51" as="geometry" />
        </mxCell>
        <mxCell id="a82_juw0TD2ykU31_FT8-42" value="&lt;p style=&quot;align:left;margin-left:0;margin-right:0;margin-top:0px;margin-bottom:0px;text-indent:0;valign:top;direction:ltr;&quot;&gt;&lt;font style=&quot;font-size:11px;font-family:Calibri;color:#000000;direction:ltr;letter-spacing:0px;line-height:120%;opacity:1&quot;&gt;CASILLA&lt;span style=&quot;white-space: pre;&quot;&gt; &lt;/span&gt;&lt;/font&gt;&lt;/p&gt;" style="verticalAlign=top;align=left;vsdxID=15;fillColor=#FFFFFF;gradientColor=none;shape=stencil(nZBLDoAgDERP0z3SIyjew0SURgSD+Lu9kMZoXLhwN9O+tukAlrNpJg1SzDH4QW/URgNYgZTkjA4UkwJUgGXng+6DX1zLfmoymdXo17xh5zmRJ6Q42BWCfc2oJfdAr+Yv+AP9Cb7OJ3H/2JG1HNGz/84klThPVCc=);strokeColor=#000000;spacingTop=-1;spacingBottom=-1;spacingLeft=-1;spacingRight=-1;labelBackgroundColor=none;rounded=0;html=1;whiteSpace=wrap;" parent="a82_juw0TD2ykU31_FT8-41" vertex="1">
          <mxGeometry width="81.28" height="35.51" as="geometry" />
        </mxCell>
        <mxCell id="a82_juw0TD2ykU31_FT8-43" value="&lt;font style=&quot;font-size:11px;font-family:Calibri;color:#000000;direction:ltr;letter-spacing:0px;line-height:120%;opacity:1&quot;&gt;ESTADO&lt;br&gt;&lt;/font&gt;" style="verticalAlign=middle;align=center;vsdxID=16;fillColor=#FFFFFF;gradientColor=none;shape=stencil(nZBLDoAgDERP0z3SIyjew0SURgSD+Lu9kMZoXLhwN9O+tukAlrNpJg1SzDH4QW/URgNYgZTkjA4UkwJUgGXng+6DX1zLfmoymdXo17xh5zmRJ6Q42BWCfc2oJfdAr+Yv+AP9Cb7OJ3H/2JG1HNGz/84klThPVCc=);strokeColor=#000000;spacingTop=-1;spacingBottom=-1;spacingLeft=-1;spacingRight=-1;labelBackgroundColor=none;rounded=0;html=1;whiteSpace=wrap;" parent="a82_juw0TD2ykU31_FT8-41" vertex="1">
          <mxGeometry x="33.67314285714285" y="18.769571428571428" width="41.80114285714285" height="13.189428571428572" as="geometry" />
        </mxCell>
        <mxCell id="ZhGPCTu5Iyny0ZlqSRic-184" style="vsdxID=57;edgeStyle=none;startArrow=none;endArrow=block;startSize=5;endSize=9;strokeColor=#000000;spacingTop=0;spacingBottom=0;spacingLeft=0;spacingRight=0;verticalAlign=middle;html=1;labelBackgroundColor=#ffffff;rounded=0;" parent="1" source="e6ZOl5odj2JOFOmkNz3M-1" target="ZhGPCTu5Iyny0ZlqSRic-116" edge="1">
          <mxGeometry relative="1" as="geometry">
            <mxPoint as="offset" />
            <mxPoint x="-12" y="-749" as="sourcePoint" />
            <mxPoint x="18" y="-745.0806451612904" as="targetPoint" />
          </mxGeometry>
        </mxCell>
        <mxCell id="a82_juw0TD2ykU31_FT8-3" style="vsdxID=57;edgeStyle=none;startArrow=none;endArrow=block;startSize=5;endSize=9;strokeColor=#000000;spacingTop=0;spacingBottom=0;spacingLeft=0;spacingRight=0;verticalAlign=middle;html=1;labelBackgroundColor=#ffffff;rounded=0;" parent="1" source="203xu0XrpAFpmtI-5cuE-13" target="a82_juw0TD2ykU31_FT8-8" edge="1">
          <mxGeometry relative="1" as="geometry">
            <mxPoint as="offset" />
            <mxPoint x="-563" y="-595" as="sourcePoint" />
            <mxPoint x="-530.4615384615386" y="-645" as="targetPoint" />
          </mxGeometry>
        </mxCell>
        <mxCell id="a82_juw0TD2ykU31_FT8-6" value="5" style="vsdxID=51;fillColor=#FFFFFF;gradientColor=none;shape=stencil(vVHLDsIgEPwajiQI6RfU+h8bu22JCGRB2/69kG1iazx58DazM/vIjjBtmiCi0CplCjecbZ8nYc5Ca+snJJsLEqYTph0C4Ujh4XvmEaqzont41gkL96naodXKrGF6YSfQtUi0OXXDVlqPfJNP6usotUhYbJIUMmQb/GGrAxpRljVycDBuc1hKM2LclX8/7H9nFfB+82Cd45T2+mcspcSRmu4F);labelBackgroundColor=none;rounded=0;html=1;whiteSpace=wrap;" parent="1" vertex="1">
          <mxGeometry x="-628.5" y="-30" width="45" height="40" as="geometry" />
        </mxCell>
        <mxCell id="a82_juw0TD2ykU31_FT8-7" style="vsdxID=57;edgeStyle=none;startArrow=none;endArrow=block;startSize=5;endSize=9;strokeColor=#000000;spacingTop=0;spacingBottom=0;spacingLeft=0;spacingRight=0;verticalAlign=middle;html=1;labelBackgroundColor=#ffffff;rounded=0;" parent="1" source="a82_juw0TD2ykU31_FT8-6" target="ZhGPCTu5Iyny0ZlqSRic-1" edge="1">
          <mxGeometry relative="1" as="geometry">
            <mxPoint as="offset" />
            <mxPoint x="-559.75" y="-30" as="sourcePoint" />
            <mxPoint x="-479.75" y="-30" as="targetPoint" />
          </mxGeometry>
        </mxCell>
        <mxCell id="a82_juw0TD2ykU31_FT8-8" value="&lt;font style=&quot;font-size: 11px ; font-family: &amp;quot;calibri&amp;quot; ; color: #000000 ; direction: ltr ; letter-spacing: 0px ; line-height: 120% ; opacity: 1&quot;&gt;CONFIGURA&lt;br&gt;&lt;/font&gt;" style="verticalAlign=middle;align=center;vsdxID=1;fillColor=#FFFFFF;gradientColor=none;shape=stencil(tVLREoIgEPwaHnEQxsl3s/9gEpSJwDko7e+DsEkze2l627vdu5uFRaxyHe8FosR5sCcxqMZ3iO0Rpcp0ApQPCLEasUpaEC3Yi2lS3fOojOhsr3HDmObyMtsVcYqS29Qh5FEfklwrM5OXeUa/yjkcAwfr7TDpiyTfXvjkMR+Vw2A998qaBac5tAKHU1hq3i4oNwjRr9ofvayt/+Rk+yX/4iWA159KpXWKxJx/z0Bopfyw+g4=);dashed=1;strokeColor=#000000;strokeWidth=3;spacingTop=-1;spacingBottom=-1;spacingLeft=-1;spacingRight=-1;labelBackgroundColor=none;rounded=0;html=1;whiteSpace=wrap;" parent="1" vertex="1">
          <mxGeometry x="-702" y="-865" width="80" height="30" as="geometry" />
        </mxCell>
        <mxCell id="a82_juw0TD2ykU31_FT8-9" style="vsdxID=57;edgeStyle=none;startArrow=none;endArrow=block;startSize=5;endSize=9;strokeColor=#000000;spacingTop=0;spacingBottom=0;spacingLeft=0;spacingRight=0;verticalAlign=middle;html=1;labelBackgroundColor=#ffffff;rounded=0;" parent="1" source="a82_juw0TD2ykU31_FT8-8" target="203xu0XrpAFpmtI-5cuE-34" edge="1">
          <mxGeometry relative="1" as="geometry">
            <mxPoint as="offset" />
            <mxPoint x="-558" y="-770" as="sourcePoint" />
            <mxPoint x="-440" y="-963.7591240875912" as="targetPoint" />
          </mxGeometry>
        </mxCell>
        <mxCell id="a82_juw0TD2ykU31_FT8-10" value="&lt;font style=&quot;font-size:11px;font-family:Calibri;color:#000000;direction:ltr;letter-spacing:0px;line-height:120%;opacity:1&quot;&gt;CONTADOR PARES SEGUIDOS&lt;br&gt;&lt;/font&gt;" style="verticalAlign=middle;align=center;vsdxID=7;fillColor=#FFFFFF;gradientColor=none;shape=stencil(nZBLDoAgDERP0z3SIyjew0SURgSD+Lu9kMZoXLhwN9O+tukAlrNpJg1SzDH4QW/URgNYgZTkjA4UkwJUgGXng+6DX1zLfmoymdXo17xh5zmRJ6Q42BWCfc2oJfdAr+Yv+AP9Cb7OJ3H/2JG1HNGz/84klThPVCc=);strokeColor=#000000;spacingTop=-1;spacingBottom=-1;spacingLeft=-1;spacingRight=-1;labelBackgroundColor=none;rounded=0;html=1;whiteSpace=wrap;" parent="1" vertex="1">
          <mxGeometry x="-510" y="-860" width="82" height="30" as="geometry" />
        </mxCell>
        <mxCell id="a82_juw0TD2ykU31_FT8-11" style="vsdxID=57;edgeStyle=none;startArrow=none;endArrow=block;startSize=5;endSize=9;strokeColor=#000000;spacingTop=0;spacingBottom=0;spacingLeft=0;spacingRight=0;verticalAlign=middle;html=1;labelBackgroundColor=#ffffff;rounded=0;" parent="1" source="203xu0XrpAFpmtI-5cuE-31" target="a82_juw0TD2ykU31_FT8-10" edge="1">
          <mxGeometry relative="1" as="geometry">
            <mxPoint as="offset" />
            <mxPoint x="-900" y="-690" as="sourcePoint" />
            <mxPoint x="-550" y="-455" as="targetPoint" />
          </mxGeometry>
        </mxCell>
        <mxCell id="a82_juw0TD2ykU31_FT8-25" value="&lt;font style=&quot;font-size:11px;font-family:Calibri;color:#000000;direction:ltr;letter-spacing:0px;line-height:120%;opacity:1&quot;&gt;TIEMPO&lt;br&gt;&lt;/font&gt;" style="verticalAlign=middle;align=center;vsdxID=7;fillColor=#FFFFFF;gradientColor=none;shape=stencil(nZBLDoAgDERP0z3SIyjew0SURgSD+Lu9kMZoXLhwN9O+tukAlrNpJg1SzDH4QW/URgNYgZTkjA4UkwJUgGXng+6DX1zLfmoymdXo17xh5zmRJ6Q42BWCfc2oJfdAr+Yv+AP9Cb7OJ3H/2JG1HNGz/84klThPVCc=);strokeColor=#000000;spacingTop=-1;spacingBottom=-1;spacingLeft=-1;spacingRight=-1;labelBackgroundColor=none;rounded=0;html=1;whiteSpace=wrap;" parent="1" vertex="1">
          <mxGeometry x="-170.75" y="-865" width="82" height="30" as="geometry" />
        </mxCell>
        <mxCell id="a82_juw0TD2ykU31_FT8-26" value="&lt;font style=&quot;font-size: 11px ; font-family: &amp;quot;calibri&amp;quot; ; color: #000000 ; direction: ltr ; letter-spacing: 0px ; line-height: 120% ; opacity: 1&quot;&gt;TIENE&lt;br&gt;&lt;/font&gt;" style="verticalAlign=middle;align=center;vsdxID=2;fillColor=#FFFFFF;gradientColor=none;shape=stencil(tVLREoIgEPwaHnEQxsl3s/9gEpSJwDko7e+DsEkze2l627vdu5uFRaxyHe8FosR5sCcxqMZ3iO0Rpcp0ApQPCLEasUpaEC3Yi2lS3fOojOhsr3HDmObyMtsVcYqS29Qh5FEfklwrM5OXeUa/yjkcAwfr7TDpiyTfXvjkMR+Vw2A998qaBac5tAKHU1hq3i4oNwjRr9ofvayt/+Rk+yX/4iWA159KpXWKxJx/z0Bopfyw+g4=);strokeColor=#000000;spacingTop=-1;spacingBottom=-1;spacingLeft=-1;spacingRight=-1;labelBackgroundColor=none;rounded=0;html=1;whiteSpace=wrap;" parent="1" vertex="1">
          <mxGeometry x="-188" y="-795" width="80" height="30" as="geometry" />
        </mxCell>
        <mxCell id="a82_juw0TD2ykU31_FT8-27" style="vsdxID=57;edgeStyle=none;startArrow=none;endArrow=block;startSize=5;endSize=9;strokeColor=#000000;spacingTop=0;spacingBottom=0;spacingLeft=0;spacingRight=0;verticalAlign=middle;html=1;labelBackgroundColor=#ffffff;rounded=0;" parent="1" source="ZhGPCTu5Iyny0ZlqSRic-116" target="a82_juw0TD2ykU31_FT8-26" edge="1">
          <mxGeometry relative="1" as="geometry">
            <mxPoint as="offset" />
            <mxPoint x="-100" y="-780" as="sourcePoint" />
            <mxPoint x="-100" y="-780" as="targetPoint" />
          </mxGeometry>
        </mxCell>
        <mxCell id="a82_juw0TD2ykU31_FT8-28" style="vsdxID=57;edgeStyle=none;startArrow=none;endArrow=block;startSize=5;endSize=9;strokeColor=#000000;spacingTop=0;spacingBottom=0;spacingLeft=0;spacingRight=0;verticalAlign=middle;html=1;labelBackgroundColor=#ffffff;rounded=0;" parent="1" source="a82_juw0TD2ykU31_FT8-26" target="a82_juw0TD2ykU31_FT8-25" edge="1">
          <mxGeometry relative="1" as="geometry">
            <mxPoint as="offset" />
            <mxPoint x="-130" y="-850" as="sourcePoint" />
            <mxPoint x="-130" y="-850" as="targetPoint" />
          </mxGeometry>
        </mxCell>
        <mxCell id="a82_juw0TD2ykU31_FT8-29" style="vsdxID=20;fillColor=#FFFFFF;gradientColor=none;shape=stencil(UzV2Ls5ILEhVNTIoLinKz04tz0wpyVA1dlE1MsrMy0gtyiwBslSNXVWNndPyi1LTi/JL81Ig/IJEkEoQKze/DGRCBUSfAUiHkUElhGcK4bpBVOZk5iGpNEVVikeloQHZpsK0YlWLz1QgA+HFtMycHEgIIcujBwlQCBKcxq4A);strokeColor=#000000;spacingTop=-1;spacingBottom=-1;spacingLeft=-1;spacingRight=-1;labelBackgroundColor=none;rounded=0;html=1;whiteSpace=wrap;" parent="1" vertex="1">
          <mxGeometry x="-430" y="-1010" width="240" height="180" as="geometry" />
        </mxCell>
        <mxCell id="a82_juw0TD2ykU31_FT8-30" value="&lt;font style=&quot;font-size:11px;font-family:Calibri;color:#000000;direction:ltr;letter-spacing:0px;line-height:120%;opacity:1&quot;&gt;&lt;br/&gt;&lt;/font&gt;" style="text;vsdxID=20;fillColor=none;gradientColor=none;strokeColor=none;spacingTop=-1;spacingBottom=-1;spacingLeft=-1;spacingRight=-1;labelBackgroundColor=none;rounded=0;html=1;whiteSpace=wrap;verticalAlign=middle;align=center;;html=1;" parent="a82_juw0TD2ykU31_FT8-29" vertex="1">
          <mxGeometry x="20.01" y="20.39142857142857" width="200.01000000000002" height="136.8" as="geometry" />
        </mxCell>
        <mxCell id="a82_juw0TD2ykU31_FT8-35" value="&lt;font style=&quot;font-size:11px;font-family:Calibri;color:#000000;direction:ltr;letter-spacing:0px;line-height:120%;opacity:1&quot;&gt;TIEMPO&lt;br&gt;&lt;/font&gt;" style="verticalAlign=middle;align=center;vsdxID=7;fillColor=#FFFFFF;gradientColor=none;shape=stencil(nZBLDoAgDERP0z3SIyjew0SURgSD+Lu9kMZoXLhwN9O+tukAlrNpJg1SzDH4QW/URgNYgZTkjA4UkwJUgGXng+6DX1zLfmoymdXo17xh5zmRJ6Q42BWCfc2oJfdAr+Yv+AP9Cb7OJ3H/2JG1HNGz/84klThPVCc=);strokeColor=#000000;spacingTop=-1;spacingBottom=-1;spacingLeft=-1;spacingRight=-1;labelBackgroundColor=none;rounded=0;html=1;whiteSpace=wrap;" parent="a82_juw0TD2ykU31_FT8-29" vertex="1">
          <mxGeometry x="43.13" y="83.08" width="66.88" height="26.92" as="geometry" />
        </mxCell>
        <mxCell id="a82_juw0TD2ykU31_FT8-36" value="&amp;gt;=" style="vsdxID=52;fillColor=#FFFFFF;gradientColor=none;shape=stencil(vVHLDsIgEPwajiQI6RfU+h8bu22JCGRB2/69kG1iazx58DazM/vIjjBtmiCi0CplCjecbZ8nYc5Ca+snJJsLEqYTph0C4Ujh4XvmEaqzont41gkL96naodXKrGF6YSfQtUi0OXXDVlqPfJNP6usotUhYbJIUMmQb/GGrAxpRljVycDBuc1hKM2LclX8/7H9nFfB+82Cd45T2+mcspcSRmu4F);dashed=1;dashPattern=4.00 2.00;labelBackgroundColor=none;rounded=0;html=1;whiteSpace=wrap;" parent="a82_juw0TD2ykU31_FT8-29" vertex="1">
          <mxGeometry x="101" y="20.389999999999986" width="38" height="35" as="geometry" />
        </mxCell>
        <mxCell id="a82_juw0TD2ykU31_FT8-37" value="&lt;font style=&quot;font-size:11px;font-family:Calibri;color:#000000;direction:ltr;letter-spacing:0px;line-height:120%;opacity:1&quot;&gt;120&lt;br&gt;&lt;/font&gt;" style="verticalAlign=middle;align=center;vsdxID=7;fillColor=#FFFFFF;gradientColor=none;shape=stencil(nZBLDoAgDERP0z3SIyjew0SURgSD+Lu9kMZoXLhwN9O+tukAlrNpJg1SzDH4QW/URgNYgZTkjA4UkwJUgGXng+6DX1zLfmoymdXo17xh5zmRJ6Q42BWCfc2oJfdAr+Yv+AP9Cb7OJ3H/2JG1HNGz/84klThPVCc=);strokeColor=#000000;spacingTop=-1;spacingBottom=-1;spacingLeft=-1;spacingRight=-1;labelBackgroundColor=none;rounded=0;html=1;whiteSpace=wrap;" parent="a82_juw0TD2ykU31_FT8-29" vertex="1">
          <mxGeometry x="134" y="80" width="56" height="30" as="geometry" />
        </mxCell>
        <mxCell id="a82_juw0TD2ykU31_FT8-38" style="vsdxID=62;edgeStyle=none;startArrow=none;endArrow=none;startSize=5;endSize=9;strokeColor=#000000;spacingTop=0;spacingBottom=0;spacingLeft=0;spacingRight=0;verticalAlign=middle;html=1;labelBackgroundColor=#ffffff;rounded=0;" parent="a82_juw0TD2ykU31_FT8-29" source="a82_juw0TD2ykU31_FT8-35" target="a82_juw0TD2ykU31_FT8-36" edge="1">
          <mxGeometry relative="1" as="geometry">
            <mxPoint as="offset" />
            <mxPoint x="516.5699999999999" y="1013.08" as="sourcePoint" />
            <mxPoint x="76.57" y="3.0799999999999983" as="targetPoint" />
          </mxGeometry>
        </mxCell>
        <mxCell id="a82_juw0TD2ykU31_FT8-39" style="vsdxID=62;edgeStyle=none;startArrow=none;endArrow=none;startSize=5;endSize=9;strokeColor=#000000;spacingTop=0;spacingBottom=0;spacingLeft=0;spacingRight=0;verticalAlign=middle;html=1;labelBackgroundColor=#ffffff;rounded=0;" parent="a82_juw0TD2ykU31_FT8-29" source="a82_juw0TD2ykU31_FT8-37" target="a82_juw0TD2ykU31_FT8-36" edge="1">
          <mxGeometry relative="1" as="geometry">
            <mxPoint as="offset" />
            <mxPoint x="602" y="1010" as="sourcePoint" />
            <mxPoint x="162" as="targetPoint" />
          </mxGeometry>
        </mxCell>
        <mxCell id="a82_juw0TD2ykU31_FT8-31" value="&lt;font style=&quot;font-size: 11px ; font-family: &amp;quot;calibri&amp;quot; ; color: #000000 ; direction: ltr ; letter-spacing: 0px ; line-height: 120% ; opacity: 1&quot;&gt;PIERDE&lt;br&gt;&lt;/font&gt;" style="verticalAlign=middle;align=center;vsdxID=1;fillColor=#FFFFFF;gradientColor=none;shape=stencil(tVLREoIgEPwaHnEQxsl3s/9gEpSJwDko7e+DsEkze2l627vdu5uFRaxyHe8FosR5sCcxqMZ3iO0Rpcp0ApQPCLEasUpaEC3Yi2lS3fOojOhsr3HDmObyMtsVcYqS29Qh5FEfklwrM5OXeUa/yjkcAwfr7TDpiyTfXvjkMR+Vw2A998qaBac5tAKHU1hq3i4oNwjRr9ofvayt/+Rk+yX/4iWA159KpXWKxJx/z0Bopfyw+g4=);dashed=1;strokeColor=#000000;strokeWidth=3;spacingTop=-1;spacingBottom=-1;spacingLeft=-1;spacingRight=-1;labelBackgroundColor=none;rounded=0;html=1;whiteSpace=wrap;" parent="1" vertex="1">
          <mxGeometry x="-385" y="-720" width="80" height="30" as="geometry" />
        </mxCell>
        <mxCell id="a82_juw0TD2ykU31_FT8-32" style="vsdxID=57;edgeStyle=none;startArrow=none;endArrow=block;startSize=5;endSize=9;strokeColor=#000000;spacingTop=0;spacingBottom=0;spacingLeft=0;spacingRight=0;verticalAlign=middle;html=1;labelBackgroundColor=#ffffff;rounded=0;" parent="1" source="ZhGPCTu5Iyny0ZlqSRic-4" target="a82_juw0TD2ykU31_FT8-31" edge="1">
          <mxGeometry relative="1" as="geometry">
            <mxPoint as="offset" />
            <mxPoint x="-442" y="-690" as="sourcePoint" />
            <mxPoint x="-442" y="-690" as="targetPoint" />
          </mxGeometry>
        </mxCell>
        <mxCell id="a82_juw0TD2ykU31_FT8-33" style="vsdxID=57;edgeStyle=none;startArrow=none;endArrow=block;startSize=5;endSize=9;strokeColor=#000000;spacingTop=0;spacingBottom=0;spacingLeft=0;spacingRight=0;verticalAlign=middle;html=1;labelBackgroundColor=#ffffff;rounded=0;" parent="1" source="a82_juw0TD2ykU31_FT8-31" target="ZhGPCTu5Iyny0ZlqSRic-116" edge="1">
          <mxGeometry relative="1" as="geometry">
            <mxPoint as="offset" />
            <mxPoint x="-345" y="-800" as="sourcePoint" />
            <mxPoint x="-345" y="-800" as="targetPoint" />
          </mxGeometry>
        </mxCell>
        <mxCell id="a82_juw0TD2ykU31_FT8-34" style="vsdxID=59;edgeStyle=none;startArrow=none;endArrow=open;startSize=5;endSize=2;strokeWidth=4;strokeColor=#CDCDCD;spacingTop=0;spacingBottom=0;spacingLeft=0;spacingRight=0;verticalAlign=middle;html=1;labelBackgroundColor=#ffffff;rounded=0;exitX=0.531;exitY=0.974;exitDx=0;exitDy=0;exitPerimeter=0;" parent="1" source="a82_juw0TD2ykU31_FT8-29" target="a82_juw0TD2ykU31_FT8-31" edge="1">
          <mxGeometry relative="1" as="geometry">
            <mxPoint as="offset" />
            <Array as="points" />
            <mxPoint x="-390" y="-870" as="sourcePoint" />
            <mxPoint x="-310" y="-870" as="targetPoint" />
          </mxGeometry>
        </mxCell>
        <mxCell id="a82_juw0TD2ykU31_FT8-64" value="SI" style="edgeLabel;html=1;align=center;verticalAlign=middle;resizable=0;points=[];" parent="a82_juw0TD2ykU31_FT8-34" connectable="0" vertex="1">
          <mxGeometry x="0.1414" y="3" relative="1" as="geometry">
            <mxPoint as="offset" />
          </mxGeometry>
        </mxCell>
        <mxCell id="a82_juw0TD2ykU31_FT8-60" value="&lt;font style=&quot;font-size: 11px ; font-family: &amp;quot;calibri&amp;quot; ; color: #000000 ; direction: ltr ; letter-spacing: 0px ; line-height: 120% ; opacity: 1&quot;&gt;PRODUCE&lt;br&gt;&lt;/font&gt;" style="verticalAlign=middle;align=center;vsdxID=1;fillColor=#FFFFFF;gradientColor=none;shape=stencil(tVLREoIgEPwaHnEQxsl3s/9gEpSJwDko7e+DsEkze2l627vdu5uFRaxyHe8FosR5sCcxqMZ3iO0Rpcp0ApQPCLEasUpaEC3Yi2lS3fOojOhsr3HDmObyMtsVcYqS29Qh5FEfklwrM5OXeUa/yjkcAwfr7TDpiyTfXvjkMR+Vw2A998qaBac5tAKHU1hq3i4oNwjRr9ofvayt/+Rk+yX/4iWA159KpXWKxJx/z0Bopfyw+g4=);dashed=1;strokeColor=#000000;strokeWidth=3;spacingTop=-1;spacingBottom=-1;spacingLeft=-1;spacingRight=-1;labelBackgroundColor=none;rounded=0;html=1;whiteSpace=wrap;" parent="1" vertex="1">
          <mxGeometry x="-132" y="-510" width="80" height="30" as="geometry" />
        </mxCell>
        <mxCell id="a82_juw0TD2ykU31_FT8-62" style="vsdxID=57;edgeStyle=none;startArrow=none;endArrow=block;startSize=5;endSize=9;strokeColor=#000000;spacingTop=0;spacingBottom=0;spacingLeft=0;spacingRight=0;verticalAlign=middle;html=1;labelBackgroundColor=#ffffff;rounded=0;" parent="1" source="ZhGPCTu5Iyny0ZlqSRic-5" target="a82_juw0TD2ykU31_FT8-60" edge="1">
          <mxGeometry relative="1" as="geometry">
            <mxPoint as="offset" />
            <mxPoint x="-149" y="-480" as="sourcePoint" />
            <mxPoint x="-149" y="-400" as="targetPoint" />
          </mxGeometry>
        </mxCell>
        <mxCell id="a82_juw0TD2ykU31_FT8-63" style="vsdxID=59;edgeStyle=none;startArrow=none;endArrow=open;startSize=5;endSize=2;strokeWidth=4;strokeColor=#CDCDCD;spacingTop=0;spacingBottom=0;spacingLeft=0;spacingRight=0;verticalAlign=middle;html=1;labelBackgroundColor=#ffffff;rounded=0;" parent="1" source="ZhGPCTu5Iyny0ZlqSRic-37" target="a82_juw0TD2ykU31_FT8-60" edge="1">
          <mxGeometry relative="1" as="geometry">
            <mxPoint as="offset" />
            <Array as="points" />
            <mxPoint x="-60" y="-400" as="sourcePoint" />
            <mxPoint x="20" y="-400" as="targetPoint" />
          </mxGeometry>
        </mxCell>
        <mxCell id="a82_juw0TD2ykU31_FT8-67" style="vsdxID=57;edgeStyle=none;startArrow=none;endArrow=block;startSize=5;endSize=9;strokeColor=#000000;spacingTop=0;spacingBottom=0;spacingLeft=0;spacingRight=0;verticalAlign=middle;html=1;labelBackgroundColor=#ffffff;rounded=0;" parent="1" source="203xu0XrpAFpmtI-5cuE-13" target="203xu0XrpAFpmtI-5cuE-38" edge="1">
          <mxGeometry relative="1" as="geometry">
            <mxPoint as="offset" />
            <mxPoint x="-820" y="-722.5" as="sourcePoint" />
            <mxPoint x="-780" y="-710" as="targetPoint" />
          </mxGeometry>
        </mxCell>
        <mxCell id="a82_juw0TD2ykU31_FT8-71" value="6" style="vsdxID=51;fillColor=#FFFFFF;gradientColor=none;shape=stencil(vVHLDsIgEPwajiQI6RfU+h8bu22JCGRB2/69kG1iazx58DazM/vIjjBtmiCi0CplCjecbZ8nYc5Ca+snJJsLEqYTph0C4Ujh4XvmEaqzont41gkL96naodXKrGF6YSfQtUi0OXXDVlqPfJNP6usotUhYbJIUMmQb/GGrAxpRljVycDBuc1hKM2LclX8/7H9nFfB+82Cd45T2+mcspcSRmu4F);labelBackgroundColor=none;rounded=0;html=1;whiteSpace=wrap;" parent="1" vertex="1">
          <mxGeometry x="159.5" y="-545" width="45" height="40" as="geometry" />
        </mxCell>
        <mxCell id="a82_juw0TD2ykU31_FT8-72" style="vsdxID=57;edgeStyle=none;startArrow=none;endArrow=block;startSize=5;endSize=9;strokeColor=#000000;spacingTop=0;spacingBottom=0;spacingLeft=0;spacingRight=0;verticalAlign=middle;html=1;labelBackgroundColor=#ffffff;rounded=0;entryX=0.33;entryY=0.044;entryDx=0;entryDy=0;entryPerimeter=0;" parent="1" source="a82_juw0TD2ykU31_FT8-71" target="ZhGPCTu5Iyny0ZlqSRic-136" edge="1">
          <mxGeometry relative="1" as="geometry">
            <mxPoint as="offset" />
            <mxPoint x="-34" y="-565" as="sourcePoint" />
            <mxPoint x="-34" y="-565" as="targetPoint" />
          </mxGeometry>
        </mxCell>
        <mxCell id="a82_juw0TD2ykU31_FT8-73" value="&lt;font style=&quot;font-size:11px;font-family:Calibri;color:#000000;direction:ltr;letter-spacing:0px;line-height:120%;opacity:1&quot;&gt;COORDENADA&lt;br&gt;&lt;/font&gt;" style="verticalAlign=middle;align=center;vsdxID=7;fillColor=#FFFFFF;gradientColor=none;shape=stencil(nZBLDoAgDERP0z3SIyjew0SURgSD+Lu9kMZoXLhwN9O+tukAlrNpJg1SzDH4QW/URgNYgZTkjA4UkwJUgGXng+6DX1zLfmoymdXo17xh5zmRJ6Q42BWCfc2oJfdAr+Yv+AP9Cb7OJ3H/2JG1HNGz/84klThPVCc=);strokeColor=#000000;spacingTop=-1;spacingBottom=-1;spacingLeft=-1;spacingRight=-1;labelBackgroundColor=none;rounded=0;html=1;whiteSpace=wrap;" parent="1" vertex="1">
          <mxGeometry x="-112.75" y="-110" width="82" height="30" as="geometry" />
        </mxCell>
        <mxCell id="a82_juw0TD2ykU31_FT8-74" value="&lt;font style=&quot;font-size: 11px ; font-family: &amp;quot;calibri&amp;quot; ; color: #000000 ; direction: ltr ; letter-spacing: 0px ; line-height: 120% ; opacity: 1&quot;&gt;TIENE&lt;br&gt;&lt;/font&gt;" style="verticalAlign=middle;align=center;vsdxID=2;fillColor=#FFFFFF;gradientColor=none;shape=stencil(tVLREoIgEPwaHnEQxsl3s/9gEpSJwDko7e+DsEkze2l627vdu5uFRaxyHe8FosR5sCcxqMZ3iO0Rpcp0ApQPCLEasUpaEC3Yi2lS3fOojOhsr3HDmObyMtsVcYqS29Qh5FEfklwrM5OXeUa/yjkcAwfr7TDpiyTfXvjkMR+Vw2A998qaBac5tAKHU1hq3i4oNwjRr9ofvayt/+Rk+yX/4iWA159KpXWKxJx/z0Bopfyw+g4=);strokeColor=#000000;spacingTop=-1;spacingBottom=-1;spacingLeft=-1;spacingRight=-1;labelBackgroundColor=none;rounded=0;html=1;whiteSpace=wrap;" parent="1" vertex="1">
          <mxGeometry x="-139" y="35" width="80" height="30" as="geometry" />
        </mxCell>
        <mxCell id="a82_juw0TD2ykU31_FT8-75" style="vsdxID=57;edgeStyle=none;startArrow=none;endArrow=block;startSize=5;endSize=9;strokeColor=#000000;spacingTop=0;spacingBottom=0;spacingLeft=0;spacingRight=0;verticalAlign=middle;html=1;labelBackgroundColor=#ffffff;rounded=0;" parent="1" source="3d_Hws1QxchP5DV1Z6rh-1" target="a82_juw0TD2ykU31_FT8-74" edge="1">
          <mxGeometry relative="1" as="geometry">
            <mxPoint as="offset" />
            <mxPoint x="-199.75" y="29" as="sourcePoint" />
            <mxPoint x="-199.75" y="29" as="targetPoint" />
          </mxGeometry>
        </mxCell>
        <mxCell id="a82_juw0TD2ykU31_FT8-76" style="vsdxID=57;edgeStyle=none;startArrow=none;endArrow=block;startSize=5;endSize=9;strokeColor=#000000;spacingTop=0;spacingBottom=0;spacingLeft=0;spacingRight=0;verticalAlign=middle;html=1;labelBackgroundColor=#ffffff;rounded=0;" parent="1" source="a82_juw0TD2ykU31_FT8-74" target="a82_juw0TD2ykU31_FT8-73" edge="1">
          <mxGeometry relative="1" as="geometry">
            <mxPoint as="offset" />
            <mxPoint x="-162.75" y="-45" as="sourcePoint" />
            <mxPoint x="-162.75" y="-45" as="targetPoint" />
          </mxGeometry>
        </mxCell>
        <mxCell id="a82_juw0TD2ykU31_FT8-78" style="vsdxID=57;edgeStyle=none;startArrow=none;endArrow=block;startSize=5;endSize=9;strokeColor=#000000;spacingTop=0;spacingBottom=0;spacingLeft=0;spacingRight=0;verticalAlign=middle;html=1;labelBackgroundColor=#ffffff;rounded=0;" parent="1" source="a82_juw0TD2ykU31_FT8-80" target="ZhGPCTu5Iyny0ZlqSRic-19" edge="1">
          <mxGeometry relative="1" as="geometry">
            <mxPoint as="offset" />
            <mxPoint x="-39" y="-80" as="sourcePoint" />
            <mxPoint x="-56.875" y="-30" as="targetPoint" />
          </mxGeometry>
        </mxCell>
        <mxCell id="a82_juw0TD2ykU31_FT8-79" style="vsdxID=57;edgeStyle=none;startArrow=none;endArrow=block;startSize=5;endSize=9;strokeColor=#000000;spacingTop=0;spacingBottom=0;spacingLeft=0;spacingRight=0;verticalAlign=middle;html=1;labelBackgroundColor=#ffffff;rounded=0;" parent="1" source="a82_juw0TD2ykU31_FT8-73" target="a82_juw0TD2ykU31_FT8-80" edge="1">
          <mxGeometry relative="1" as="geometry">
            <mxPoint as="offset" />
            <mxPoint x="-50" y="-10" as="sourcePoint" />
            <mxPoint x="-70" y="80" as="targetPoint" />
          </mxGeometry>
        </mxCell>
        <mxCell id="a82_juw0TD2ykU31_FT8-80" value="&lt;font style=&quot;font-size: 11px ; font-family: &amp;quot;calibri&amp;quot; ; color: #000000 ; direction: ltr ; letter-spacing: 0px ; line-height: 120% ; opacity: 1&quot;&gt;ESPECIFICA&lt;br&gt;&lt;/font&gt;" style="verticalAlign=middle;align=center;vsdxID=1;fillColor=#FFFFFF;gradientColor=none;shape=stencil(tVLREoIgEPwaHnEQxsl3s/9gEpSJwDko7e+DsEkze2l627vdu5uFRaxyHe8FosR5sCcxqMZ3iO0Rpcp0ApQPCLEasUpaEC3Yi2lS3fOojOhsr3HDmObyMtsVcYqS29Qh5FEfklwrM5OXeUa/yjkcAwfr7TDpiyTfXvjkMR+Vw2A998qaBac5tAKHU1hq3i4oNwjRr9ofvayt/+Rk+yX/4iWA159KpXWKxJx/z0Bopfyw+g4=);dashed=1;strokeColor=#000000;strokeWidth=3;spacingTop=-1;spacingBottom=-1;spacingLeft=-1;spacingRight=-1;labelBackgroundColor=none;rounded=0;html=1;whiteSpace=wrap;" parent="1" vertex="1">
          <mxGeometry x="-133" y="-180" width="80" height="30" as="geometry" />
        </mxCell>
        <mxCell id="a82_juw0TD2ykU31_FT8-82" style="vsdxID=57;edgeStyle=none;startArrow=none;endArrow=block;startSize=5;endSize=9;strokeColor=#000000;spacingTop=0;spacingBottom=0;spacingLeft=0;spacingRight=0;verticalAlign=middle;html=1;labelBackgroundColor=#ffffff;rounded=0;" parent="1" source="203xu0XrpAFpmtI-5cuE-42" target="ZhGPCTu5Iyny0ZlqSRic-17" edge="1">
          <mxGeometry relative="1" as="geometry">
            <mxPoint as="offset" />
            <mxPoint x="-270.25000000000045" y="-500" as="sourcePoint" />
            <mxPoint x="-265" y="-390" as="targetPoint" />
          </mxGeometry>
        </mxCell>
        <mxCell id="203xu0XrpAFpmtI-5cuE-1" value="&lt;font style=&quot;font-size: 11px ; font-family: &amp;quot;calibri&amp;quot; ; color: #000000 ; direction: ltr ; letter-spacing: 0px ; line-height: 120% ; opacity: 1&quot;&gt;ENCARCELA&lt;br&gt;&lt;/font&gt;" style="verticalAlign=middle;align=center;vsdxID=1;fillColor=#FFFFFF;gradientColor=none;shape=stencil(tVLREoIgEPwaHnEQxsl3s/9gEpSJwDko7e+DsEkze2l627vdu5uFRaxyHe8FosR5sCcxqMZ3iO0Rpcp0ApQPCLEasUpaEC3Yi2lS3fOojOhsr3HDmObyMtsVcYqS29Qh5FEfklwrM5OXeUa/yjkcAwfr7TDpiyTfXvjkMR+Vw2A998qaBac5tAKHU1hq3i4oNwjRr9ofvayt/+Rk+yX/4iWA159KpXWKxJx/z0Bopfyw+g4=);dashed=1;strokeColor=#000000;strokeWidth=3;spacingTop=-1;spacingBottom=-1;spacingLeft=-1;spacingRight=-1;labelBackgroundColor=none;rounded=0;html=1;whiteSpace=wrap;" parent="1" vertex="1">
          <mxGeometry x="-590" y="-595" width="80" height="30" as="geometry" />
        </mxCell>
        <mxCell id="203xu0XrpAFpmtI-5cuE-2" value="&lt;font style=&quot;font-size: 11px ; font-family: &amp;quot;calibri&amp;quot; ; color: #000000 ; direction: ltr ; letter-spacing: 0px ; line-height: 120% ; opacity: 1&quot;&gt;CORONA&lt;br&gt;&lt;/font&gt;" style="verticalAlign=middle;align=center;vsdxID=1;fillColor=#FFFFFF;gradientColor=none;shape=stencil(tVLREoIgEPwaHnEQxsl3s/9gEpSJwDko7e+DsEkze2l627vdu5uFRaxyHe8FosR5sCcxqMZ3iO0Rpcp0ApQPCLEasUpaEC3Yi2lS3fOojOhsr3HDmObyMtsVcYqS29Qh5FEfklwrM5OXeUa/yjkcAwfr7TDpiyTfXvjkMR+Vw2A998qaBac5tAKHU1hq3i4oNwjRr9ofvayt/+Rk+yX/4iWA159KpXWKxJx/z0Bopfyw+g4=);dashed=1;strokeColor=#000000;strokeWidth=3;spacingTop=-1;spacingBottom=-1;spacingLeft=-1;spacingRight=-1;labelBackgroundColor=none;rounded=0;html=1;whiteSpace=wrap;" parent="1" vertex="1">
          <mxGeometry x="-500" y="-565" width="80" height="30" as="geometry" />
        </mxCell>
        <mxCell id="203xu0XrpAFpmtI-5cuE-6" style="vsdxID=57;edgeStyle=none;startArrow=none;endArrow=block;startSize=5;endSize=9;strokeColor=#000000;spacingTop=0;spacingBottom=0;spacingLeft=0;spacingRight=0;verticalAlign=middle;html=1;labelBackgroundColor=#ffffff;rounded=0;entryX=0.544;entryY=-0.1;entryDx=0;entryDy=0;entryPerimeter=0;" parent="1" source="ZhGPCTu5Iyny0ZlqSRic-4" target="203xu0XrpAFpmtI-5cuE-2" edge="1">
          <mxGeometry relative="1" as="geometry">
            <mxPoint as="offset" />
            <mxPoint x="-487.5" y="-630" as="sourcePoint" />
            <mxPoint x="-487.5" y="-550" as="targetPoint" />
          </mxGeometry>
        </mxCell>
        <mxCell id="203xu0XrpAFpmtI-5cuE-7" style="vsdxID=57;edgeStyle=none;startArrow=none;endArrow=block;startSize=5;endSize=9;strokeColor=#000000;spacingTop=0;spacingBottom=0;spacingLeft=0;spacingRight=0;verticalAlign=middle;html=1;labelBackgroundColor=#ffffff;rounded=0;entryX=0.625;entryY=0.023;entryDx=0;entryDy=0;entryPerimeter=0;" parent="1" source="ZhGPCTu5Iyny0ZlqSRic-4" target="203xu0XrpAFpmtI-5cuE-1" edge="1">
          <mxGeometry relative="1" as="geometry">
            <mxPoint as="offset" />
            <mxPoint x="-487.5" y="-630" as="sourcePoint" />
            <mxPoint x="-487.5" y="-550" as="targetPoint" />
          </mxGeometry>
        </mxCell>
        <mxCell id="203xu0XrpAFpmtI-5cuE-8" style="vsdxID=57;edgeStyle=none;startArrow=none;endArrow=block;startSize=5;endSize=9;strokeColor=#000000;spacingTop=0;spacingBottom=0;spacingLeft=0;spacingRight=0;verticalAlign=middle;html=1;labelBackgroundColor=#ffffff;rounded=0;" parent="1" source="203xu0XrpAFpmtI-5cuE-1" target="ZhGPCTu5Iyny0ZlqSRic-7" edge="1">
          <mxGeometry relative="1" as="geometry">
            <mxPoint as="offset" />
            <mxPoint x="-510" y="-430" as="sourcePoint" />
            <mxPoint x="-510" y="-350" as="targetPoint" />
          </mxGeometry>
        </mxCell>
        <mxCell id="203xu0XrpAFpmtI-5cuE-9" style="vsdxID=57;edgeStyle=none;startArrow=none;endArrow=block;startSize=5;endSize=9;strokeColor=#000000;spacingTop=0;spacingBottom=0;spacingLeft=0;spacingRight=0;verticalAlign=middle;html=1;labelBackgroundColor=#ffffff;rounded=0;entryX=0.691;entryY=0.042;entryDx=0;entryDy=0;entryPerimeter=0;" parent="1" source="203xu0XrpAFpmtI-5cuE-2" target="ZhGPCTu5Iyny0ZlqSRic-7" edge="1">
          <mxGeometry relative="1" as="geometry">
            <mxPoint as="offset" />
            <mxPoint x="-408" y="-470" as="sourcePoint" />
            <mxPoint x="-470" y="-360" as="targetPoint" />
          </mxGeometry>
        </mxCell>
        <mxCell id="203xu0XrpAFpmtI-5cuE-13" value="&lt;font style=&quot;font-size:11px;font-family:Calibri;color:#000000;direction:ltr;letter-spacing:0px;line-height:120%;opacity:1&quot;&gt;JUGADOR&lt;br&gt;&lt;/font&gt;" style="verticalAlign=middle;align=center;vsdxID=7;fillColor=#FFFFFF;gradientColor=none;shape=stencil(nZBLDoAgDERP0z3SIyjew0SURgSD+Lu9kMZoXLhwN9O+tukAlrNpJg1SzDH4QW/URgNYgZTkjA4UkwJUgGXng+6DX1zLfmoymdXo17xh5zmRJ6Q42BWCfc2oJfdAr+Yv+AP9Cb7OJ3H/2JG1HNGz/84klThPVCc=);strokeColor=#000000;spacingTop=-1;spacingBottom=-1;spacingLeft=-1;spacingRight=-1;labelBackgroundColor=none;rounded=0;html=1;whiteSpace=wrap;" parent="1" vertex="1">
          <mxGeometry x="-740" y="-760" width="82" height="30" as="geometry" />
        </mxCell>
        <mxCell id="203xu0XrpAFpmtI-5cuE-14" value="&lt;font style=&quot;font-size:11px;font-family:Calibri;color:#000000;direction:ltr;letter-spacing:0px;line-height:120%;opacity:1&quot;&gt;INACTIVO&lt;br&gt;&lt;/font&gt;" style="verticalAlign=middle;align=center;vsdxID=7;fillColor=#FFFFFF;gradientColor=none;shape=stencil(nZBLDoAgDERP0z3SIyjew0SURgSD+Lu9kMZoXLhwN9O+tukAlrNpJg1SzDH4QW/URgNYgZTkjA4UkwJUgGXng+6DX1zLfmoymdXo17xh5zmRJ6Q42BWCfc2oJfdAr+Yv+AP9Cb7OJ3H/2JG1HNGz/84klThPVCc=);strokeColor=#000000;spacingTop=-1;spacingBottom=-1;spacingLeft=-1;spacingRight=-1;labelBackgroundColor=none;rounded=0;html=1;whiteSpace=wrap;" parent="1" vertex="1">
          <mxGeometry x="-622" y="-840" width="82" height="30" as="geometry" />
        </mxCell>
        <mxCell id="203xu0XrpAFpmtI-5cuE-15" value="&lt;font style=&quot;font-size: 11px ; font-family: &amp;quot;calibri&amp;quot; ; color: #000000 ; direction: ltr ; letter-spacing: 0px ; line-height: 120% ; opacity: 1&quot;&gt;ES&lt;br&gt;&lt;/font&gt;" style="verticalAlign=middle;align=center;vsdxID=2;fillColor=#FFFFFF;gradientColor=none;shape=stencil(tVLREoIgEPwaHnEQxsl3s/9gEpSJwDko7e+DsEkze2l627vdu5uFRaxyHe8FosR5sCcxqMZ3iO0Rpcp0ApQPCLEasUpaEC3Yi2lS3fOojOhsr3HDmObyMtsVcYqS29Qh5FEfklwrM5OXeUa/yjkcAwfr7TDpiyTfXvjkMR+Vw2A998qaBac5tAKHU1hq3i4oNwjRr9ofvayt/+Rk+yX/4iWA159KpXWKxJx/z0Bopfyw+g4=);strokeColor=#000000;spacingTop=-1;spacingBottom=-1;spacingLeft=-1;spacingRight=-1;labelBackgroundColor=none;rounded=0;html=1;whiteSpace=wrap;" parent="1" vertex="1">
          <mxGeometry x="-622" y="-770" width="80" height="30" as="geometry" />
        </mxCell>
        <mxCell id="203xu0XrpAFpmtI-5cuE-17" style="vsdxID=57;edgeStyle=none;startArrow=none;endArrow=block;startSize=5;endSize=9;strokeColor=#000000;spacingTop=0;spacingBottom=0;spacingLeft=0;spacingRight=0;verticalAlign=middle;html=1;labelBackgroundColor=#ffffff;rounded=0;" parent="1" source="203xu0XrpAFpmtI-5cuE-15" target="203xu0XrpAFpmtI-5cuE-14" edge="1">
          <mxGeometry relative="1" as="geometry">
            <mxPoint as="offset" />
            <mxPoint x="-592" y="-850" as="sourcePoint" />
            <mxPoint x="-592" y="-850" as="targetPoint" />
          </mxGeometry>
        </mxCell>
        <mxCell id="203xu0XrpAFpmtI-5cuE-26" style="vsdxID=57;edgeStyle=none;startArrow=none;endArrow=block;startSize=5;endSize=9;strokeColor=#000000;spacingTop=0;spacingBottom=0;spacingLeft=0;spacingRight=0;verticalAlign=middle;html=1;labelBackgroundColor=#ffffff;rounded=0;" parent="1" source="203xu0XrpAFpmtI-5cuE-13" target="203xu0XrpAFpmtI-5cuE-15" edge="1">
          <mxGeometry relative="1" as="geometry">
            <mxPoint as="offset" />
            <mxPoint x="-667" y="-795" as="sourcePoint" />
            <mxPoint x="-587" y="-795" as="targetPoint" />
          </mxGeometry>
        </mxCell>
        <mxCell id="203xu0XrpAFpmtI-5cuE-27" style="vsdxID=57;edgeStyle=none;startArrow=none;endArrow=block;startSize=5;endSize=9;strokeColor=#000000;spacingTop=0;spacingBottom=0;spacingLeft=0;spacingRight=0;verticalAlign=middle;html=1;labelBackgroundColor=#ffffff;rounded=0;" parent="1" source="203xu0XrpAFpmtI-5cuE-15" target="ZhGPCTu5Iyny0ZlqSRic-4" edge="1">
          <mxGeometry relative="1" as="geometry">
            <mxPoint as="offset" />
            <mxPoint x="-565" y="-755" as="sourcePoint" />
            <mxPoint x="-485" y="-755" as="targetPoint" />
          </mxGeometry>
        </mxCell>
        <mxCell id="203xu0XrpAFpmtI-5cuE-28" style="vsdxID=57;edgeStyle=none;startArrow=none;endArrow=block;startSize=5;endSize=9;strokeColor=#000000;spacingTop=0;spacingBottom=0;spacingLeft=0;spacingRight=0;verticalAlign=middle;html=1;labelBackgroundColor=#ffffff;rounded=0;exitX=0.568;exitY=-0.108;exitDx=0;exitDy=0;exitPerimeter=0;" parent="1" source="203xu0XrpAFpmtI-5cuE-47" target="203xu0XrpAFpmtI-5cuE-29" edge="1">
          <mxGeometry relative="1" as="geometry">
            <mxPoint as="offset" />
            <mxPoint x="-580" y="-940" as="sourcePoint" />
            <mxPoint x="-581" y="-920" as="targetPoint" />
          </mxGeometry>
        </mxCell>
        <mxCell id="203xu0XrpAFpmtI-5cuE-29" value="1" style="vsdxID=51;fillColor=#FFFFFF;gradientColor=none;shape=stencil(vVHLDsIgEPwajiQI6RfU+h8bu22JCGRB2/69kG1iazx58DazM/vIjjBtmiCi0CplCjecbZ8nYc5Ca+snJJsLEqYTph0C4Ujh4XvmEaqzont41gkL96naodXKrGF6YSfQtUi0OXXDVlqPfJNP6usotUhYbJIUMmQb/GGrAxpRljVycDBuc1hKM2LclX8/7H9nFfB+82Cd45T2+mcspcSRmu4F);labelBackgroundColor=none;rounded=0;html=1;whiteSpace=wrap;" parent="1" vertex="1">
          <mxGeometry x="-541.75" y="-960" width="45" height="40" as="geometry" />
        </mxCell>
        <mxCell id="203xu0XrpAFpmtI-5cuE-31" value="&lt;font style=&quot;font-size: 11px ; font-family: &amp;quot;calibri&amp;quot; ; color: #000000 ; direction: ltr ; letter-spacing: 0px ; line-height: 120% ; opacity: 1&quot;&gt;TIENE&lt;br&gt;&lt;/font&gt;" style="verticalAlign=middle;align=center;vsdxID=2;fillColor=#FFFFFF;gradientColor=none;shape=stencil(tVLREoIgEPwaHnEQxsl3s/9gEpSJwDko7e+DsEkze2l627vdu5uFRaxyHe8FosR5sCcxqMZ3iO0Rpcp0ApQPCLEasUpaEC3Yi2lS3fOojOhsr3HDmObyMtsVcYqS29Qh5FEfklwrM5OXeUa/yjkcAwfr7TDpiyTfXvjkMR+Vw2A998qaBac5tAKHU1hq3i4oNwjRr9ofvayt/+Rk+yX/4iWA159KpXWKxJx/z0Bopfyw+g4=);strokeColor=#000000;spacingTop=-1;spacingBottom=-1;spacingLeft=-1;spacingRight=-1;labelBackgroundColor=none;rounded=0;html=1;whiteSpace=wrap;" parent="1" vertex="1">
          <mxGeometry x="-498" y="-800" width="80" height="30" as="geometry" />
        </mxCell>
        <mxCell id="203xu0XrpAFpmtI-5cuE-32" style="vsdxID=57;edgeStyle=none;startArrow=none;endArrow=block;startSize=5;endSize=9;strokeColor=#000000;spacingTop=0;spacingBottom=0;spacingLeft=0;spacingRight=0;verticalAlign=middle;html=1;labelBackgroundColor=#ffffff;rounded=0;" parent="1" source="ZhGPCTu5Iyny0ZlqSRic-4" target="203xu0XrpAFpmtI-5cuE-31" edge="1">
          <mxGeometry relative="1" as="geometry">
            <mxPoint as="offset" />
            <mxPoint x="-708.89" y="-780" as="sourcePoint" />
            <mxPoint x="-708.89" y="-700" as="targetPoint" />
          </mxGeometry>
        </mxCell>
        <mxCell id="203xu0XrpAFpmtI-5cuE-34" value="5" style="vsdxID=51;fillColor=#FFFFFF;gradientColor=none;shape=stencil(vVHLDsIgEPwajiQI6RfU+h8bu22JCGRB2/69kG1iazx58DazM/vIjjBtmiCi0CplCjecbZ8nYc5Ca+snJJsLEqYTph0C4Ujh4XvmEaqzont41gkL96naodXKrGF6YSfQtUi0OXXDVlqPfJNP6usotUhYbJIUMmQb/GGrAxpRljVycDBuc1hKM2LclX8/7H9nFfB+82Cd45T2+mcspcSRmu4F);labelBackgroundColor=none;rounded=0;html=1;whiteSpace=wrap;" parent="1" vertex="1">
          <mxGeometry x="-677.5" y="-940" width="45" height="40" as="geometry" />
        </mxCell>
        <mxCell id="203xu0XrpAFpmtI-5cuE-35" style="vsdxID=57;edgeStyle=none;startArrow=none;endArrow=block;startSize=5;endSize=9;strokeColor=#000000;spacingTop=0;spacingBottom=0;spacingLeft=0;spacingRight=0;verticalAlign=middle;html=1;labelBackgroundColor=#ffffff;rounded=0;" parent="1" source="203xu0XrpAFpmtI-5cuE-13" target="ZhGPCTu5Iyny0ZlqSRic-6" edge="1">
          <mxGeometry relative="1" as="geometry">
            <mxPoint as="offset" />
            <mxPoint x="-699" y="-730" as="sourcePoint" />
            <mxPoint x="-699" y="-650" as="targetPoint" />
          </mxGeometry>
        </mxCell>
        <mxCell id="203xu0XrpAFpmtI-5cuE-37" value="3" style="vsdxID=51;fillColor=#FFFFFF;gradientColor=none;shape=stencil(vVHLDsIgEPwajiQI6RfU+h8bu22JCGRB2/69kG1iazx58DazM/vIjjBtmiCi0CplCjecbZ8nYc5Ca+snJJsLEqYTph0C4Ujh4XvmEaqzont41gkL96naodXKrGF6YSfQtUi0OXXDVlqPfJNP6usotUhYbJIUMmQb/GGrAxpRljVycDBuc1hKM2LclX8/7H9nFfB+82Cd45T2+mcspcSRmu4F);labelBackgroundColor=none;rounded=0;html=1;whiteSpace=wrap;" parent="1" vertex="1">
          <mxGeometry x="-865" y="-880" width="45" height="40" as="geometry" />
        </mxCell>
        <mxCell id="203xu0XrpAFpmtI-5cuE-38" value="&lt;font style=&quot;font-size: 11px ; font-family: &amp;quot;calibri&amp;quot; ; color: #000000 ; direction: ltr ; letter-spacing: 0px ; line-height: 120% ; opacity: 1&quot;&gt;ESCOGE&lt;br&gt;&lt;/font&gt;" style="verticalAlign=middle;align=center;vsdxID=1;fillColor=#FFFFFF;gradientColor=none;shape=stencil(tVLREoIgEPwaHnEQxsl3s/9gEpSJwDko7e+DsEkze2l627vdu5uFRaxyHe8FosR5sCcxqMZ3iO0Rpcp0ApQPCLEasUpaEC3Yi2lS3fOojOhsr3HDmObyMtsVcYqS29Qh5FEfklwrM5OXeUa/yjkcAwfr7TDpiyTfXvjkMR+Vw2A998qaBac5tAKHU1hq3i4oNwjRr9ofvayt/+Rk+yX/4iWA159KpXWKxJx/z0Bopfyw+g4=);dashed=1;strokeColor=#000000;strokeWidth=3;spacingTop=-1;spacingBottom=-1;spacingLeft=-1;spacingRight=-1;labelBackgroundColor=none;rounded=0;html=1;whiteSpace=wrap;" parent="1" vertex="1">
          <mxGeometry x="-860" y="-790" width="80" height="30" as="geometry" />
        </mxCell>
        <mxCell id="203xu0XrpAFpmtI-5cuE-40" style="vsdxID=57;edgeStyle=none;startArrow=none;endArrow=block;startSize=5;endSize=9;strokeColor=#000000;spacingTop=0;spacingBottom=0;spacingLeft=0;spacingRight=0;verticalAlign=middle;html=1;labelBackgroundColor=#ffffff;rounded=0;" parent="1" source="203xu0XrpAFpmtI-5cuE-38" target="203xu0XrpAFpmtI-5cuE-37" edge="1">
          <mxGeometry relative="1" as="geometry">
            <mxPoint as="offset" />
            <mxPoint x="-820" y="-870" as="sourcePoint" />
            <mxPoint x="-820" y="-870" as="targetPoint" />
          </mxGeometry>
        </mxCell>
        <mxCell id="203xu0XrpAFpmtI-5cuE-41" style="vsdxID=57;edgeStyle=none;startArrow=none;endArrow=block;startSize=5;endSize=9;strokeColor=#000000;spacingTop=0;spacingBottom=0;spacingLeft=0;spacingRight=0;verticalAlign=middle;html=1;labelBackgroundColor=#ffffff;rounded=0;" parent="1" source="203xu0XrpAFpmtI-5cuE-38" target="203xu0XrpAFpmtI-5cuE-43" edge="1">
          <mxGeometry relative="1" as="geometry">
            <mxPoint as="offset" />
            <mxPoint x="-940" y="-775" as="sourcePoint" />
            <mxPoint x="-940" y="-775" as="targetPoint" />
          </mxGeometry>
        </mxCell>
        <mxCell id="203xu0XrpAFpmtI-5cuE-42" value="3" style="vsdxID=51;fillColor=#FFFFFF;gradientColor=none;shape=stencil(vVHLDsIgEPwajiQI6RfU+h8bu22JCGRB2/69kG1iazx58DazM/vIjjBtmiCi0CplCjecbZ8nYc5Ca+snJJsLEqYTph0C4Ujh4XvmEaqzont41gkL96naodXKrGF6YSfQtUi0OXXDVlqPfJNP6usotUhYbJIUMmQb/GGrAxpRljVycDBuc1hKM2LclX8/7H9nFfB+82Cd45T2+mcspcSRmu4F);labelBackgroundColor=none;rounded=0;html=1;whiteSpace=wrap;" parent="1" vertex="1">
          <mxGeometry x="-235" y="-480" width="45" height="40" as="geometry" />
        </mxCell>
        <mxCell id="203xu0XrpAFpmtI-5cuE-43" value="6" style="vsdxID=51;fillColor=#FFFFFF;gradientColor=none;shape=stencil(vVHLDsIgEPwajiQI6RfU+h8bu22JCGRB2/69kG1iazx58DazM/vIjjBtmiCi0CplCjecbZ8nYc5Ca+snJJsLEqYTph0C4Ujh4XvmEaqzont41gkL96naodXKrGF6YSfQtUi0OXXDVlqPfJNP6usotUhYbJIUMmQb/GGrAxpRljVycDBuc1hKM2LclX8/7H9nFfB+82Cd45T2+mcspcSRmu4F);labelBackgroundColor=none;rounded=0;html=1;whiteSpace=wrap;" parent="1" vertex="1">
          <mxGeometry x="-930" y="-835" width="45" height="40" as="geometry" />
        </mxCell>
        <mxCell id="203xu0XrpAFpmtI-5cuE-44" value="1" style="vsdxID=51;fillColor=#FFFFFF;gradientColor=none;shape=stencil(vVHLDsIgEPwajiQI6RfU+h8bu22JCGRB2/69kG1iazx58DazM/vIjjBtmiCi0CplCjecbZ8nYc5Ca+snJJsLEqYTph0C4Ujh4XvmEaqzont41gkL96naodXKrGF6YSfQtUi0OXXDVlqPfJNP6usotUhYbJIUMmQb/GGrAxpRljVycDBuc1hKM2LclX8/7H9nFfB+82Cd45T2+mcspcSRmu4F);labelBackgroundColor=none;rounded=0;html=1;whiteSpace=wrap;" parent="1" vertex="1">
          <mxGeometry x="-75.75" y="-825" width="45" height="40" as="geometry" />
        </mxCell>
        <mxCell id="203xu0XrpAFpmtI-5cuE-46" style="vsdxID=57;edgeStyle=none;startArrow=none;endArrow=block;startSize=5;endSize=9;strokeColor=#000000;spacingTop=0;spacingBottom=0;spacingLeft=0;spacingRight=0;verticalAlign=middle;html=1;labelBackgroundColor=#ffffff;rounded=0;" parent="1" source="203xu0XrpAFpmtI-5cuE-44" target="ZhGPCTu5Iyny0ZlqSRic-116" edge="1">
          <mxGeometry relative="1" as="geometry">
            <mxPoint as="offset" />
            <mxPoint x="-82" y="-820" as="sourcePoint" />
            <mxPoint x="-82" y="-820" as="targetPoint" />
          </mxGeometry>
        </mxCell>
        <mxCell id="203xu0XrpAFpmtI-5cuE-47" value="&lt;font style=&quot;font-size: 11px ; font-family: &amp;quot;calibri&amp;quot; ; color: #000000 ; direction: ltr ; letter-spacing: 0px ; line-height: 120% ; opacity: 1&quot;&gt;ESPERA&lt;br&gt;&lt;/font&gt;" style="verticalAlign=middle;align=center;vsdxID=1;fillColor=#FFFFFF;gradientColor=none;shape=stencil(tVLREoIgEPwaHnEQxsl3s/9gEpSJwDko7e+DsEkze2l627vdu5uFRaxyHe8FosR5sCcxqMZ3iO0Rpcp0ApQPCLEasUpaEC3Yi2lS3fOojOhsr3HDmObyMtsVcYqS29Qh5FEfklwrM5OXeUa/yjkcAwfr7TDpiyTfXvjkMR+Vw2A998qaBac5tAKHU1hq3i4oNwjRr9ofvayt/+Rk+yX/4iWA159KpXWKxJx/z0Bopfyw+g4=);dashed=1;strokeColor=#000000;strokeWidth=3;spacingTop=-1;spacingBottom=-1;spacingLeft=-1;spacingRight=-1;labelBackgroundColor=none;rounded=0;html=1;whiteSpace=wrap;" parent="1" vertex="1">
          <mxGeometry x="-600" y="-900" width="80" height="30" as="geometry" />
        </mxCell>
        <mxCell id="203xu0XrpAFpmtI-5cuE-49" style="vsdxID=57;edgeStyle=none;startArrow=none;endArrow=block;startSize=5;endSize=9;strokeColor=#000000;spacingTop=0;spacingBottom=0;spacingLeft=0;spacingRight=0;verticalAlign=middle;html=1;labelBackgroundColor=#ffffff;rounded=0;" parent="1" source="203xu0XrpAFpmtI-5cuE-14" target="203xu0XrpAFpmtI-5cuE-47" edge="1">
          <mxGeometry relative="1" as="geometry">
            <mxPoint as="offset" />
            <mxPoint x="-581" y="-920" as="sourcePoint" />
            <mxPoint x="-581" y="-920" as="targetPoint" />
          </mxGeometry>
        </mxCell>
        <mxCell id="a82_juw0TD2ykU31_FT8-12" style="vsdxID=59;edgeStyle=none;startArrow=none;endArrow=open;startSize=5;endSize=2;strokeWidth=4;strokeColor=#CDCDCD;spacingTop=0;spacingBottom=0;spacingLeft=0;spacingRight=0;verticalAlign=middle;html=1;labelBackgroundColor=#ffffff;rounded=0;" parent="1" source="ZhGPCTu5Iyny0ZlqSRic-178" target="ZhGPCTu5Iyny0ZlqSRic-96" edge="1">
          <mxGeometry relative="1" as="geometry">
            <mxPoint as="offset" />
            <Array as="points" />
            <mxPoint x="-809.89" y="-280" as="sourcePoint" />
            <mxPoint x="-729.89" y="-280" as="targetPoint" />
          </mxGeometry>
        </mxCell>
        <mxCell id="a82_juw0TD2ykU31_FT8-13" value="SI" style="edgeLabel;html=1;align=center;verticalAlign=middle;resizable=0;points=[];" parent="a82_juw0TD2ykU31_FT8-12" connectable="0" vertex="1">
          <mxGeometry x="0.1117" y="-4" relative="1" as="geometry">
            <mxPoint as="offset" />
          </mxGeometry>
        </mxCell>
        <mxCell id="203xu0XrpAFpmtI-5cuE-50" value="8" style="vsdxID=51;fillColor=#FFFFFF;gradientColor=none;shape=stencil(vVHLDsIgEPwajiQI6RfU+h8bu22JCGRB2/69kG1iazx58DazM/vIjjBtmiCi0CplCjecbZ8nYc5Ca+snJJsLEqYTph0C4Ujh4XvmEaqzont41gkL96naodXKrGF6YSfQtUi0OXXDVlqPfJNP6usotUhYbJIUMmQb/GGrAxpRljVycDBuc1hKM2LclX8/7H9nFfB+82Cd45T2+mcspcSRmu4F);labelBackgroundColor=none;rounded=0;html=1;whiteSpace=wrap;" parent="1" vertex="1">
          <mxGeometry x="-541.75" y="-315" width="45" height="40" as="geometry" />
        </mxCell>
        <mxCell id="203xu0XrpAFpmtI-5cuE-51" style="vsdxID=57;edgeStyle=none;startArrow=none;endArrow=block;startSize=5;endSize=9;strokeColor=#000000;spacingTop=0;spacingBottom=0;spacingLeft=0;spacingRight=0;verticalAlign=middle;html=1;labelBackgroundColor=#ffffff;rounded=0;entryX=0.36;entryY=-0.01;entryDx=0;entryDy=0;entryPerimeter=0;" parent="1" source="ZhGPCTu5Iyny0ZlqSRic-7" target="203xu0XrpAFpmtI-5cuE-52" edge="1">
          <mxGeometry relative="1" as="geometry">
            <mxPoint as="offset" />
            <mxPoint x="-600" y="-355" as="sourcePoint" />
            <mxPoint x="-490" y="-310" as="targetPoint" />
          </mxGeometry>
        </mxCell>
        <mxCell id="203xu0XrpAFpmtI-5cuE-52" value="UBICADA EN" style="verticalAlign=middle;align=center;vsdxID=1;fillColor=#FFFFFF;gradientColor=none;shape=stencil(tVLREoIgEPwaHnEQxsl3s/9gEpSJwDko7e+DsEkze2l627vdu5uFRaxyHe8FosR5sCcxqMZ3iO0Rpcp0ApQPCLEasUpaEC3Yi2lS3fOojOhsr3HDmObyMtsVcYqS29Qh5FEfklwrM5OXeUa/yjkcAwfr7TDpiyTfXvjkMR+Vw2A998qaBac5tAKHU1hq3i4oNwjRr9ofvayt/+Rk+yX/4iWA159KpXWKxJx/z0Bopfyw+g4=);dashed=1;strokeColor=#000000;strokeWidth=3;spacingTop=-1;spacingBottom=-1;spacingLeft=-1;spacingRight=-1;labelBackgroundColor=none;rounded=0;html=1;whiteSpace=wrap;fontSize=11;" parent="1" vertex="1">
          <mxGeometry x="-515" y="-365" width="80" height="30" as="geometry" />
        </mxCell>
        <mxCell id="203xu0XrpAFpmtI-5cuE-54" style="vsdxID=57;edgeStyle=none;startArrow=none;endArrow=block;startSize=5;endSize=9;strokeColor=#000000;spacingTop=0;spacingBottom=0;spacingLeft=0;spacingRight=0;verticalAlign=middle;html=1;labelBackgroundColor=#ffffff;rounded=0;" parent="1" source="203xu0XrpAFpmtI-5cuE-52" target="203xu0XrpAFpmtI-5cuE-50" edge="1">
          <mxGeometry relative="1" as="geometry">
            <mxPoint as="offset" />
            <mxPoint x="-578" y="-275" as="sourcePoint" />
            <mxPoint x="-578" y="-275" as="targetPoint" />
          </mxGeometry>
        </mxCell>
        <mxCell id="203xu0XrpAFpmtI-5cuE-55" value="8" style="vsdxID=51;fillColor=#FFFFFF;gradientColor=none;shape=stencil(vVHLDsIgEPwajiQI6RfU+h8bu22JCGRB2/69kG1iazx58DazM/vIjjBtmiCi0CplCjecbZ8nYc5Ca+snJJsLEqYTph0C4Ujh4XvmEaqzont41gkL96naodXKrGF6YSfQtUi0OXXDVlqPfJNP6usotUhYbJIUMmQb/GGrAxpRljVycDBuc1hKM2LclX8/7H9nFfB+82Cd45T2+mcspcSRmu4F);labelBackgroundColor=none;rounded=0;html=1;whiteSpace=wrap;" parent="1" vertex="1">
          <mxGeometry x="-515" y="80" width="45" height="40" as="geometry" />
        </mxCell>
        <mxCell id="203xu0XrpAFpmtI-5cuE-56" style="vsdxID=57;edgeStyle=none;startArrow=none;endArrow=block;startSize=5;endSize=9;strokeColor=#000000;spacingTop=0;spacingBottom=0;spacingLeft=0;spacingRight=0;verticalAlign=middle;html=1;labelBackgroundColor=#ffffff;rounded=0;" parent="1" source="203xu0XrpAFpmtI-5cuE-55" target="ZhGPCTu5Iyny0ZlqSRic-1" edge="1">
          <mxGeometry relative="1" as="geometry">
            <mxPoint as="offset" />
            <mxPoint x="-535.75" as="sourcePoint" />
            <mxPoint x="-535.75" as="targetPoint" />
          </mxGeometry>
        </mxCell>
        <mxCell id="e6ZOl5odj2JOFOmkNz3M-1" value="4" style="vsdxID=51;fillColor=#FFFFFF;gradientColor=none;shape=stencil(vVHLDsIgEPwajiQI6RfU+h8bu22JCGRB2/69kG1iazx58DazM/vIjjBtmiCi0CplCjecbZ8nYc5Ca+snJJsLEqYTph0C4Ujh4XvmEaqzont41gkL96naodXKrGF6YSfQtUi0OXXDVlqPfJNP6usotUhYbJIUMmQb/GGrAxpRljVycDBuc1hKM2LclX8/7H9nFfB+82Cd45T2+mcspcSRmu4F);labelBackgroundColor=none;rounded=0;html=1;whiteSpace=wrap;" parent="1" vertex="1">
          <mxGeometry x="-10" y="-785" width="45" height="40" as="geometry" />
        </mxCell>
        <mxCell id="0BtqvbByxqbC6ZA3XULC-1" value="&lt;font style=&quot;font-size: 11px ; font-family: &amp;quot;calibri&amp;quot; ; color: #000000 ; direction: ltr ; letter-spacing: 0px ; line-height: 120% ; opacity: 1&quot;&gt;TIENE&lt;br&gt;&lt;/font&gt;" style="verticalAlign=middle;align=center;vsdxID=2;fillColor=#FFFFFF;gradientColor=none;shape=stencil(tVLREoIgEPwaHnEQxsl3s/9gEpSJwDko7e+DsEkze2l627vdu5uFRaxyHe8FosR5sCcxqMZ3iO0Rpcp0ApQPCLEasUpaEC3Yi2lS3fOojOhsr3HDmObyMtsVcYqS29Qh5FEfklwrM5OXeUa/yjkcAwfr7TDpiyTfXvjkMR+Vw2A998qaBac5tAKHU1hq3i4oNwjRr9ofvayt/+Rk+yX/4iWA159KpXWKxJx/z0Bopfyw+g4=);strokeColor=#000000;spacingTop=-1;spacingBottom=-1;spacingLeft=-1;spacingRight=-1;labelBackgroundColor=none;rounded=0;html=1;whiteSpace=wrap;" parent="1" vertex="1">
          <mxGeometry x="-270" y="-130" width="80" height="30" as="geometry" />
        </mxCell>
        <mxCell id="0BtqvbByxqbC6ZA3XULC-2" style="vsdxID=57;edgeStyle=none;startArrow=none;endArrow=block;startSize=5;endSize=9;strokeColor=#000000;spacingTop=0;spacingBottom=0;spacingLeft=0;spacingRight=0;verticalAlign=middle;html=1;labelBackgroundColor=#ffffff;rounded=0;" parent="1" source="ZhGPCTu5Iyny0ZlqSRic-11" target="0BtqvbByxqbC6ZA3XULC-1" edge="1">
          <mxGeometry relative="1" as="geometry">
            <mxPoint as="offset" />
            <mxPoint x="-235" y="-36" as="sourcePoint" />
            <mxPoint x="-213" y="-80" as="targetPoint" />
          </mxGeometry>
        </mxCell>
        <mxCell id="0BtqvbByxqbC6ZA3XULC-3" style="vsdxID=57;edgeStyle=none;startArrow=none;endArrow=block;startSize=5;endSize=9;strokeColor=#000000;spacingTop=0;spacingBottom=0;spacingLeft=0;spacingRight=0;verticalAlign=middle;html=1;labelBackgroundColor=#ffffff;rounded=0;" parent="1" source="ZhGPCTu5Iyny0ZlqSRic-12" target="0BtqvbByxqbC6ZA3XULC-18" edge="1">
          <mxGeometry relative="1" as="geometry">
            <mxPoint as="offset" />
            <mxPoint x="-268" y="-89" as="sourcePoint" />
            <mxPoint x="-220" y="-60" as="targetPoint" />
          </mxGeometry>
        </mxCell>
        <mxCell id="0BtqvbByxqbC6ZA3XULC-4" style="vsdxID=57;edgeStyle=none;startArrow=none;endArrow=block;startSize=5;endSize=9;strokeColor=#000000;spacingTop=0;spacingBottom=0;spacingLeft=0;spacingRight=0;verticalAlign=middle;html=1;labelBackgroundColor=#ffffff;rounded=0;" parent="1" source="0BtqvbByxqbC6ZA3XULC-1" target="a82_juw0TD2ykU31_FT8-73" edge="1">
          <mxGeometry relative="1" as="geometry">
            <mxPoint as="offset" />
            <mxPoint x="-258" y="-79" as="sourcePoint" />
            <mxPoint x="-194" y="-57" as="targetPoint" />
          </mxGeometry>
        </mxCell>
        <mxCell id="0BtqvbByxqbC6ZA3XULC-5" style="vsdxID=57;edgeStyle=none;startArrow=none;endArrow=block;startSize=5;endSize=9;strokeColor=#000000;spacingTop=0;spacingBottom=0;spacingLeft=0;spacingRight=0;verticalAlign=middle;html=1;labelBackgroundColor=#ffffff;rounded=0;" parent="1" source="ZhGPCTu5Iyny0ZlqSRic-21" target="0BtqvbByxqbC6ZA3XULC-6" edge="1">
          <mxGeometry relative="1" as="geometry">
            <mxPoint as="offset" />
            <mxPoint x="-248" y="-69" as="sourcePoint" />
            <mxPoint x="-370" y="-400" as="targetPoint" />
          </mxGeometry>
        </mxCell>
        <mxCell id="0BtqvbByxqbC6ZA3XULC-6" value="7" style="vsdxID=51;fillColor=#FFFFFF;gradientColor=none;shape=stencil(vVHLDsIgEPwajiQI6RfU+h8bu22JCGRB2/69kG1iazx58DazM/vIjjBtmiCi0CplCjecbZ8nYc5Ca+snJJsLEqYTph0C4Ujh4XvmEaqzont41gkL96naodXKrGF6YSfQtUi0OXXDVlqPfJNP6usotUhYbJIUMmQb/GGrAxpRljVycDBuc1hKM2LclX8/7H9nFfB+82Cd45T2+mcspcSRmu4F);labelBackgroundColor=none;rounded=0;html=1;whiteSpace=wrap;" parent="1" vertex="1">
          <mxGeometry x="-330" y="-465" width="45" height="40" as="geometry" />
        </mxCell>
        <mxCell id="0BtqvbByxqbC6ZA3XULC-7" value="7" style="vsdxID=51;fillColor=#FFFFFF;gradientColor=none;shape=stencil(vVHLDsIgEPwajiQI6RfU+h8bu22JCGRB2/69kG1iazx58DazM/vIjjBtmiCi0CplCjecbZ8nYc5Ca+snJJsLEqYTph0C4Ujh4XvmEaqzont41gkL96naodXKrGF6YSfQtUi0OXXDVlqPfJNP6usotUhYbJIUMmQb/GGrAxpRljVycDBuc1hKM2LclX8/7H9nFfB+82Cd45T2+mcspcSRmu4F);labelBackgroundColor=none;rounded=0;html=1;whiteSpace=wrap;" parent="1" vertex="1">
          <mxGeometry x="-428" y="-160" width="45" height="40" as="geometry" />
        </mxCell>
        <mxCell id="0BtqvbByxqbC6ZA3XULC-8" style="vsdxID=57;edgeStyle=none;startArrow=none;endArrow=block;startSize=5;endSize=9;strokeColor=#000000;spacingTop=0;spacingBottom=0;spacingLeft=0;spacingRight=0;verticalAlign=middle;html=1;labelBackgroundColor=#ffffff;rounded=0;" parent="1" source="0BtqvbByxqbC6ZA3XULC-7" target="ZhGPCTu5Iyny0ZlqSRic-11" edge="1">
          <mxGeometry relative="1" as="geometry">
            <mxPoint as="offset" />
            <mxPoint x="-373.75" y="-120" as="sourcePoint" />
            <mxPoint x="-373.75" y="-220" as="targetPoint" />
          </mxGeometry>
        </mxCell>
        <mxCell id="0BtqvbByxqbC6ZA3XULC-9" value="&lt;font style=&quot;font-size:11px;font-family:Calibri;color:#000000;direction:ltr;letter-spacing:0px;line-height:120%;opacity:1&quot;&gt;TIPO&lt;br&gt;&lt;/font&gt;" style="verticalAlign=middle;align=center;vsdxID=7;fillColor=#FFFFFF;gradientColor=none;shape=stencil(nZBLDoAgDERP0z3SIyjew0SURgSD+Lu9kMZoXLhwN9O+tukAlrNpJg1SzDH4QW/URgNYgZTkjA4UkwJUgGXng+6DX1zLfmoymdXo17xh5zmRJ6Q42BWCfc2oJfdAr+Yv+AP9Cb7OJ3H/2JG1HNGz/84klThPVCc=);strokeColor=#000000;spacingTop=-1;spacingBottom=-1;spacingLeft=-1;spacingRight=-1;labelBackgroundColor=none;rounded=0;html=1;whiteSpace=wrap;" parent="1" vertex="1">
          <mxGeometry x="-336" y="190" width="82" height="30" as="geometry" />
        </mxCell>
        <mxCell id="0BtqvbByxqbC6ZA3XULC-12" value="&lt;font style=&quot;font-size: 11px ; font-family: &amp;quot;calibri&amp;quot; ; color: #000000 ; direction: ltr ; letter-spacing: 0px ; line-height: 120% ; opacity: 1&quot;&gt;ES&lt;br&gt;&lt;/font&gt;" style="verticalAlign=middle;align=center;vsdxID=2;fillColor=#FFFFFF;gradientColor=none;shape=stencil(tVLREoIgEPwaHnEQxsl3s/9gEpSJwDko7e+DsEkze2l627vdu5uFRaxyHe8FosR5sCcxqMZ3iO0Rpcp0ApQPCLEasUpaEC3Yi2lS3fOojOhsr3HDmObyMtsVcYqS29Qh5FEfklwrM5OXeUa/yjkcAwfr7TDpiyTfXvjkMR+Vw2A998qaBac5tAKHU1hq3i4oNwjRr9ofvayt/+Rk+yX/4iWA159KpXWKxJx/z0Bopfyw+g4=);strokeColor=#000000;spacingTop=-1;spacingBottom=-1;spacingLeft=-1;spacingRight=-1;labelBackgroundColor=none;rounded=0;html=1;whiteSpace=wrap;" parent="1" vertex="1">
          <mxGeometry x="-354.75" y="250" width="80" height="30" as="geometry" />
        </mxCell>
        <mxCell id="0BtqvbByxqbC6ZA3XULC-13" style="vsdxID=57;edgeStyle=none;startArrow=none;endArrow=block;startSize=5;endSize=9;strokeColor=#000000;spacingTop=0;spacingBottom=0;spacingLeft=0;spacingRight=0;verticalAlign=middle;html=1;labelBackgroundColor=#ffffff;rounded=0;" parent="1" source="0BtqvbByxqbC6ZA3XULC-9" target="0BtqvbByxqbC6ZA3XULC-12" edge="1">
          <mxGeometry relative="1" as="geometry">
            <mxPoint as="offset" />
            <mxPoint x="-195" y="228" as="sourcePoint" />
            <mxPoint x="-268" y="228" as="targetPoint" />
          </mxGeometry>
        </mxCell>
        <mxCell id="0BtqvbByxqbC6ZA3XULC-14" style="vsdxID=57;edgeStyle=none;startArrow=none;endArrow=block;startSize=5;endSize=9;strokeColor=#000000;spacingTop=0;spacingBottom=0;spacingLeft=0;spacingRight=0;verticalAlign=middle;html=1;labelBackgroundColor=#ffffff;rounded=0;" parent="1" source="0BtqvbByxqbC6ZA3XULC-12" target="3d_Hws1QxchP5DV1Z6rh-8" edge="1">
          <mxGeometry relative="1" as="geometry">
            <mxPoint as="offset" />
            <mxPoint x="-185" y="238" as="sourcePoint" />
            <mxPoint x="-258" y="238" as="targetPoint" />
          </mxGeometry>
        </mxCell>
        <mxCell id="0BtqvbByxqbC6ZA3XULC-15" style="vsdxID=57;edgeStyle=none;startArrow=none;endArrow=block;startSize=5;endSize=9;strokeColor=#000000;spacingTop=0;spacingBottom=0;spacingLeft=0;spacingRight=0;verticalAlign=middle;html=1;labelBackgroundColor=#ffffff;rounded=0;" parent="1" source="0BtqvbByxqbC6ZA3XULC-12" target="3d_Hws1QxchP5DV1Z6rh-6" edge="1">
          <mxGeometry relative="1" as="geometry">
            <mxPoint as="offset" />
            <mxPoint x="-175" y="248" as="sourcePoint" />
            <mxPoint x="-248" y="248" as="targetPoint" />
          </mxGeometry>
        </mxCell>
        <mxCell id="0BtqvbByxqbC6ZA3XULC-16" style="vsdxID=57;edgeStyle=none;startArrow=none;endArrow=block;startSize=5;endSize=9;strokeColor=#000000;spacingTop=0;spacingBottom=0;spacingLeft=0;spacingRight=0;verticalAlign=middle;html=1;labelBackgroundColor=#ffffff;rounded=0;" parent="1" source="0BtqvbByxqbC6ZA3XULC-12" target="3d_Hws1QxchP5DV1Z6rh-7" edge="1">
          <mxGeometry relative="1" as="geometry">
            <mxPoint as="offset" />
            <mxPoint x="-165" y="258" as="sourcePoint" />
            <mxPoint x="-238" y="258" as="targetPoint" />
          </mxGeometry>
        </mxCell>
        <mxCell id="0BtqvbByxqbC6ZA3XULC-17" style="vsdxID=57;edgeStyle=none;startArrow=none;endArrow=block;startSize=5;endSize=9;strokeColor=#000000;spacingTop=0;spacingBottom=0;spacingLeft=0;spacingRight=0;verticalAlign=middle;html=1;labelBackgroundColor=#ffffff;rounded=0;" parent="1" source="0BtqvbByxqbC6ZA3XULC-12" target="DCNwNrw-yuZkW3MHIDjY-22" edge="1">
          <mxGeometry relative="1" as="geometry">
            <mxPoint as="offset" />
            <mxPoint x="-155" y="268" as="sourcePoint" />
            <mxPoint x="-228" y="268" as="targetPoint" />
          </mxGeometry>
        </mxCell>
        <mxCell id="0BtqvbByxqbC6ZA3XULC-18" value="&lt;font style=&quot;font-size: 11px ; font-family: &amp;quot;calibri&amp;quot; ; color: #000000 ; direction: ltr ; letter-spacing: 0px ; line-height: 120% ; opacity: 1&quot;&gt;TIENE&lt;br&gt;&lt;/font&gt;" style="verticalAlign=middle;align=center;vsdxID=2;fillColor=#FFFFFF;gradientColor=none;shape=stencil(tVLREoIgEPwaHnEQxsl3s/9gEpSJwDko7e+DsEkze2l627vdu5uFRaxyHe8FosR5sCcxqMZ3iO0Rpcp0ApQPCLEasUpaEC3Yi2lS3fOojOhsr3HDmObyMtsVcYqS29Qh5FEfklwrM5OXeUa/yjkcAwfr7TDpiyTfXvjkMR+Vw2A998qaBac5tAKHU1hq3i4oNwjRr9ofvayt/+Rk+yX/4iWA159KpXWKxJx/z0Bopfyw+g4=);strokeColor=#000000;spacingTop=-1;spacingBottom=-1;spacingLeft=-1;spacingRight=-1;labelBackgroundColor=none;rounded=0;html=1;whiteSpace=wrap;" parent="1" vertex="1">
          <mxGeometry x="-233" y="-65" width="80" height="30" as="geometry" />
        </mxCell>
        <mxCell id="0BtqvbByxqbC6ZA3XULC-21" style="vsdxID=57;edgeStyle=none;startArrow=none;endArrow=block;startSize=5;endSize=9;strokeColor=#000000;spacingTop=0;spacingBottom=0;spacingLeft=0;spacingRight=0;verticalAlign=middle;html=1;labelBackgroundColor=#ffffff;rounded=0;" parent="1" source="0BtqvbByxqbC6ZA3XULC-18" target="a82_juw0TD2ykU31_FT8-73" edge="1">
          <mxGeometry relative="1" as="geometry">
            <mxPoint as="offset" />
            <mxPoint x="-195" y="-111" as="sourcePoint" />
            <mxPoint x="-135" y="-90" as="targetPoint" />
          </mxGeometry>
        </mxCell>
        <mxCell id="0BtqvbByxqbC6ZA3XULC-22" style="vsdxID=57;edgeStyle=none;startArrow=none;endArrow=block;startSize=5;endSize=9;strokeColor=#000000;spacingTop=0;spacingBottom=0;spacingLeft=0;spacingRight=0;verticalAlign=middle;html=1;labelBackgroundColor=#ffffff;rounded=0;" parent="1" source="0BtqvbByxqbC6ZA3XULC-1" target="0BtqvbByxqbC6ZA3XULC-24" edge="1">
          <mxGeometry relative="1" as="geometry">
            <mxPoint as="offset" />
            <mxPoint x="-185" y="-101" as="sourcePoint" />
            <mxPoint x="-125" y="-80" as="targetPoint" />
          </mxGeometry>
        </mxCell>
        <mxCell id="0BtqvbByxqbC6ZA3XULC-23" style="vsdxID=57;edgeStyle=none;startArrow=none;endArrow=block;startSize=5;endSize=9;strokeColor=#000000;spacingTop=0;spacingBottom=0;spacingLeft=0;spacingRight=0;verticalAlign=middle;html=1;labelBackgroundColor=#ffffff;rounded=0;" parent="1" source="ZhGPCTu5Iyny0ZlqSRic-21" target="0BtqvbByxqbC6ZA3XULC-30" edge="1">
          <mxGeometry relative="1" as="geometry">
            <mxPoint as="offset" />
            <mxPoint x="-175" y="-91" as="sourcePoint" />
            <mxPoint x="-210" y="-100" as="targetPoint" />
          </mxGeometry>
        </mxCell>
        <mxCell id="0BtqvbByxqbC6ZA3XULC-24" value="9" style="vsdxID=51;fillColor=#FFFFFF;gradientColor=none;shape=stencil(vVHLDsIgEPwajiQI6RfU+h8bu22JCGRB2/69kG1iazx58DazM/vIjjBtmiCi0CplCjecbZ8nYc5Ca+snJJsLEqYTph0C4Ujh4XvmEaqzont41gkL96naodXKrGF6YSfQtUi0OXXDVlqPfJNP6usotUhYbJIUMmQb/GGrAxpRljVycDBuc1hKM2LclX8/7H9nFfB+82Cd45T2+mcspcSRmu4F);labelBackgroundColor=none;rounded=0;html=1;whiteSpace=wrap;" parent="1" vertex="1">
          <mxGeometry x="-299" y="-190" width="45" height="40" as="geometry" />
        </mxCell>
        <mxCell id="0BtqvbByxqbC6ZA3XULC-25" value="9" style="vsdxID=51;fillColor=#FFFFFF;gradientColor=none;shape=stencil(vVHLDsIgEPwajiQI6RfU+h8bu22JCGRB2/69kG1iazx58DazM/vIjjBtmiCi0CplCjecbZ8nYc5Ca+snJJsLEqYTph0C4Ujh4XvmEaqzont41gkL96naodXKrGF6YSfQtUi0OXXDVlqPfJNP6usotUhYbJIUMmQb/GGrAxpRljVycDBuc1hKM2LclX8/7H9nFfB+82Cd45T2+mcspcSRmu4F);labelBackgroundColor=none;rounded=0;html=1;whiteSpace=wrap;" parent="1" vertex="1">
          <mxGeometry x="-595.5" y="230" width="45" height="40" as="geometry" />
        </mxCell>
        <mxCell id="0BtqvbByxqbC6ZA3XULC-26" style="vsdxID=57;edgeStyle=none;startArrow=none;endArrow=block;startSize=5;endSize=9;strokeColor=#000000;spacingTop=0;spacingBottom=0;spacingLeft=0;spacingRight=0;verticalAlign=middle;html=1;labelBackgroundColor=#ffffff;rounded=0;" parent="1" source="0BtqvbByxqbC6ZA3XULC-25" target="3d_Hws1QxchP5DV1Z6rh-6" edge="1">
          <mxGeometry relative="1" as="geometry">
            <mxPoint as="offset" />
            <mxPoint x="-363" y="199" as="sourcePoint" />
            <mxPoint x="-410" y="190" as="targetPoint" />
          </mxGeometry>
        </mxCell>
        <mxCell id="0BtqvbByxqbC6ZA3XULC-28" style="vsdxID=57;edgeStyle=none;startArrow=none;endArrow=block;startSize=5;endSize=9;strokeColor=#000000;spacingTop=0;spacingBottom=0;spacingLeft=0;spacingRight=0;verticalAlign=middle;html=1;labelBackgroundColor=#ffffff;rounded=0;" parent="1" source="0BtqvbByxqbC6ZA3XULC-31" target="3d_Hws1QxchP5DV1Z6rh-7" edge="1">
          <mxGeometry relative="1" as="geometry">
            <mxPoint as="offset" />
            <mxPoint x="-237.75" y="369" as="sourcePoint" />
            <mxPoint x="-284.75" y="360" as="targetPoint" />
          </mxGeometry>
        </mxCell>
        <mxCell id="0BtqvbByxqbC6ZA3XULC-30" value="10" style="vsdxID=51;fillColor=#FFFFFF;gradientColor=none;shape=stencil(vVHLDsIgEPwajiQI6RfU+h8bu22JCGRB2/69kG1iazx58DazM/vIjjBtmiCi0CplCjecbZ8nYc5Ca+snJJsLEqYTph0C4Ujh4XvmEaqzont41gkL96naodXKrGF6YSfQtUi0OXXDVlqPfJNP6usotUhYbJIUMmQb/GGrAxpRljVycDBuc1hKM2LclX8/7H9nFfB+82Cd45T2+mcspcSRmu4F);labelBackgroundColor=none;rounded=0;html=1;whiteSpace=wrap;" parent="1" vertex="1">
          <mxGeometry x="-400.75" y="-440" width="45" height="40" as="geometry" />
        </mxCell>
        <mxCell id="0BtqvbByxqbC6ZA3XULC-31" value="10" style="vsdxID=51;fillColor=#FFFFFF;gradientColor=none;shape=stencil(vVHLDsIgEPwajiQI6RfU+h8bu22JCGRB2/69kG1iazx58DazM/vIjjBtmiCi0CplCjecbZ8nYc5Ca+snJJsLEqYTph0C4Ujh4XvmEaqzont41gkL96naodXKrGF6YSfQtUi0OXXDVlqPfJNP6usotUhYbJIUMmQb/GGrAxpRljVycDBuc1hKM2LclX8/7H9nFfB+82Cd45T2+mcspcSRmu4F);labelBackgroundColor=none;rounded=0;html=1;whiteSpace=wrap;" parent="1" vertex="1">
          <mxGeometry x="-555" y="290" width="45" height="40" as="geometry" />
        </mxCell>
        <mxCell id="A6ZcCyZVLG_3UMEJ_GDC-1" value="&lt;font style=&quot;font-size:11px;font-family:Calibri;color:#000000;direction:ltr;letter-spacing:0px;line-height:120%;opacity:1&quot;&gt;ORDEN&lt;br&gt;&lt;/font&gt;" style="verticalAlign=middle;align=center;vsdxID=7;shape=stencil(nZBLDoAgDERP0z3SIyjew0SURgSD+Lu9kMZoXLhwN9O+tukAlrNpJg1SzDH4QW/URgNYgZTkjA4UkwJUgGXng+6DX1zLfmoymdXo17xh5zmRJ6Q42BWCfc2oJfdAr+Yv+AP9Cb7OJ3H/2JG1HNGz/84klThPVCc=);spacingTop=-1;spacingBottom=-1;spacingLeft=-1;spacingRight=-1;labelBackgroundColor=none;rounded=0;html=1;whiteSpace=wrap;" parent="1" vertex="1">
          <mxGeometry x="-916" y="-620" width="82" height="30" as="geometry" />
        </mxCell>
        <mxCell id="A6ZcCyZVLG_3UMEJ_GDC-2" value="&lt;font style=&quot;font-size:11px;font-family:Calibri;color:#000000;direction:ltr;letter-spacing:0px;line-height:120%;opacity:1&quot;&gt;PUNTOSJUEGO&lt;br&gt;&lt;/font&gt;" style="verticalAlign=middle;align=center;vsdxID=7;shape=stencil(nZBLDoAgDERP0z3SIyjew0SURgSD+Lu9kMZoXLhwN9O+tukAlrNpJg1SzDH4QW/URgNYgZTkjA4UkwJUgGXng+6DX1zLfmoymdXo17xh5zmRJ6Q42BWCfc2oJfdAr+Yv+AP9Cb7OJ3H/2JG1HNGz/84klThPVCc=);spacingTop=-1;spacingBottom=-1;spacingLeft=-1;spacingRight=-1;labelBackgroundColor=none;rounded=0;html=1;whiteSpace=wrap;" parent="1" vertex="1">
          <mxGeometry x="-905" y="-670" width="82" height="30" as="geometry" />
        </mxCell>
        <mxCell id="A6ZcCyZVLG_3UMEJ_GDC-4" value="&lt;font style=&quot;font-size:11px;font-family:Calibri;color:#000000;direction:ltr;letter-spacing:0px;line-height:120%;opacity:1&quot;&gt;PARTIDA&lt;br&gt;&lt;/font&gt;" style="verticalAlign=middle;align=center;vsdxID=7;shape=stencil(nZBLDoAgDERP0z3SIyjew0SURgSD+Lu9kMZoXLhwN9O+tukAlrNpJg1SzDH4QW/URgNYgZTkjA4UkwJUgGXng+6DX1zLfmoymdXo17xh5zmRJ6Q42BWCfc2oJfdAr+Yv+AP9Cb7OJ3H/2JG1HNGz/84klThPVCc=);spacingTop=-1;spacingBottom=-1;spacingLeft=-1;spacingRight=-1;labelBackgroundColor=none;rounded=0;html=1;whiteSpace=wrap;" parent="1" vertex="1">
          <mxGeometry x="-802" y="-950" width="82" height="30" as="geometry" />
        </mxCell>
        <mxCell id="t8Utz6IQ3dCh28kGkk3Y-1" value="&lt;font style=&quot;font-size:11px;font-family:Calibri;color:#000000;direction:ltr;letter-spacing:0px;line-height:120%;opacity:1&quot;&gt;ESCALERA&lt;br&gt;&lt;/font&gt;" style="verticalAlign=middle;align=center;vsdxID=7;shape=stencil(nZBLDoAgDERP0z3SIyjew0SURgSD+Lu9kMZoXLhwN9O+tukAlrNpJg1SzDH4QW/URgNYgZTkjA4UkwJUgGXng+6DX1zLfmoymdXo17xh5zmRJ6Q42BWCfc2oJfdAr+Yv+AP9Cb7OJ3H/2JG1HNGz/84klThPVCc=);spacingTop=-1;spacingBottom=-1;spacingLeft=-1;spacingRight=-1;labelBackgroundColor=none;rounded=0;html=1;whiteSpace=wrap;" parent="1" vertex="1">
          <mxGeometry x="-443" y="167.5" width="70" height="35" as="geometry" />
        </mxCell>
        <mxCell id="t8Utz6IQ3dCh28kGkk3Y-2" value="&lt;font style=&quot;font-size:11px;font-family:Calibri;color:#000000;direction:ltr;letter-spacing:0px;line-height:120%;opacity:1&quot;&gt;TIRADA&lt;br&gt;&lt;/font&gt;" style="verticalAlign=middle;align=center;vsdxID=7;shape=stencil(nZBLDoAgDERP0z3SIyjew0SURgSD+Lu9kMZoXLhwN9O+tukAlrNpJg1SzDH4QW/URgNYgZTkjA4UkwJUgGXng+6DX1zLfmoymdXo17xh5zmRJ6Q42BWCfc2oJfdAr+Yv+AP9Cb7OJ3H/2JG1HNGz/84klThPVCc=);spacingTop=-1;spacingBottom=-1;spacingLeft=-1;spacingRight=-1;labelBackgroundColor=none;rounded=0;html=1;whiteSpace=wrap;" parent="1" vertex="1">
          <mxGeometry x="-907.5" y="-720" width="82" height="30" as="geometry" />
        </mxCell>
        <mxCell id="t8Utz6IQ3dCh28kGkk3Y-3" value="&lt;font style=&quot;font-size: 11px ; font-family: &amp;quot;calibri&amp;quot; ; color: #000000 ; direction: ltr ; letter-spacing: 0px ; line-height: 120% ; opacity: 1&quot;&gt;SALE&lt;br&gt;&lt;/font&gt;" style="verticalAlign=middle;align=center;vsdxID=1;shape=stencil(tVLREoIgEPwaHnEQxsl3s/9gEpSJwDko7e+DsEkze2l627vdu5uFRaxyHe8FosR5sCcxqMZ3iO0Rpcp0ApQPCLEasUpaEC3Yi2lS3fOojOhsr3HDmObyMtsVcYqS29Qh5FEfklwrM5OXeUa/yjkcAwfr7TDpiyTfXvjkMR+Vw2A998qaBac5tAKHU1hq3i4oNwjRr9ofvayt/+Rk+yX/4iWA159KpXWKxJx/z0Bopfyw+g4=);dashed=1;strokeWidth=3;spacingTop=-1;spacingBottom=-1;spacingLeft=-1;spacingRight=-1;labelBackgroundColor=none;rounded=0;html=1;whiteSpace=wrap;" parent="1" vertex="1">
          <mxGeometry x="-643" y="-420" width="80" height="30" as="geometry" />
        </mxCell>
        <mxCell id="t8Utz6IQ3dCh28kGkk3Y-4" style="vsdxID=57;edgeStyle=none;startArrow=none;endArrow=block;startSize=5;endSize=9;strokeColor=#000000;spacingTop=0;spacingBottom=0;spacingLeft=0;spacingRight=0;verticalAlign=middle;html=1;labelBackgroundColor=#ffffff;rounded=0;" parent="1" source="ZhGPCTu5Iyny0ZlqSRic-7" target="t8Utz6IQ3dCh28kGkk3Y-3" edge="1">
          <mxGeometry relative="1" as="geometry">
            <mxPoint as="offset" />
            <mxPoint x="-532" y="-555" as="sourcePoint" />
            <mxPoint x="-477" y="-445" as="targetPoint" />
          </mxGeometry>
        </mxCell>
        <mxCell id="msJrzLMMD_ussxu2mwYU-1" style="vsdxID=57;edgeStyle=none;startArrow=none;endArrow=block;startSize=5;endSize=9;strokeColor=#000000;spacingTop=0;spacingBottom=0;spacingLeft=0;spacingRight=0;verticalAlign=middle;html=1;labelBackgroundColor=#ffffff;rounded=0;" parent="1" source="ZhGPCTu5Iyny0ZlqSRic-6" target="A6ZcCyZVLG_3UMEJ_GDC-1" edge="1">
          <mxGeometry relative="1" as="geometry">
            <mxPoint as="offset" />
            <mxPoint x="-706" y="-605" as="sourcePoint" />
            <mxPoint x="-765" y="-580" as="targetPoint" />
          </mxGeometry>
        </mxCell>
        <mxCell id="msJrzLMMD_ussxu2mwYU-2" style="vsdxID=57;edgeStyle=none;startArrow=none;endArrow=block;startSize=5;endSize=9;strokeColor=#000000;spacingTop=0;spacingBottom=0;spacingLeft=0;spacingRight=0;verticalAlign=middle;html=1;labelBackgroundColor=#ffffff;rounded=0;" parent="1" source="ZhGPCTu5Iyny0ZlqSRic-6" target="A6ZcCyZVLG_3UMEJ_GDC-2" edge="1">
          <mxGeometry relative="1" as="geometry">
            <mxPoint as="offset" />
            <mxPoint x="-696" y="-595" as="sourcePoint" />
            <mxPoint x="-755" y="-570" as="targetPoint" />
          </mxGeometry>
        </mxCell>
        <mxCell id="CULUh0v67lgrJKuAHWb2-1" style="vsdxID=57;edgeStyle=none;startArrow=none;endArrow=block;startSize=5;endSize=9;strokeColor=#000000;spacingTop=0;spacingBottom=0;spacingLeft=0;spacingRight=0;verticalAlign=middle;html=1;labelBackgroundColor=#ffffff;rounded=0;" parent="1" source="0BtqvbByxqbC6ZA3XULC-12" target="t8Utz6IQ3dCh28kGkk3Y-1" edge="1">
          <mxGeometry relative="1" as="geometry">
            <mxPoint as="offset" />
            <mxPoint x="-330" y="80" as="sourcePoint" />
            <mxPoint x="-274" y="30" as="targetPoint" />
          </mxGeometry>
        </mxCell>
        <mxCell id="CULUh0v67lgrJKuAHWb2-3" style="vsdxID=57;edgeStyle=none;startArrow=none;endArrow=block;startSize=5;endSize=9;strokeColor=#000000;spacingTop=0;spacingBottom=0;spacingLeft=0;spacingRight=0;verticalAlign=middle;html=1;labelBackgroundColor=#ffffff;rounded=0;" parent="1" source="ZhGPCTu5Iyny0ZlqSRic-21" target="ZhGPCTu5Iyny0ZlqSRic-11" edge="1">
          <mxGeometry relative="1" as="geometry">
            <mxPoint as="offset" />
            <mxPoint x="-342.23039215686276" y="-160" as="sourcePoint" />
            <mxPoint x="-296" y="-260" as="targetPoint" />
          </mxGeometry>
        </mxCell>
        <mxCell id="CULUh0v67lgrJKuAHWb2-8" style="vsdxID=57;edgeStyle=none;startArrow=none;endArrow=block;startSize=5;endSize=9;strokeColor=#000000;spacingTop=0;spacingBottom=0;spacingLeft=0;spacingRight=0;verticalAlign=middle;html=1;labelBackgroundColor=#ffffff;rounded=0;" parent="1" source="ZhGPCTu5Iyny0ZlqSRic-104" target="CULUh0v67lgrJKuAHWb2-9" edge="1">
          <mxGeometry relative="1" as="geometry">
            <mxPoint as="offset" />
            <mxPoint x="-533" y="-180" as="sourcePoint" />
            <mxPoint x="-530" y="-150" as="targetPoint" />
          </mxGeometry>
        </mxCell>
        <mxCell id="CULUh0v67lgrJKuAHWb2-9" value="&lt;font style=&quot;font-size:11px;font-family:Calibri;color:#000000;direction:ltr;letter-spacing:0px;line-height:120%;opacity:1&quot;&gt;VIVO&lt;br&gt;&lt;/font&gt;" style="verticalAlign=middle;align=center;vsdxID=7;fillColor=#FFFFFF;gradientColor=none;shape=stencil(nZBLDoAgDERP0z3SIyjew0SURgSD+Lu9kMZoXLhwN9O+tukAlrNpJg1SzDH4QW/URgNYgZTkjA4UkwJUgGXng+6DX1zLfmoymdXo17xh5zmRJ6Q42BWCfc2oJfdAr+Yv+AP9Cb7OJ3H/2JG1HNGz/84klThPVCc=);strokeColor=#000000;spacingTop=-1;spacingBottom=-1;spacingLeft=-1;spacingRight=-1;labelBackgroundColor=none;rounded=0;html=1;whiteSpace=wrap;" parent="1" vertex="1">
          <mxGeometry x="-542" y="-155" width="82" height="30" as="geometry" />
        </mxCell>
        <mxCell id="CULUh0v67lgrJKuAHWb2-10" style="vsdxID=57;edgeStyle=none;startArrow=none;endArrow=block;startSize=5;endSize=9;strokeColor=#000000;spacingTop=0;spacingBottom=0;spacingLeft=0;spacingRight=0;verticalAlign=middle;html=1;labelBackgroundColor=#ffffff;rounded=0;" parent="1" source="ZhGPCTu5Iyny0ZlqSRic-21" target="CULUh0v67lgrJKuAHWb2-11" edge="1">
          <mxGeometry relative="1" as="geometry">
            <mxPoint as="offset" />
            <mxPoint x="-365" y="-290" as="sourcePoint" />
            <mxPoint x="-330" y="-200" as="targetPoint" />
          </mxGeometry>
        </mxCell>
        <mxCell id="CULUh0v67lgrJKuAHWb2-11" value="11" style="vsdxID=51;fillColor=#FFFFFF;gradientColor=none;shape=stencil(vVHLDsIgEPwajiQI6RfU+h8bu22JCGRB2/69kG1iazx58DazM/vIjjBtmiCi0CplCjecbZ8nYc5Ca+snJJsLEqYTph0C4Ujh4XvmEaqzont41gkL96naodXKrGF6YSfQtUi0OXXDVlqPfJNP6usotUhYbJIUMmQb/GGrAxpRljVycDBuc1hKM2LclX8/7H9nFfB+82Cd45T2+mcspcSRmu4F);labelBackgroundColor=none;rounded=0;html=1;whiteSpace=wrap;" parent="1" vertex="1">
          <mxGeometry x="-344" y="-225" width="45" height="40" as="geometry" />
        </mxCell>
        <mxCell id="CULUh0v67lgrJKuAHWb2-15" value="11" style="vsdxID=51;fillColor=#FFFFFF;gradientColor=none;shape=stencil(vVHLDsIgEPwajiQI6RfU+h8bu22JCGRB2/69kG1iazx58DazM/vIjjBtmiCi0CplCjecbZ8nYc5Ca+snJJsLEqYTph0C4Ujh4XvmEaqzont41gkL96naodXKrGF6YSfQtUi0OXXDVlqPfJNP6usotUhYbJIUMmQb/GGrAxpRljVycDBuc1hKM2LclX8/7H9nFfB+82Cd45T2+mcspcSRmu4F);labelBackgroundColor=none;rounded=0;html=1;whiteSpace=wrap;" parent="1" vertex="1">
          <mxGeometry x="-545.5" y="150" width="45" height="40" as="geometry" />
        </mxCell>
        <mxCell id="CULUh0v67lgrJKuAHWb2-16" style="vsdxID=57;edgeStyle=none;startArrow=none;endArrow=block;startSize=5;endSize=9;strokeColor=#000000;spacingTop=0;spacingBottom=0;spacingLeft=0;spacingRight=0;verticalAlign=middle;html=1;labelBackgroundColor=#ffffff;rounded=0;" parent="1" source="CULUh0v67lgrJKuAHWb2-15" target="t8Utz6IQ3dCh28kGkk3Y-1" edge="1">
          <mxGeometry relative="1" as="geometry">
            <mxPoint as="offset" />
            <mxPoint x="-540" y="257" as="sourcePoint" />
            <mxPoint x="-470" y="249" as="targetPoint" />
          </mxGeometry>
        </mxCell>
        <mxCell id="CULUh0v67lgrJKuAHWb2-18" style="vsdxID=57;edgeStyle=none;startArrow=none;endArrow=block;startSize=5;endSize=9;strokeColor=#000000;spacingTop=0;spacingBottom=0;spacingLeft=0;spacingRight=0;verticalAlign=middle;html=1;labelBackgroundColor=#ffffff;rounded=0;" parent="1" source="t8Utz6IQ3dCh28kGkk3Y-3" target="CULUh0v67lgrJKuAHWb2-19" edge="1">
          <mxGeometry relative="1" as="geometry">
            <mxPoint as="offset" />
            <mxPoint x="-510" y="-418" as="sourcePoint" />
            <mxPoint x="-560" y="-340" as="targetPoint" />
          </mxGeometry>
        </mxCell>
        <mxCell id="CULUh0v67lgrJKuAHWb2-19" value="12" style="vsdxID=51;fillColor=#FFFFFF;gradientColor=none;shape=stencil(vVHLDsIgEPwajiQI6RfU+h8bu22JCGRB2/69kG1iazx58DazM/vIjjBtmiCi0CplCjecbZ8nYc5Ca+snJJsLEqYTph0C4Ujh4XvmEaqzont41gkL96naodXKrGF6YSfQtUi0OXXDVlqPfJNP6usotUhYbJIUMmQb/GGrAxpRljVycDBuc1hKM2LclX8/7H9nFfB+82Cd45T2+mcspcSRmu4F);labelBackgroundColor=none;rounded=0;html=1;whiteSpace=wrap;" parent="1" vertex="1">
          <mxGeometry x="-667" y="-340" width="45" height="40" as="geometry" />
        </mxCell>
        <mxCell id="CULUh0v67lgrJKuAHWb2-21" value="12" style="vsdxID=51;fillColor=#FFFFFF;gradientColor=none;shape=stencil(vVHLDsIgEPwajiQI6RfU+h8bu22JCGRB2/69kG1iazx58DazM/vIjjBtmiCi0CplCjecbZ8nYc5Ca+snJJsLEqYTph0C4Ujh4XvmEaqzont41gkL96naodXKrGF6YSfQtUi0OXXDVlqPfJNP6usotUhYbJIUMmQb/GGrAxpRljVycDBuc1hKM2LclX8/7H9nFfB+82Cd45T2+mcspcSRmu4F);labelBackgroundColor=none;rounded=0;html=1;whiteSpace=wrap;" parent="1" vertex="1">
          <mxGeometry x="-498" y="-100" width="45" height="40" as="geometry" />
        </mxCell>
        <mxCell id="CULUh0v67lgrJKuAHWb2-22" style="vsdxID=57;edgeStyle=none;startArrow=none;endArrow=block;startSize=5;endSize=9;strokeColor=#000000;spacingTop=0;spacingBottom=0;spacingLeft=0;spacingRight=0;verticalAlign=middle;html=1;labelBackgroundColor=#ffffff;rounded=0;" parent="1" source="CULUh0v67lgrJKuAHWb2-21" target="ZhGPCTu5Iyny0ZlqSRic-11" edge="1">
          <mxGeometry relative="1" as="geometry">
            <mxPoint as="offset" />
            <mxPoint x="-377" y="-110" as="sourcePoint" />
            <mxPoint x="-332" y="-60" as="targetPoint" />
          </mxGeometry>
        </mxCell>
        <mxCell id="CULUh0v67lgrJKuAHWb2-23" style="vsdxID=57;edgeStyle=none;startArrow=none;endArrow=block;startSize=5;endSize=9;strokeColor=#000000;spacingTop=0;spacingBottom=0;spacingLeft=0;spacingRight=0;verticalAlign=middle;html=1;labelBackgroundColor=#ffffff;rounded=0;" parent="1" source="ZhGPCTu5Iyny0ZlqSRic-6" target="t8Utz6IQ3dCh28kGkk3Y-2" edge="1">
          <mxGeometry relative="1" as="geometry">
            <mxPoint as="offset" />
            <mxPoint x="-685" y="-635" as="sourcePoint" />
            <mxPoint x="-744" y="-695" as="targetPoint" />
          </mxGeometry>
        </mxCell>
        <mxCell id="CULUh0v67lgrJKuAHWb2-24" style="vsdxID=57;edgeStyle=none;startArrow=none;endArrow=block;startSize=5;endSize=9;strokeColor=#000000;spacingTop=0;spacingBottom=0;spacingLeft=0;spacingRight=0;verticalAlign=middle;html=1;labelBackgroundColor=#ffffff;rounded=0;" parent="1" source="A6ZcCyZVLG_3UMEJ_GDC-4" target="CULUh0v67lgrJKuAHWb2-25" edge="1">
          <mxGeometry relative="1" as="geometry">
            <mxPoint as="offset" />
            <mxPoint x="-487" y="90" as="sourcePoint" />
            <mxPoint x="-620" y="140" as="targetPoint" />
          </mxGeometry>
        </mxCell>
        <mxCell id="CULUh0v67lgrJKuAHWb2-25" value="&lt;font style=&quot;font-size: 11px ; font-family: &amp;quot;calibri&amp;quot; ; color: #000000 ; direction: ltr ; letter-spacing: 0px ; line-height: 120% ; opacity: 1&quot;&gt;TIENE&lt;br&gt;&lt;/font&gt;" style="verticalAlign=middle;align=center;vsdxID=2;fillColor=#FFFFFF;gradientColor=none;shape=stencil(tVLREoIgEPwaHnEQxsl3s/9gEpSJwDko7e+DsEkze2l627vdu5uFRaxyHe8FosR5sCcxqMZ3iO0Rpcp0ApQPCLEasUpaEC3Yi2lS3fOojOhsr3HDmObyMtsVcYqS29Qh5FEfklwrM5OXeUa/yjkcAwfr7TDpiyTfXvjkMR+Vw2A998qaBac5tAKHU1hq3i4oNwjRr9ofvayt/+Rk+yX/4iWA159KpXWKxJx/z0Bopfyw+g4=);strokeColor=#000000;spacingTop=-1;spacingBottom=-1;spacingLeft=-1;spacingRight=-1;labelBackgroundColor=none;rounded=0;html=1;whiteSpace=wrap;" parent="1" vertex="1">
          <mxGeometry x="-714.5" y="-1010" width="80" height="30" as="geometry" />
        </mxCell>
        <mxCell id="CULUh0v67lgrJKuAHWb2-26" value="13" style="vsdxID=51;fillColor=#FFFFFF;gradientColor=none;shape=stencil(vVHLDsIgEPwajiQI6RfU+h8bu22JCGRB2/69kG1iazx58DazM/vIjjBtmiCi0CplCjecbZ8nYc5Ca+snJJsLEqYTph0C4Ujh4XvmEaqzont41gkL96naodXKrGF6YSfQtUi0OXXDVlqPfJNP6usotUhYbJIUMmQb/GGrAxpRljVycDBuc1hKM2LclX8/7H9nFfB+82Cd45T2+mcspcSRmu4F);labelBackgroundColor=none;rounded=0;html=1;whiteSpace=wrap;" parent="1" vertex="1">
          <mxGeometry x="-820" y="-1015" width="45" height="40" as="geometry" />
        </mxCell>
        <mxCell id="CULUh0v67lgrJKuAHWb2-27" style="vsdxID=57;edgeStyle=none;startArrow=none;endArrow=block;startSize=5;endSize=9;strokeColor=#000000;spacingTop=0;spacingBottom=0;spacingLeft=0;spacingRight=0;verticalAlign=middle;html=1;labelBackgroundColor=#ffffff;rounded=0;" parent="1" source="CULUh0v67lgrJKuAHWb2-25" target="CULUh0v67lgrJKuAHWb2-26" edge="1">
          <mxGeometry relative="1" as="geometry">
            <mxPoint as="offset" />
            <mxPoint x="-1067" y="-378" as="sourcePoint" />
            <mxPoint x="-650" y="-1070" as="targetPoint" />
          </mxGeometry>
        </mxCell>
        <mxCell id="CULUh0v67lgrJKuAHWb2-28" value="&lt;font style=&quot;font-size: 11px ; font-family: &amp;quot;calibri&amp;quot; ; color: #000000 ; direction: ltr ; letter-spacing: 0px ; line-height: 120% ; opacity: 1&quot;&gt;DESARROLLA&lt;br&gt;&lt;/font&gt;" style="verticalAlign=middle;align=center;vsdxID=1;fillColor=#FFFFFF;gradientColor=none;shape=stencil(tVLREoIgEPwaHnEQxsl3s/9gEpSJwDko7e+DsEkze2l627vdu5uFRaxyHe8FosR5sCcxqMZ3iO0Rpcp0ApQPCLEasUpaEC3Yi2lS3fOojOhsr3HDmObyMtsVcYqS29Qh5FEfklwrM5OXeUa/yjkcAwfr7TDpiyTfXvjkMR+Vw2A998qaBac5tAKHU1hq3i4oNwjRr9ofvayt/+Rk+yX/4iWA159KpXWKxJx/z0Bopfyw+g4=);dashed=1;strokeColor=#000000;strokeWidth=3;spacingTop=-1;spacingBottom=-1;spacingLeft=-1;spacingRight=-1;labelBackgroundColor=none;rounded=0;html=1;whiteSpace=wrap;" parent="1" vertex="1">
          <mxGeometry x="-794.5" y="-860" width="80" height="30" as="geometry" />
        </mxCell>
        <mxCell id="CULUh0v67lgrJKuAHWb2-29" style="vsdxID=57;edgeStyle=none;startArrow=none;endArrow=block;startSize=5;endSize=9;strokeColor=#000000;spacingTop=0;spacingBottom=0;spacingLeft=0;spacingRight=0;verticalAlign=middle;html=1;labelBackgroundColor=#ffffff;rounded=0;" parent="1" source="203xu0XrpAFpmtI-5cuE-13" target="CULUh0v67lgrJKuAHWb2-28" edge="1">
          <mxGeometry relative="1" as="geometry">
            <mxPoint as="offset" />
            <mxPoint x="-684" y="-750" as="sourcePoint" />
            <mxPoint x="-657" y="-825" as="targetPoint" />
          </mxGeometry>
        </mxCell>
        <mxCell id="CULUh0v67lgrJKuAHWb2-31" style="vsdxID=57;edgeStyle=none;startArrow=none;endArrow=block;startSize=5;endSize=9;strokeColor=#000000;spacingTop=0;spacingBottom=0;spacingLeft=0;spacingRight=0;verticalAlign=middle;html=1;labelBackgroundColor=#ffffff;rounded=0;" parent="1" source="CULUh0v67lgrJKuAHWb2-28" target="A6ZcCyZVLG_3UMEJ_GDC-4" edge="1">
          <mxGeometry relative="1" as="geometry">
            <mxPoint as="offset" />
            <mxPoint x="-796" y="-945" as="sourcePoint" />
            <mxPoint x="-754" y="-920" as="targetPoint" />
          </mxGeometry>
        </mxCell>
        <mxCell id="CULUh0v67lgrJKuAHWb2-33" value="13" style="vsdxID=51;fillColor=#FFFFFF;gradientColor=none;shape=stencil(vVHLDsIgEPwajiQI6RfU+h8bu22JCGRB2/69kG1iazx58DazM/vIjjBtmiCi0CplCjecbZ8nYc5Ca+snJJsLEqYTph0C4Ujh4XvmEaqzont41gkL96naodXKrGF6YSfQtUi0OXXDVlqPfJNP6usotUhYbJIUMmQb/GGrAxpRljVycDBuc1hKM2LclX8/7H9nFfB+82Cd45T2+mcspcSRmu4F);labelBackgroundColor=none;rounded=0;html=1;whiteSpace=wrap;" parent="1" vertex="1">
          <mxGeometry x="-610" y="40" width="45" height="40" as="geometry" />
        </mxCell>
        <mxCell id="CULUh0v67lgrJKuAHWb2-34" style="vsdxID=57;edgeStyle=none;startArrow=none;endArrow=block;startSize=5;endSize=9;strokeColor=#000000;spacingTop=0;spacingBottom=0;spacingLeft=0;spacingRight=0;verticalAlign=middle;html=1;labelBackgroundColor=#ffffff;rounded=0;" parent="1" source="CULUh0v67lgrJKuAHWb2-33" target="ZhGPCTu5Iyny0ZlqSRic-1" edge="1">
          <mxGeometry relative="1" as="geometry">
            <mxPoint as="offset" />
            <mxPoint x="-487" y="90" as="sourcePoint" />
            <mxPoint x="-498" y="45" as="targetPoint" />
          </mxGeometry>
        </mxCell>
        <mxCell id="CULUh0v67lgrJKuAHWb2-35" value="MODO" style="verticalAlign=middle;align=center;vsdxID=7;fillColor=#FFFFFF;gradientColor=none;shape=stencil(nZBLDoAgDERP0z3SIyjew0SURgSD+Lu9kMZoXLhwN9O+tukAlrNpJg1SzDH4QW/URgNYgZTkjA4UkwJUgGXng+6DX1zLfmoymdXo17xh5zmRJ6Q42BWCfc2oJfdAr+Yv+AP9Cb7OJ3H/2JG1HNGz/84klThPVCc=);strokeColor=#000000;spacingTop=-1;spacingBottom=-1;spacingLeft=-1;spacingRight=-1;labelBackgroundColor=none;rounded=0;html=1;whiteSpace=wrap;" parent="1" vertex="1">
          <mxGeometry x="-545.5" y="-1040" width="82" height="30" as="geometry" />
        </mxCell>
        <mxCell id="CULUh0v67lgrJKuAHWb2-36" style="vsdxID=57;edgeStyle=none;startArrow=none;endArrow=block;startSize=5;endSize=9;strokeColor=#000000;spacingTop=0;spacingBottom=0;spacingLeft=0;spacingRight=0;verticalAlign=middle;html=1;labelBackgroundColor=#ffffff;rounded=0;" parent="1" source="CULUh0v67lgrJKuAHWb2-25" target="CULUh0v67lgrJKuAHWb2-35" edge="1">
          <mxGeometry relative="1" as="geometry">
            <mxPoint as="offset" />
            <mxPoint x="-729" y="-940" as="sourcePoint" />
            <mxPoint x="-686" y="-970" as="targetPoint" />
          </mxGeometry>
        </mxCell>
        <mxCell id="CULUh0v67lgrJKuAHWb2-37" value="&lt;font style=&quot;font-size: 11px ; font-family: &amp;quot;calibri&amp;quot; ; color: #000000 ; direction: ltr ; letter-spacing: 0px ; line-height: 120% ; opacity: 1&quot;&gt;ES&lt;br&gt;&lt;/font&gt;" style="verticalAlign=middle;align=center;vsdxID=2;fillColor=#FFFFFF;gradientColor=none;shape=stencil(tVLREoIgEPwaHnEQxsl3s/9gEpSJwDko7e+DsEkze2l627vdu5uFRaxyHe8FosR5sCcxqMZ3iO0Rpcp0ApQPCLEasUpaEC3Yi2lS3fOojOhsr3HDmObyMtsVcYqS29Qh5FEfklwrM5OXeUa/yjkcAwfr7TDpiyTfXvjkMR+Vw2A998qaBac5tAKHU1hq3i4oNwjRr9ofvayt/+Rk+yX/4iWA159KpXWKxJx/z0Bopfyw+g4=);strokeColor=#000000;spacingTop=-1;spacingBottom=-1;spacingLeft=-1;spacingRight=-1;labelBackgroundColor=none;rounded=0;html=1;whiteSpace=wrap;" parent="1" vertex="1">
          <mxGeometry x="-690" y="-1080" width="80" height="30" as="geometry" />
        </mxCell>
        <mxCell id="CULUh0v67lgrJKuAHWb2-38" style="vsdxID=57;edgeStyle=none;startArrow=none;endArrow=block;startSize=5;endSize=9;strokeColor=#000000;spacingTop=0;spacingBottom=0;spacingLeft=0;spacingRight=0;verticalAlign=middle;html=1;labelBackgroundColor=#ffffff;rounded=0;" parent="1" source="CULUh0v67lgrJKuAHWb2-35" target="CULUh0v67lgrJKuAHWb2-37" edge="1">
          <mxGeometry relative="1" as="geometry">
            <mxPoint as="offset" />
            <mxPoint x="-498" y="-1034" as="sourcePoint" />
            <mxPoint x="-440" y="-975" as="targetPoint" />
          </mxGeometry>
        </mxCell>
        <mxCell id="CULUh0v67lgrJKuAHWb2-39" style="vsdxID=57;edgeStyle=none;startArrow=none;endArrow=block;startSize=5;endSize=9;strokeColor=#000000;spacingTop=0;spacingBottom=0;spacingLeft=0;spacingRight=0;verticalAlign=middle;html=1;labelBackgroundColor=#ffffff;rounded=0;" parent="1" source="CULUh0v67lgrJKuAHWb2-37" target="CULUh0v67lgrJKuAHWb2-42" edge="1">
          <mxGeometry relative="1" as="geometry">
            <mxPoint as="offset" />
            <mxPoint x="-535" y="-1026" as="sourcePoint" />
            <mxPoint x="-710" y="-1110" as="targetPoint" />
          </mxGeometry>
        </mxCell>
        <mxCell id="CULUh0v67lgrJKuAHWb2-40" style="vsdxID=57;edgeStyle=none;startArrow=none;endArrow=block;startSize=5;endSize=9;strokeColor=#000000;spacingTop=0;spacingBottom=0;spacingLeft=0;spacingRight=0;verticalAlign=middle;html=1;labelBackgroundColor=#ffffff;rounded=0;" parent="1" source="CULUh0v67lgrJKuAHWb2-37" target="CULUh0v67lgrJKuAHWb2-41" edge="1">
          <mxGeometry relative="1" as="geometry">
            <mxPoint as="offset" />
            <mxPoint x="-525" y="-1016" as="sourcePoint" />
            <mxPoint x="-810" y="-1080" as="targetPoint" />
          </mxGeometry>
        </mxCell>
        <mxCell id="CULUh0v67lgrJKuAHWb2-41" value="BATALLA" style="verticalAlign=middle;align=center;vsdxID=7;fillColor=#FFFFFF;gradientColor=none;shape=stencil(nZBLDoAgDERP0z3SIyjew0SURgSD+Lu9kMZoXLhwN9O+tukAlrNpJg1SzDH4QW/URgNYgZTkjA4UkwJUgGXng+6DX1zLfmoymdXo17xh5zmRJ6Q42BWCfc2oJfdAr+Yv+AP9Cb7OJ3H/2JG1HNGz/84klThPVCc=);strokeColor=#000000;spacingTop=-1;spacingBottom=-1;spacingLeft=-1;spacingRight=-1;labelBackgroundColor=none;rounded=0;html=1;whiteSpace=wrap;" parent="1" vertex="1">
          <mxGeometry x="-827" y="-1090" width="82" height="30" as="geometry" />
        </mxCell>
        <mxCell id="CULUh0v67lgrJKuAHWb2-42" value="CORRIENTE" style="verticalAlign=middle;align=center;vsdxID=7;fillColor=#FFFFFF;gradientColor=none;shape=stencil(nZBLDoAgDERP0z3SIyjew0SURgSD+Lu9kMZoXLhwN9O+tukAlrNpJg1SzDH4QW/URgNYgZTkjA4UkwJUgGXng+6DX1zLfmoymdXo17xh5zmRJ6Q42BWCfc2oJfdAr+Yv+AP9Cb7OJ3H/2JG1HNGz/84klThPVCc=);strokeColor=#000000;spacingTop=-1;spacingBottom=-1;spacingLeft=-1;spacingRight=-1;labelBackgroundColor=none;rounded=0;html=1;whiteSpace=wrap;" parent="1" vertex="1">
          <mxGeometry x="-820" y="-1160" width="82" height="30" as="geometry" />
        </mxCell>
      </root>
    </mxGraphModel>
  </diagram>
</mxfile>
